<?xml version="1.0" encoding="UTF-8"?><svg xmlns="http://www.w3.org/2000/svg" xmlns:xlink="http://www.w3.org/1999/xlink" stroke-dasharray="none" shape-rendering="auto" font-family="'Dialog'" width="1184" text-rendering="auto" fill-opacity="1" contentScriptType="text/ecmascript" color-interpolation="auto" color-rendering="auto" preserveAspectRatio="xMidYMid meet" font-size="12" fill="black" stroke="black" image-rendering="auto" stroke-miterlimit="10" zoomAndPan="magnify" version="1.0" stroke-linecap="square" stroke-linejoin="miter" contentStyleType="text/css" font-style="normal" height="814" stroke-width="1" stroke-dashoffset="0" font-weight="normal" stroke-opacity="1">
<!--Generated by the Batik Graphics2D SVG Generator-->
<defs id="genericDefs"/>
<g>
<defs id="defs1">
<clipPath clipPathUnits="userSpaceOnUse" id="clipPath1">
<path d="M34 25 L1150 25 L1150 404 L34 404 L34 25 Z"/>
</clipPath>
<clipPath clipPathUnits="userSpaceOnUse" id="clipPath2">
<path d="M-1 -1 L1185 -1 L1185 815 L-1 815 L-1 -1 Z"/>
</clipPath>
<clipPath clipPathUnits="userSpaceOnUse" id="clipPath3">
<path d="M34 402 L1150 402 L1150 815 L34 815 L34 402 Z"/>
</clipPath>
</defs>
<g fill="white" text-rendering="geometricPrecision" font-family="'Segoe UI'" stroke-linejoin="round" stroke="white" stroke-width="0" stroke-miterlimit="0">
<rect x="35" y="26" clip-path="url(#clipPath1)" width="1114" height="377" stroke="none"/>
</g>
<g stroke-linecap="butt" fill="rgb(204,204,204)" text-rendering="geometricPrecision" font-family="'Segoe UI'" stroke-dasharray="3,3" stroke="rgb(204,204,204)">
<line clip-path="url(#clipPath1)" fill="none" x1="35" x2="1149" y1="403" y2="403"/>
<line clip-path="url(#clipPath1)" fill="none" x1="35" x2="1149" y1="327" y2="327"/>
<line clip-path="url(#clipPath1)" fill="none" x1="35" x2="1149" y1="251" y2="251"/>
<line clip-path="url(#clipPath1)" fill="none" x1="35" x2="1149" y1="175" y2="175"/>
<line clip-path="url(#clipPath1)" fill="none" x1="35" x2="1149" y1="99" y2="99"/>
<rect x="1129" y="403" clip-path="url(#clipPath1)" fill="rgb(0,0,139)" width="9" height="1" stroke="none"/>
<rect x="1116" y="320" clip-path="url(#clipPath1)" fill="rgb(0,0,139)" width="9" height="82" stroke="none"/>
<rect x="1116" y="320" clip-path="url(#clipPath1)" fill="none" width="9" stroke-dasharray="none" height="82"/>
<rect x="1104" y="403" clip-path="url(#clipPath1)" fill="rgb(0,0,139)" width="9" stroke-dasharray="none" height="1" stroke="none"/>
<rect x="1091" y="320" clip-path="url(#clipPath1)" fill="rgb(0,0,139)" width="9" stroke-dasharray="none" height="82" stroke="none"/>
<rect x="1091" y="320" clip-path="url(#clipPath1)" fill="none" width="9" stroke-dasharray="none" height="82"/>
<rect x="1079" y="403" clip-path="url(#clipPath1)" fill="rgb(0,0,139)" width="9" stroke-dasharray="none" height="1" stroke="none"/>
<rect x="1066" y="60" clip-path="url(#clipPath1)" fill="rgb(0,0,139)" width="9" stroke-dasharray="none" height="342" stroke="none"/>
<rect x="1066" y="60" clip-path="url(#clipPath1)" fill="none" width="9" stroke-dasharray="none" height="342"/>
<rect x="1054" y="403" clip-path="url(#clipPath1)" fill="rgb(0,0,139)" width="9" stroke-dasharray="none" height="1" stroke="none"/>
<rect x="1041" y="60" clip-path="url(#clipPath1)" fill="rgb(0,0,139)" width="9" stroke-dasharray="none" height="342" stroke="none"/>
<rect x="1041" y="60" clip-path="url(#clipPath1)" fill="none" width="9" stroke-dasharray="none" height="342"/>
<rect x="1029" y="403" clip-path="url(#clipPath1)" fill="rgb(0,0,139)" width="9" stroke-dasharray="none" height="1" stroke="none"/>
<rect x="1016" y="60" clip-path="url(#clipPath1)" fill="rgb(0,0,139)" width="9" stroke-dasharray="none" height="342" stroke="none"/>
<rect x="1016" y="60" clip-path="url(#clipPath1)" fill="none" width="9" stroke-dasharray="none" height="342"/>
<rect x="1004" y="403" clip-path="url(#clipPath1)" fill="rgb(0,0,139)" width="9" stroke-dasharray="none" height="1" stroke="none"/>
<rect x="991" y="60" clip-path="url(#clipPath1)" fill="rgb(0,0,139)" width="9" stroke-dasharray="none" height="342" stroke="none"/>
<rect x="991" y="60" clip-path="url(#clipPath1)" fill="none" width="9" stroke-dasharray="none" height="342"/>
<rect x="979" y="403" clip-path="url(#clipPath1)" fill="rgb(0,0,139)" width="9" stroke-dasharray="none" height="1" stroke="none"/>
<rect x="967" y="60" clip-path="url(#clipPath1)" fill="rgb(0,0,139)" width="9" stroke-dasharray="none" height="342" stroke="none"/>
<rect x="967" y="60" clip-path="url(#clipPath1)" fill="none" width="9" stroke-dasharray="none" height="342"/>
<rect x="954" y="403" clip-path="url(#clipPath1)" fill="rgb(0,0,139)" width="9" stroke-dasharray="none" height="1" stroke="none"/>
<rect x="942" y="60" clip-path="url(#clipPath1)" fill="rgb(0,0,139)" width="9" stroke-dasharray="none" height="342" stroke="none"/>
<rect x="942" y="60" clip-path="url(#clipPath1)" fill="none" width="9" stroke-dasharray="none" height="342"/>
<rect x="929" y="403" clip-path="url(#clipPath1)" fill="rgb(0,0,139)" width="9" stroke-dasharray="none" height="1" stroke="none"/>
<rect x="917" y="60" clip-path="url(#clipPath1)" fill="rgb(0,0,139)" width="9" stroke-dasharray="none" height="342" stroke="none"/>
<rect x="917" y="60" clip-path="url(#clipPath1)" fill="none" width="9" stroke-dasharray="none" height="342"/>
<rect x="904" y="403" clip-path="url(#clipPath1)" fill="rgb(0,0,139)" width="9" stroke-dasharray="none" height="1" stroke="none"/>
<rect x="892" y="60" clip-path="url(#clipPath1)" fill="rgb(0,0,139)" width="9" stroke-dasharray="none" height="342" stroke="none"/>
<rect x="892" y="60" clip-path="url(#clipPath1)" fill="none" width="9" stroke-dasharray="none" height="342"/>
<rect x="879" y="403" clip-path="url(#clipPath1)" fill="rgb(0,0,139)" width="9" stroke-dasharray="none" height="1" stroke="none"/>
<rect x="867" y="60" clip-path="url(#clipPath1)" fill="rgb(0,0,139)" width="9" stroke-dasharray="none" height="342" stroke="none"/>
<rect x="867" y="60" clip-path="url(#clipPath1)" fill="none" width="9" stroke-dasharray="none" height="342"/>
<rect x="854" y="403" clip-path="url(#clipPath1)" fill="rgb(0,0,139)" width="9" stroke-dasharray="none" height="1" stroke="none"/>
<rect x="842" y="60" clip-path="url(#clipPath1)" fill="rgb(0,0,139)" width="9" stroke-dasharray="none" height="342" stroke="none"/>
<rect x="842" y="60" clip-path="url(#clipPath1)" fill="none" width="9" stroke-dasharray="none" height="342"/>
<rect x="830" y="403" clip-path="url(#clipPath1)" fill="rgb(0,0,139)" width="9" stroke-dasharray="none" height="1" stroke="none"/>
<rect x="817" y="60" clip-path="url(#clipPath1)" fill="rgb(0,0,139)" width="9" stroke-dasharray="none" height="342" stroke="none"/>
<rect x="817" y="60" clip-path="url(#clipPath1)" fill="none" width="9" stroke-dasharray="none" height="342"/>
<rect x="805" y="403" clip-path="url(#clipPath1)" fill="rgb(0,0,139)" width="9" stroke-dasharray="none" height="1" stroke="none"/>
<rect x="792" y="60" clip-path="url(#clipPath1)" fill="rgb(0,0,139)" width="9" stroke-dasharray="none" height="342" stroke="none"/>
<rect x="792" y="60" clip-path="url(#clipPath1)" fill="none" width="9" stroke-dasharray="none" height="342"/>
<rect x="780" y="403" clip-path="url(#clipPath1)" fill="rgb(0,0,139)" width="9" stroke-dasharray="none" height="1" stroke="none"/>
<rect x="767" y="60" clip-path="url(#clipPath1)" fill="rgb(0,0,139)" width="9" stroke-dasharray="none" height="342" stroke="none"/>
<rect x="767" y="60" clip-path="url(#clipPath1)" fill="none" width="9" stroke-dasharray="none" height="342"/>
<rect x="755" y="403" clip-path="url(#clipPath1)" fill="rgb(0,0,139)" width="9" stroke-dasharray="none" height="1" stroke="none"/>
<rect x="742" y="60" clip-path="url(#clipPath1)" fill="rgb(0,0,139)" width="9" stroke-dasharray="none" height="342" stroke="none"/>
<rect x="742" y="60" clip-path="url(#clipPath1)" fill="none" width="9" stroke-dasharray="none" height="342"/>
<rect x="730" y="403" clip-path="url(#clipPath1)" fill="rgb(0,0,139)" width="9" stroke-dasharray="none" height="1" stroke="none"/>
<rect x="717" y="60" clip-path="url(#clipPath1)" fill="rgb(0,0,139)" width="9" stroke-dasharray="none" height="342" stroke="none"/>
<rect x="717" y="60" clip-path="url(#clipPath1)" fill="none" width="9" stroke-dasharray="none" height="342"/>
<rect x="705" y="403" clip-path="url(#clipPath1)" fill="rgb(0,0,139)" width="9" stroke-dasharray="none" height="1" stroke="none"/>
<rect x="692" y="60" clip-path="url(#clipPath1)" fill="rgb(0,0,139)" width="9" stroke-dasharray="none" height="342" stroke="none"/>
<rect x="692" y="60" clip-path="url(#clipPath1)" fill="none" width="9" stroke-dasharray="none" height="342"/>
<rect x="680" y="403" clip-path="url(#clipPath1)" fill="rgb(0,0,139)" width="9" stroke-dasharray="none" height="1" stroke="none"/>
<rect x="668" y="60" clip-path="url(#clipPath1)" fill="rgb(0,0,139)" width="9" stroke-dasharray="none" height="342" stroke="none"/>
<rect x="668" y="60" clip-path="url(#clipPath1)" fill="none" width="9" stroke-dasharray="none" height="342"/>
<rect x="655" y="403" clip-path="url(#clipPath1)" fill="rgb(0,0,139)" width="9" stroke-dasharray="none" height="1" stroke="none"/>
<rect x="643" y="60" clip-path="url(#clipPath1)" fill="rgb(0,0,139)" width="9" stroke-dasharray="none" height="342" stroke="none"/>
<rect x="643" y="60" clip-path="url(#clipPath1)" fill="none" width="9" stroke-dasharray="none" height="342"/>
<rect x="630" y="403" clip-path="url(#clipPath1)" fill="rgb(0,0,139)" width="9" stroke-dasharray="none" height="1" stroke="none"/>
<rect x="618" y="60" clip-path="url(#clipPath1)" fill="rgb(0,0,139)" width="9" stroke-dasharray="none" height="342" stroke="none"/>
<rect x="618" y="60" clip-path="url(#clipPath1)" fill="none" width="9" stroke-dasharray="none" height="342"/>
<rect x="605" y="403" clip-path="url(#clipPath1)" fill="rgb(0,0,139)" width="9" stroke-dasharray="none" height="1" stroke="none"/>
<rect x="593" y="402" clip-path="url(#clipPath1)" fill="rgb(0,0,139)" width="9" stroke-dasharray="none" height="1" stroke="none"/>
<rect x="580" y="403" clip-path="url(#clipPath1)" fill="rgb(0,0,139)" width="9" stroke-dasharray="none" height="1" stroke="none"/>
<rect x="568" y="402" clip-path="url(#clipPath1)" fill="rgb(0,0,139)" width="9" stroke-dasharray="none" height="1" stroke="none"/>
<rect x="555" y="403" clip-path="url(#clipPath1)" fill="rgb(0,0,139)" width="9" stroke-dasharray="none" height="1" stroke="none"/>
<rect x="543" y="402" clip-path="url(#clipPath1)" fill="rgb(0,0,139)" width="9" stroke-dasharray="none" height="1" stroke="none"/>
<rect x="530" y="403" clip-path="url(#clipPath1)" fill="rgb(0,0,139)" width="9" stroke-dasharray="none" height="1" stroke="none"/>
<rect x="518" y="402" clip-path="url(#clipPath1)" fill="rgb(0,0,139)" width="9" stroke-dasharray="none" height="1" stroke="none"/>
<rect x="506" y="403" clip-path="url(#clipPath1)" fill="rgb(0,0,139)" width="9" stroke-dasharray="none" height="1" stroke="none"/>
<rect x="493" y="402" clip-path="url(#clipPath1)" fill="rgb(0,0,139)" width="9" stroke-dasharray="none" height="1" stroke="none"/>
<rect x="481" y="403" clip-path="url(#clipPath1)" fill="rgb(0,0,139)" width="9" stroke-dasharray="none" height="1" stroke="none"/>
<rect x="468" y="402" clip-path="url(#clipPath1)" fill="rgb(0,0,139)" width="9" stroke-dasharray="none" height="1" stroke="none"/>
<rect x="456" y="403" clip-path="url(#clipPath1)" fill="rgb(0,0,139)" width="9" stroke-dasharray="none" height="1" stroke="none"/>
<rect x="443" y="402" clip-path="url(#clipPath1)" fill="rgb(0,0,139)" width="9" stroke-dasharray="none" height="1" stroke="none"/>
<rect x="431" y="403" clip-path="url(#clipPath1)" fill="rgb(0,0,139)" width="9" stroke-dasharray="none" height="1" stroke="none"/>
<rect x="418" y="402" clip-path="url(#clipPath1)" fill="rgb(0,0,139)" width="9" stroke-dasharray="none" height="1" stroke="none"/>
<rect x="406" y="403" clip-path="url(#clipPath1)" fill="rgb(0,0,139)" width="9" stroke-dasharray="none" height="1" stroke="none"/>
<rect x="393" y="402" clip-path="url(#clipPath1)" fill="rgb(0,0,139)" width="9" stroke-dasharray="none" height="1" stroke="none"/>
<rect x="381" y="403" clip-path="url(#clipPath1)" fill="rgb(0,0,139)" width="9" stroke-dasharray="none" height="1" stroke="none"/>
<rect x="368" y="402" clip-path="url(#clipPath1)" fill="rgb(0,0,139)" width="9" stroke-dasharray="none" height="1" stroke="none"/>
<rect x="356" y="403" clip-path="url(#clipPath1)" fill="rgb(0,0,139)" width="9" stroke-dasharray="none" height="1" stroke="none"/>
<rect x="344" y="402" clip-path="url(#clipPath1)" fill="rgb(0,0,139)" width="9" stroke-dasharray="none" height="1" stroke="none"/>
<rect x="331" y="403" clip-path="url(#clipPath1)" fill="rgb(0,0,139)" width="9" stroke-dasharray="none" height="1" stroke="none"/>
<rect x="319" y="402" clip-path="url(#clipPath1)" fill="rgb(0,0,139)" width="9" stroke-dasharray="none" height="1" stroke="none"/>
<rect x="306" y="403" clip-path="url(#clipPath1)" fill="rgb(0,0,139)" width="9" stroke-dasharray="none" height="1" stroke="none"/>
<rect x="294" y="402" clip-path="url(#clipPath1)" fill="rgb(0,0,139)" width="9" stroke-dasharray="none" height="1" stroke="none"/>
<rect x="281" y="403" clip-path="url(#clipPath1)" fill="rgb(0,0,139)" width="9" stroke-dasharray="none" height="1" stroke="none"/>
<rect x="269" y="402" clip-path="url(#clipPath1)" fill="rgb(0,0,139)" width="9" stroke-dasharray="none" height="1" stroke="none"/>
<rect x="256" y="403" clip-path="url(#clipPath1)" fill="rgb(0,0,139)" width="9" stroke-dasharray="none" height="1" stroke="none"/>
<rect x="244" y="402" clip-path="url(#clipPath1)" fill="rgb(0,0,139)" width="9" stroke-dasharray="none" height="1" stroke="none"/>
<rect x="231" y="403" clip-path="url(#clipPath1)" fill="rgb(0,0,139)" width="9" stroke-dasharray="none" height="1" stroke="none"/>
<rect x="219" y="402" clip-path="url(#clipPath1)" fill="rgb(0,0,139)" width="9" stroke-dasharray="none" height="1" stroke="none"/>
<rect x="206" y="403" clip-path="url(#clipPath1)" fill="rgb(0,0,139)" width="9" stroke-dasharray="none" height="1" stroke="none"/>
<rect x="194" y="402" clip-path="url(#clipPath1)" fill="rgb(0,0,139)" width="9" stroke-dasharray="none" height="1" stroke="none"/>
<rect x="182" y="403" clip-path="url(#clipPath1)" fill="rgb(0,0,139)" width="9" stroke-dasharray="none" height="1" stroke="none"/>
<rect x="169" y="402" clip-path="url(#clipPath1)" fill="rgb(0,0,139)" width="9" stroke-dasharray="none" height="1" stroke="none"/>
<rect x="157" y="403" clip-path="url(#clipPath1)" fill="rgb(0,0,139)" width="9" stroke-dasharray="none" height="1" stroke="none"/>
<rect x="144" y="402" clip-path="url(#clipPath1)" fill="rgb(0,0,139)" width="9" stroke-dasharray="none" height="1" stroke="none"/>
<rect x="132" y="403" clip-path="url(#clipPath1)" fill="rgb(0,0,139)" width="9" stroke-dasharray="none" height="1" stroke="none"/>
<rect x="119" y="402" clip-path="url(#clipPath1)" fill="rgb(0,0,139)" width="9" stroke-dasharray="none" height="1" stroke="none"/>
<rect x="107" y="403" clip-path="url(#clipPath1)" fill="rgb(0,0,139)" width="9" stroke-dasharray="none" height="1" stroke="none"/>
<rect x="94" y="402" clip-path="url(#clipPath1)" fill="rgb(0,0,139)" width="9" stroke-dasharray="none" height="1" stroke="none"/>
<rect x="82" y="403" clip-path="url(#clipPath1)" fill="rgb(0,0,139)" width="9" stroke-dasharray="none" height="1" stroke="none"/>
<rect x="69" y="402" clip-path="url(#clipPath1)" fill="rgb(0,0,139)" width="9" stroke-dasharray="none" height="1" stroke="none"/>
<rect x="57" y="403" clip-path="url(#clipPath1)" fill="rgb(0,0,139)" width="9" stroke-dasharray="none" height="1" stroke="none"/>
<rect x="44" y="402" clip-path="url(#clipPath1)" fill="rgb(0,0,139)" width="9" stroke-dasharray="none" height="1" stroke="none"/>
<rect x="35" y="26" clip-path="url(#clipPath2)" fill="none" width="1114" stroke-dasharray="none" height="377" stroke="black"/>
<line clip-path="url(#clipPath2)" fill="none" x1="36" x2="1148" y1="403" y2="403" stroke-dasharray="none"/>
</g>
<g text-rendering="geometricPrecision" font-size="13" font-family="'Arial'" stroke-linecap="butt">
<text xml:space="preserve" x="531" y="12" clip-path="url(#clipPath2)" stroke="none">Povprečen čas v vrsti</text>
<line clip-path="url(#clipPath2)" fill="none" x1="33" x2="33" y1="26" y2="403"/>
<line clip-path="url(#clipPath2)" fill="none" x1="1151" x2="1151" y1="26" y2="403"/>
<line clip-path="url(#clipPath2)" fill="none" x1="29" x2="33" y1="403" y2="403"/>
<line clip-path="url(#clipPath2)" fill="none" x1="1155" x2="1151" y1="403" y2="403"/>
<text font-size="11" x="13" y="407" clip-path="url(#clipPath2)" stroke="none" xml:space="preserve">0.0</text>
<text font-size="11" x="1158" y="407" clip-path="url(#clipPath2)" stroke="none" xml:space="preserve">0.0</text>
<line clip-path="url(#clipPath2)" fill="none" x1="31" x2="33" y1="387" y2="387"/>
<line clip-path="url(#clipPath2)" fill="none" x1="1153" x2="1151" y1="387" y2="387"/>
<line clip-path="url(#clipPath2)" fill="none" x1="31" x2="33" y1="372" y2="372"/>
<line clip-path="url(#clipPath2)" fill="none" x1="1153" x2="1151" y1="372" y2="372"/>
<line clip-path="url(#clipPath2)" fill="none" x1="31" x2="33" y1="357" y2="357"/>
<line clip-path="url(#clipPath2)" fill="none" x1="1153" x2="1151" y1="357" y2="357"/>
<line clip-path="url(#clipPath2)" fill="none" x1="31" x2="33" y1="342" y2="342"/>
<line clip-path="url(#clipPath2)" fill="none" x1="1153" x2="1151" y1="342" y2="342"/>
<line clip-path="url(#clipPath2)" fill="none" x1="29" x2="33" y1="327" y2="327"/>
<line clip-path="url(#clipPath2)" fill="none" x1="1155" x2="1151" y1="327" y2="327"/>
<text font-size="11" x="8" y="331" clip-path="url(#clipPath2)" stroke="none" xml:space="preserve">0.10</text>
<text font-size="11" x="1158" y="331" clip-path="url(#clipPath2)" stroke="none" xml:space="preserve">0.10</text>
<line clip-path="url(#clipPath2)" fill="none" x1="31" x2="33" y1="311" y2="311"/>
<line clip-path="url(#clipPath2)" fill="none" x1="1153" x2="1151" y1="311" y2="311"/>
<line clip-path="url(#clipPath2)" fill="none" x1="31" x2="33" y1="296" y2="296"/>
<line clip-path="url(#clipPath2)" fill="none" x1="1153" x2="1151" y1="296" y2="296"/>
<line clip-path="url(#clipPath2)" fill="none" x1="31" x2="33" y1="281" y2="281"/>
<line clip-path="url(#clipPath2)" fill="none" x1="1153" x2="1151" y1="281" y2="281"/>
<line clip-path="url(#clipPath2)" fill="none" x1="31" x2="33" y1="266" y2="266"/>
<line clip-path="url(#clipPath2)" fill="none" x1="1153" x2="1151" y1="266" y2="266"/>
<line clip-path="url(#clipPath2)" fill="none" x1="29" x2="33" y1="251" y2="251"/>
<line clip-path="url(#clipPath2)" fill="none" x1="1155" x2="1151" y1="251" y2="251"/>
<text font-size="11" x="8" y="255" clip-path="url(#clipPath2)" stroke="none" xml:space="preserve">0.20</text>
<text font-size="11" x="1158" y="255" clip-path="url(#clipPath2)" stroke="none" xml:space="preserve">0.20</text>
<line clip-path="url(#clipPath2)" fill="none" x1="31" x2="33" y1="236" y2="236"/>
<line clip-path="url(#clipPath2)" fill="none" x1="1153" x2="1151" y1="236" y2="236"/>
<line clip-path="url(#clipPath2)" fill="none" x1="31" x2="33" y1="220" y2="220"/>
<line clip-path="url(#clipPath2)" fill="none" x1="1153" x2="1151" y1="220" y2="220"/>
<line clip-path="url(#clipPath2)" fill="none" x1="31" x2="33" y1="205" y2="205"/>
<line clip-path="url(#clipPath2)" fill="none" x1="1153" x2="1151" y1="205" y2="205"/>
<line clip-path="url(#clipPath2)" fill="none" x1="31" x2="33" y1="190" y2="190"/>
<line clip-path="url(#clipPath2)" fill="none" x1="1153" x2="1151" y1="190" y2="190"/>
<line clip-path="url(#clipPath2)" fill="none" x1="29" x2="33" y1="175" y2="175"/>
<line clip-path="url(#clipPath2)" fill="none" x1="1155" x2="1151" y1="175" y2="175"/>
<text font-size="11" x="8" y="179" clip-path="url(#clipPath2)" stroke="none" xml:space="preserve">0.30</text>
<text font-size="11" x="1158" y="179" clip-path="url(#clipPath2)" stroke="none" xml:space="preserve">0.30</text>
<line clip-path="url(#clipPath2)" fill="none" x1="31" x2="33" y1="160" y2="160"/>
<line clip-path="url(#clipPath2)" fill="none" x1="1153" x2="1151" y1="160" y2="160"/>
<line clip-path="url(#clipPath2)" fill="none" x1="31" x2="33" y1="145" y2="145"/>
<line clip-path="url(#clipPath2)" fill="none" x1="1153" x2="1151" y1="145" y2="145"/>
<line clip-path="url(#clipPath2)" fill="none" x1="31" x2="33" y1="129" y2="129"/>
<line clip-path="url(#clipPath2)" fill="none" x1="1153" x2="1151" y1="129" y2="129"/>
<line clip-path="url(#clipPath2)" fill="none" x1="31" x2="33" y1="114" y2="114"/>
<line clip-path="url(#clipPath2)" fill="none" x1="1153" x2="1151" y1="114" y2="114"/>
<line clip-path="url(#clipPath2)" fill="none" x1="29" x2="33" y1="99" y2="99"/>
<line clip-path="url(#clipPath2)" fill="none" x1="1155" x2="1151" y1="99" y2="99"/>
<text font-size="11" x="8" y="103" clip-path="url(#clipPath2)" stroke="none" xml:space="preserve">0.40</text>
<text font-size="11" x="1158" y="103" clip-path="url(#clipPath2)" stroke="none" xml:space="preserve">0.40</text>
<line clip-path="url(#clipPath2)" fill="none" x1="31" x2="33" y1="84" y2="84"/>
<line clip-path="url(#clipPath2)" fill="none" x1="1153" x2="1151" y1="84" y2="84"/>
<line clip-path="url(#clipPath2)" fill="none" x1="31" x2="33" y1="69" y2="69"/>
<line clip-path="url(#clipPath2)" fill="none" x1="1153" x2="1151" y1="69" y2="69"/>
<line clip-path="url(#clipPath2)" fill="none" x1="31" x2="33" y1="53" y2="53"/>
<line clip-path="url(#clipPath2)" fill="none" x1="1153" x2="1151" y1="53" y2="53"/>
<line clip-path="url(#clipPath2)" fill="none" x1="31" x2="33" y1="38" y2="38"/>
<line clip-path="url(#clipPath2)" fill="none" x1="1153" x2="1151" y1="38" y2="38"/>
<line clip-path="url(#clipPath3)" fill="none" x1="44" x2="53" y1="407" y2="407"/>
<line clip-path="url(#clipPath3)" fill="none" x1="57" x2="66" y1="407" y2="407"/>
<line clip-path="url(#clipPath3)" fill="none" x1="69" x2="78" y1="407" y2="407"/>
<line clip-path="url(#clipPath3)" fill="none" x1="82" x2="91" y1="407" y2="407"/>
<line clip-path="url(#clipPath3)" fill="none" x1="94" x2="103" y1="407" y2="407"/>
<line clip-path="url(#clipPath3)" fill="none" x1="107" x2="116" y1="407" y2="407"/>
<line clip-path="url(#clipPath3)" fill="none" x1="119" x2="128" y1="407" y2="407"/>
<line clip-path="url(#clipPath3)" fill="none" x1="132" x2="141" y1="407" y2="407"/>
<line clip-path="url(#clipPath3)" fill="none" x1="144" x2="153" y1="407" y2="407"/>
<line clip-path="url(#clipPath3)" fill="none" x1="157" x2="166" y1="407" y2="407"/>
<line clip-path="url(#clipPath3)" fill="none" x1="169" x2="178" y1="407" y2="407"/>
<line clip-path="url(#clipPath3)" fill="none" x1="182" x2="191" y1="407" y2="407"/>
<line clip-path="url(#clipPath3)" fill="none" x1="194" x2="203" y1="407" y2="407"/>
<line clip-path="url(#clipPath3)" fill="none" x1="206" x2="215" y1="407" y2="407"/>
<line clip-path="url(#clipPath3)" fill="none" x1="219" x2="228" y1="407" y2="407"/>
<line clip-path="url(#clipPath3)" fill="none" x1="231" x2="240" y1="407" y2="407"/>
<line clip-path="url(#clipPath3)" fill="none" x1="244" x2="253" y1="407" y2="407"/>
<line clip-path="url(#clipPath3)" fill="none" x1="256" x2="265" y1="407" y2="407"/>
<line clip-path="url(#clipPath3)" fill="none" x1="269" x2="278" y1="407" y2="407"/>
<line clip-path="url(#clipPath3)" fill="none" x1="281" x2="290" y1="407" y2="407"/>
<line clip-path="url(#clipPath3)" fill="none" x1="294" x2="303" y1="407" y2="407"/>
<line clip-path="url(#clipPath3)" fill="none" x1="306" x2="315" y1="407" y2="407"/>
<line clip-path="url(#clipPath3)" fill="none" x1="319" x2="328" y1="407" y2="407"/>
<line clip-path="url(#clipPath3)" fill="none" x1="331" x2="340" y1="407" y2="407"/>
<line clip-path="url(#clipPath3)" fill="none" x1="344" x2="353" y1="407" y2="407"/>
<line clip-path="url(#clipPath3)" fill="none" x1="356" x2="365" y1="407" y2="407"/>
<line clip-path="url(#clipPath3)" fill="none" x1="368" x2="377" y1="407" y2="407"/>
<line clip-path="url(#clipPath3)" fill="none" x1="381" x2="390" y1="407" y2="407"/>
<line clip-path="url(#clipPath3)" fill="none" x1="393" x2="402" y1="407" y2="407"/>
<line clip-path="url(#clipPath3)" fill="none" x1="406" x2="415" y1="407" y2="407"/>
<line clip-path="url(#clipPath3)" fill="none" x1="418" x2="427" y1="407" y2="407"/>
<line clip-path="url(#clipPath3)" fill="none" x1="431" x2="440" y1="407" y2="407"/>
<line clip-path="url(#clipPath3)" fill="none" x1="443" x2="452" y1="407" y2="407"/>
<line clip-path="url(#clipPath3)" fill="none" x1="456" x2="465" y1="407" y2="407"/>
<line clip-path="url(#clipPath3)" fill="none" x1="468" x2="477" y1="407" y2="407"/>
<line clip-path="url(#clipPath3)" fill="none" x1="481" x2="490" y1="407" y2="407"/>
<line clip-path="url(#clipPath3)" fill="none" x1="493" x2="502" y1="407" y2="407"/>
<line clip-path="url(#clipPath3)" fill="none" x1="506" x2="515" y1="407" y2="407"/>
<line clip-path="url(#clipPath3)" fill="none" x1="518" x2="527" y1="407" y2="407"/>
<line clip-path="url(#clipPath3)" fill="none" x1="530" x2="539" y1="407" y2="407"/>
<line clip-path="url(#clipPath3)" fill="none" x1="543" x2="552" y1="407" y2="407"/>
<line clip-path="url(#clipPath3)" fill="none" x1="555" x2="564" y1="407" y2="407"/>
<line clip-path="url(#clipPath3)" fill="none" x1="568" x2="577" y1="407" y2="407"/>
<line clip-path="url(#clipPath3)" fill="none" x1="580" x2="589" y1="407" y2="407"/>
<line clip-path="url(#clipPath3)" fill="none" x1="593" x2="602" y1="407" y2="407"/>
<line clip-path="url(#clipPath3)" fill="none" x1="605" x2="614" y1="407" y2="407"/>
<line clip-path="url(#clipPath3)" fill="none" x1="618" x2="627" y1="407" y2="407"/>
<line clip-path="url(#clipPath3)" fill="none" x1="630" x2="639" y1="407" y2="407"/>
<line clip-path="url(#clipPath3)" fill="none" x1="643" x2="652" y1="407" y2="407"/>
<line clip-path="url(#clipPath3)" fill="none" x1="655" x2="664" y1="407" y2="407"/>
<line clip-path="url(#clipPath3)" fill="none" x1="668" x2="677" y1="407" y2="407"/>
<line clip-path="url(#clipPath3)" fill="none" x1="680" x2="689" y1="407" y2="407"/>
<line clip-path="url(#clipPath3)" fill="none" x1="692" x2="701" y1="407" y2="407"/>
<line clip-path="url(#clipPath3)" fill="none" x1="705" x2="714" y1="407" y2="407"/>
<line clip-path="url(#clipPath3)" fill="none" x1="717" x2="726" y1="407" y2="407"/>
<line clip-path="url(#clipPath3)" fill="none" x1="730" x2="739" y1="407" y2="407"/>
<line clip-path="url(#clipPath3)" fill="none" x1="742" x2="751" y1="407" y2="407"/>
<line clip-path="url(#clipPath3)" fill="none" x1="755" x2="764" y1="407" y2="407"/>
<line clip-path="url(#clipPath3)" fill="none" x1="767" x2="776" y1="407" y2="407"/>
<line clip-path="url(#clipPath3)" fill="none" x1="780" x2="789" y1="407" y2="407"/>
<line clip-path="url(#clipPath3)" fill="none" x1="792" x2="801" y1="407" y2="407"/>
<line clip-path="url(#clipPath3)" fill="none" x1="805" x2="814" y1="407" y2="407"/>
<line clip-path="url(#clipPath3)" fill="none" x1="817" x2="826" y1="407" y2="407"/>
<line clip-path="url(#clipPath3)" fill="none" x1="830" x2="839" y1="407" y2="407"/>
<line clip-path="url(#clipPath3)" fill="none" x1="842" x2="851" y1="407" y2="407"/>
<line clip-path="url(#clipPath3)" fill="none" x1="854" x2="863" y1="407" y2="407"/>
<line clip-path="url(#clipPath3)" fill="none" x1="867" x2="876" y1="407" y2="407"/>
<line clip-path="url(#clipPath3)" fill="none" x1="879" x2="888" y1="407" y2="407"/>
<line clip-path="url(#clipPath3)" fill="none" x1="892" x2="901" y1="407" y2="407"/>
<line clip-path="url(#clipPath3)" fill="none" x1="904" x2="913" y1="407" y2="407"/>
<line clip-path="url(#clipPath3)" fill="none" x1="917" x2="926" y1="407" y2="407"/>
<line clip-path="url(#clipPath3)" fill="none" x1="929" x2="938" y1="407" y2="407"/>
<line clip-path="url(#clipPath3)" fill="none" x1="942" x2="951" y1="407" y2="407"/>
<line clip-path="url(#clipPath3)" fill="none" x1="954" x2="963" y1="407" y2="407"/>
<line clip-path="url(#clipPath3)" fill="none" x1="967" x2="976" y1="407" y2="407"/>
<line clip-path="url(#clipPath3)" fill="none" x1="979" x2="988" y1="407" y2="407"/>
<line clip-path="url(#clipPath3)" fill="none" x1="991" x2="1000" y1="407" y2="407"/>
<line clip-path="url(#clipPath3)" fill="none" x1="1004" x2="1013" y1="407" y2="407"/>
<line clip-path="url(#clipPath3)" fill="none" x1="1016" x2="1025" y1="407" y2="407"/>
<line clip-path="url(#clipPath3)" fill="none" x1="1029" x2="1038" y1="407" y2="407"/>
<line clip-path="url(#clipPath3)" fill="none" x1="1041" x2="1050" y1="407" y2="407"/>
<line clip-path="url(#clipPath3)" fill="none" x1="1054" x2="1063" y1="407" y2="407"/>
<line clip-path="url(#clipPath3)" fill="none" x1="1066" x2="1075" y1="407" y2="407"/>
<line clip-path="url(#clipPath3)" fill="none" x1="1079" x2="1088" y1="407" y2="407"/>
<line clip-path="url(#clipPath3)" fill="none" x1="1091" x2="1100" y1="407" y2="407"/>
<line clip-path="url(#clipPath3)" fill="none" x1="1104" x2="1113" y1="407" y2="407"/>
<line clip-path="url(#clipPath3)" fill="none" x1="1116" x2="1125" y1="407" y2="407"/>
<line clip-path="url(#clipPath3)" fill="none" x1="1129" x2="1138" y1="407" y2="407"/>
<text font-size="11" x="43" y="429" clip-path="url(#clipPath3)" stroke="none" xml:space="preserve">Bus.standardHost1.eth[0].queue.dataQueue</text>
<text font-size="11" x="56" y="419" clip-path="url(#clipPath3)" stroke="none" xml:space="preserve">Bus.standardHost1.eth[0].queue.pauseQueue</text>
<text font-size="11" x="68" y="429" clip-path="url(#clipPath3)" stroke="none" xml:space="preserve">Bus.standardHost2.eth[0].queue.dataQueue</text>
<text font-size="11" x="81" y="419" clip-path="url(#clipPath3)" stroke="none" xml:space="preserve">Bus.standardHost2.eth[0].queue.pauseQueue</text>
<text font-size="11" x="93" y="429" clip-path="url(#clipPath3)" stroke="none" xml:space="preserve">Bus.standardHost3.eth[0].queue.dataQueue</text>
<text font-size="11" x="106" y="419" clip-path="url(#clipPath3)" stroke="none" xml:space="preserve">Bus.standardHost3.eth[0].queue.pauseQueue</text>
<text font-size="11" x="118" y="429" clip-path="url(#clipPath3)" stroke="none" xml:space="preserve">Bus.standardHost4.eth[0].queue.dataQueue</text>
<text font-size="11" x="131" y="419" clip-path="url(#clipPath3)" stroke="none" xml:space="preserve">Bus.standardHost4.eth[0].queue.pauseQueue</text>
<text font-size="11" x="143" y="429" clip-path="url(#clipPath3)" stroke="none" xml:space="preserve">Bus.standardHost5.eth[0].queue.dataQueue</text>
<text font-size="11" x="156" y="419" clip-path="url(#clipPath3)" stroke="none" xml:space="preserve">Bus.standardHost5.eth[0].queue.pauseQueue</text>
<text font-size="11" x="168" y="429" clip-path="url(#clipPath3)" stroke="none" xml:space="preserve">Bus.standardHost6.eth[0].queue.dataQueue</text>
<text font-size="11" x="181" y="419" clip-path="url(#clipPath3)" stroke="none" xml:space="preserve">Bus.standardHost6.eth[0].queue.pauseQueue</text>
<text font-size="11" x="193" y="429" clip-path="url(#clipPath3)" stroke="none" xml:space="preserve">Bus.standardHost7.eth[0].queue.dataQueue</text>
<text font-size="11" x="205" y="419" clip-path="url(#clipPath3)" stroke="none" xml:space="preserve">Bus.standardHost7.eth[0].queue.pauseQueue</text>
<text font-size="11" x="218" y="429" clip-path="url(#clipPath3)" stroke="none" xml:space="preserve">Bus.standardHost8.eth[0].queue.dataQueue</text>
<text font-size="11" x="230" y="419" clip-path="url(#clipPath3)" stroke="none" xml:space="preserve">Bus.standardHost8.eth[0].queue.pauseQueue</text>
<text font-size="11" x="243" y="429" clip-path="url(#clipPath3)" stroke="none" xml:space="preserve">Bus.standardHost9.eth[0].queue.dataQueue</text>
<text font-size="11" x="255" y="419" clip-path="url(#clipPath3)" stroke="none" xml:space="preserve">Bus.standardHost9.eth[0].queue.pauseQueue</text>
<text font-size="11" x="268" y="429" clip-path="url(#clipPath3)" stroke="none" xml:space="preserve">Bus.standardHost10.eth[0].queue.dataQueue</text>
<text font-size="11" x="280" y="419" clip-path="url(#clipPath3)" stroke="none" xml:space="preserve">Bus.standardHost10.eth[0].queue.pauseQueue</text>
<text font-size="11" x="293" y="429" clip-path="url(#clipPath3)" stroke="none" xml:space="preserve">Bus.standardHost11.eth[0].queue.dataQueue</text>
<text font-size="11" x="305" y="419" clip-path="url(#clipPath3)" stroke="none" xml:space="preserve">Bus.standardHost11.eth[0].queue.pauseQueue</text>
<text font-size="11" x="318" y="429" clip-path="url(#clipPath3)" stroke="none" xml:space="preserve">Bus.standardHost12.eth[0].queue.dataQueue</text>
<text font-size="11" x="330" y="419" clip-path="url(#clipPath3)" stroke="none" xml:space="preserve">Bus.standardHost12.eth[0].queue.pauseQueue</text>
<text font-size="11" x="343" y="429" clip-path="url(#clipPath3)" stroke="none" xml:space="preserve">Bus.standardHost13.eth[0].queue.dataQueue</text>
<text font-size="11" x="355" y="419" clip-path="url(#clipPath3)" stroke="none" xml:space="preserve">Bus.standardHost13.eth[0].queue.pauseQueue</text>
<text font-size="11" x="367" y="429" clip-path="url(#clipPath3)" stroke="none" xml:space="preserve">Bus.standardHost14.eth[0].queue.dataQueue</text>
<text font-size="11" x="380" y="419" clip-path="url(#clipPath3)" stroke="none" xml:space="preserve">Bus.standardHost14.eth[0].queue.pauseQueue</text>
<text font-size="11" x="392" y="429" clip-path="url(#clipPath3)" stroke="none" xml:space="preserve">Bus.standardHost15.eth[0].queue.dataQueue</text>
<text font-size="11" x="405" y="419" clip-path="url(#clipPath3)" stroke="none" xml:space="preserve">Bus.standardHost15.eth[0].queue.pauseQueue</text>
<text font-size="11" x="417" y="429" clip-path="url(#clipPath3)" stroke="none" xml:space="preserve">Bus.standardHost16.eth[0].queue.dataQueue</text>
<text font-size="11" x="430" y="419" clip-path="url(#clipPath3)" stroke="none" xml:space="preserve">Bus.standardHost16.eth[0].queue.pauseQueue</text>
<text font-size="11" x="442" y="429" clip-path="url(#clipPath3)" stroke="none" xml:space="preserve">Bus.standardHost17.eth[0].queue.dataQueue</text>
<text font-size="11" x="455" y="419" clip-path="url(#clipPath3)" stroke="none" xml:space="preserve">Bus.standardHost17.eth[0].queue.pauseQueue</text>
<text font-size="11" x="467" y="429" clip-path="url(#clipPath3)" stroke="none" xml:space="preserve">Bus.standardHost18.eth[0].queue.dataQueue</text>
<text font-size="11" x="480" y="419" clip-path="url(#clipPath3)" stroke="none" xml:space="preserve">Bus.standardHost18.eth[0].queue.pauseQueue</text>
<text font-size="11" x="492" y="429" clip-path="url(#clipPath3)" stroke="none" xml:space="preserve">Bus.standardHost19.eth[0].queue.dataQueue</text>
<text font-size="11" x="505" y="419" clip-path="url(#clipPath3)" stroke="none" xml:space="preserve">Bus.standardHost19.eth[0].queue.pauseQueue</text>
<text font-size="11" x="517" y="429" clip-path="url(#clipPath3)" stroke="none" xml:space="preserve">Bus.standardHost20.eth[0].queue.dataQueue</text>
<text font-size="11" x="529" y="419" clip-path="url(#clipPath3)" stroke="none" xml:space="preserve">Bus.standardHost20.eth[0].queue.pauseQueue</text>
<text font-size="11" x="542" y="429" clip-path="url(#clipPath3)" stroke="none" xml:space="preserve">Bus.standardHost21.eth[0].queue.dataQueue</text>
<text font-size="11" x="554" y="419" clip-path="url(#clipPath3)" stroke="none" xml:space="preserve">Bus.standardHost21.eth[0].queue.pauseQueue</text>
<text font-size="11" x="567" y="429" clip-path="url(#clipPath3)" stroke="none" xml:space="preserve">Bus.standardHost22.eth[0].queue.dataQueue</text>
<text font-size="11" x="579" y="419" clip-path="url(#clipPath3)" stroke="none" xml:space="preserve">Bus.standardHost22.eth[0].queue.pauseQueue</text>
<text font-size="11" x="592" y="429" clip-path="url(#clipPath3)" stroke="none" xml:space="preserve">Bus.standardHost23.eth[0].queue.dataQueue</text>
<text font-size="11" x="604" y="419" clip-path="url(#clipPath3)" stroke="none" xml:space="preserve">Bus.standardHost23.eth[0].queue.pauseQueue</text>
<text font-size="11" x="617" y="429" clip-path="url(#clipPath3)" stroke="none" xml:space="preserve">Bus.standardHost24.eth[0].queue.dataQueue</text>
<text font-size="11" x="629" y="419" clip-path="url(#clipPath3)" stroke="none" xml:space="preserve">Bus.standardHost24.eth[0].queue.pauseQueue</text>
<text font-size="11" x="642" y="429" clip-path="url(#clipPath3)" stroke="none" xml:space="preserve">Bus.standardHost25.eth[0].queue.dataQueue</text>
<text font-size="11" x="654" y="419" clip-path="url(#clipPath3)" stroke="none" xml:space="preserve">Bus.standardHost25.eth[0].queue.pauseQueue</text>
<text font-size="11" x="667" y="429" clip-path="url(#clipPath3)" stroke="none" xml:space="preserve">Bus.standardHost26.eth[0].queue.dataQueue</text>
<text font-size="11" x="679" y="419" clip-path="url(#clipPath3)" stroke="none" xml:space="preserve">Bus.standardHost26.eth[0].queue.pauseQueue</text>
<text font-size="11" x="691" y="429" clip-path="url(#clipPath3)" stroke="none" xml:space="preserve">Bus.standardHost27.eth[0].queue.dataQueue</text>
<text font-size="11" x="704" y="419" clip-path="url(#clipPath3)" stroke="none" xml:space="preserve">Bus.standardHost27.eth[0].queue.pauseQueue</text>
<text font-size="11" x="716" y="429" clip-path="url(#clipPath3)" stroke="none" xml:space="preserve">Bus.standardHost28.eth[0].queue.dataQueue</text>
<text font-size="11" x="729" y="419" clip-path="url(#clipPath3)" stroke="none" xml:space="preserve">Bus.standardHost28.eth[0].queue.pauseQueue</text>
<text font-size="11" x="741" y="429" clip-path="url(#clipPath3)" stroke="none" xml:space="preserve">Bus.standardHost29.eth[0].queue.dataQueue</text>
<text font-size="11" x="754" y="419" clip-path="url(#clipPath3)" stroke="none" xml:space="preserve">Bus.standardHost29.eth[0].queue.pauseQueue</text>
<text font-size="11" x="766" y="429" clip-path="url(#clipPath3)" stroke="none" xml:space="preserve">Bus.standardHost30.eth[0].queue.dataQueue</text>
<text font-size="11" x="779" y="419" clip-path="url(#clipPath3)" stroke="none" xml:space="preserve">Bus.standardHost30.eth[0].queue.pauseQueue</text>
<text font-size="11" x="791" y="429" clip-path="url(#clipPath3)" stroke="none" xml:space="preserve">Bus.standardHost31.eth[0].queue.dataQueue</text>
<text font-size="11" x="804" y="419" clip-path="url(#clipPath3)" stroke="none" xml:space="preserve">Bus.standardHost31.eth[0].queue.pauseQueue</text>
<text font-size="11" x="816" y="429" clip-path="url(#clipPath3)" stroke="none" xml:space="preserve">Bus.standardHost32.eth[0].queue.dataQueue</text>
<text font-size="11" x="829" y="419" clip-path="url(#clipPath3)" stroke="none" xml:space="preserve">Bus.standardHost32.eth[0].queue.pauseQueue</text>
<text font-size="11" x="841" y="429" clip-path="url(#clipPath3)" stroke="none" xml:space="preserve">Bus.standardHost33.eth[0].queue.dataQueue</text>
<text font-size="11" x="853" y="419" clip-path="url(#clipPath3)" stroke="none" xml:space="preserve">Bus.standardHost33.eth[0].queue.pauseQueue</text>
<text font-size="11" x="866" y="429" clip-path="url(#clipPath3)" stroke="none" xml:space="preserve">Bus.standardHost34.eth[0].queue.dataQueue</text>
<text font-size="11" x="878" y="419" clip-path="url(#clipPath3)" stroke="none" xml:space="preserve">Bus.standardHost34.eth[0].queue.pauseQueue</text>
<text font-size="11" x="891" y="429" clip-path="url(#clipPath3)" stroke="none" xml:space="preserve">Bus.standardHost35.eth[0].queue.dataQueue</text>
<text font-size="11" x="903" y="419" clip-path="url(#clipPath3)" stroke="none" xml:space="preserve">Bus.standardHost35.eth[0].queue.pauseQueue</text>
<text font-size="11" x="916" y="429" clip-path="url(#clipPath3)" stroke="none" xml:space="preserve">Bus.standardHost36.eth[0].queue.dataQueue</text>
<text font-size="11" x="928" y="419" clip-path="url(#clipPath3)" stroke="none" xml:space="preserve">Bus.standardHost36.eth[0].queue.pauseQueue</text>
<text font-size="11" x="941" y="429" clip-path="url(#clipPath3)" stroke="none" xml:space="preserve">Bus.standardHost37.eth[0].queue.dataQueue</text>
<text font-size="11" x="953" y="419" clip-path="url(#clipPath3)" stroke="none" xml:space="preserve">Bus.standardHost37.eth[0].queue.pauseQueue</text>
<text font-size="11" x="966" y="429" clip-path="url(#clipPath3)" stroke="none" xml:space="preserve">Bus.standardHost38.eth[0].queue.dataQueue</text>
<text font-size="11" x="978" y="419" clip-path="url(#clipPath3)" stroke="none" xml:space="preserve">Bus.standardHost38.eth[0].queue.pauseQueue</text>
<text font-size="11" x="990" y="429" clip-path="url(#clipPath3)" stroke="none" xml:space="preserve">Bus.standardHost39.eth[0].queue.dataQueue</text>
<text font-size="11" x="1003" y="419" clip-path="url(#clipPath3)" stroke="none" xml:space="preserve">Bus.standardHost39.eth[0].queue.pauseQueue</text>
<text font-size="11" x="1015" y="429" clip-path="url(#clipPath3)" stroke="none" xml:space="preserve">Bus.standardHost40.eth[0].queue.dataQueue</text>
<text font-size="11" x="1028" y="419" clip-path="url(#clipPath3)" stroke="none" xml:space="preserve">Bus.standardHost40.eth[0].queue.pauseQueue</text>
<text font-size="11" x="1040" y="429" clip-path="url(#clipPath3)" stroke="none" xml:space="preserve">Bus.standardHost41.eth[0].queue.dataQueue</text>
<text font-size="11" x="1053" y="419" clip-path="url(#clipPath3)" stroke="none" xml:space="preserve">Bus.standardHost41.eth[0].queue.pauseQueue</text>
<text font-size="11" x="1065" y="429" clip-path="url(#clipPath3)" stroke="none" xml:space="preserve">Bus.standardHost42.eth[0].queue.dataQueue</text>
<text font-size="11" x="1078" y="419" clip-path="url(#clipPath3)" stroke="none" xml:space="preserve">Bus.standardHost42.eth[0].queue.pauseQueue</text>
<text font-size="11" x="1090" y="429" clip-path="url(#clipPath3)" stroke="none" xml:space="preserve">Bus.standardHost43.eth[0].queue.dataQueue</text>
<text font-size="11" x="1103" y="419" clip-path="url(#clipPath3)" stroke="none" xml:space="preserve">Bus.standardHost43.eth[0].queue.pauseQueue</text>
<text font-size="11" x="1115" y="429" clip-path="url(#clipPath3)" stroke="none" xml:space="preserve">Bus.standardHost44.eth[0].queue.dataQueue</text>
<text font-size="11" x="1128" y="419" clip-path="url(#clipPath3)" stroke="none" xml:space="preserve">Bus.standardHost44.eth[0].queue.pauseQueue</text>
</g>
</g>
</svg>
