<?xml version="1.0" encoding="UTF-8"?><svg xmlns="http://www.w3.org/2000/svg" xmlns:xlink="http://www.w3.org/1999/xlink" stroke-dasharray="none" shape-rendering="auto" font-family="'Dialog'" width="1184" text-rendering="auto" fill-opacity="1" contentScriptType="text/ecmascript" color-interpolation="auto" color-rendering="auto" preserveAspectRatio="xMidYMid meet" font-size="12" fill="black" stroke="black" image-rendering="auto" stroke-miterlimit="10" zoomAndPan="magnify" version="1.0" stroke-linecap="square" stroke-linejoin="miter" contentStyleType="text/css" font-style="normal" height="814" stroke-width="1" stroke-dashoffset="0" font-weight="normal" stroke-opacity="1">
<!--Generated by the Batik Graphics2D SVG Generator-->
<defs id="genericDefs"/>
<g>
<defs id="defs1">
<clipPath clipPathUnits="userSpaceOnUse" id="clipPath1">
<path d="M31 25 L1153 25 L1153 404 L31 404 L31 25 Z"/>
</clipPath>
<clipPath clipPathUnits="userSpaceOnUse" id="clipPath2">
<path d="M-1 -1 L1185 -1 L1185 815 L-1 815 L-1 -1 Z"/>
</clipPath>
<clipPath clipPathUnits="userSpaceOnUse" id="clipPath3">
<path d="M31 402 L1153 402 L1153 815 L31 815 L31 402 Z"/>
</clipPath>
</defs>
<g fill="white" text-rendering="geometricPrecision" font-family="'Segoe UI'" stroke-linejoin="round" stroke="white" stroke-width="0" stroke-miterlimit="0">
<rect x="32" y="26" clip-path="url(#clipPath1)" width="1120" height="377" stroke="none"/>
</g>
<g stroke-linecap="butt" fill="rgb(204,204,204)" text-rendering="geometricPrecision" font-family="'Segoe UI'" stroke-dasharray="3,3" stroke="rgb(204,204,204)">
<line clip-path="url(#clipPath1)" fill="none" x1="32" x2="1152" y1="403" y2="403"/>
<line clip-path="url(#clipPath1)" fill="none" x1="32" x2="1152" y1="346" y2="346"/>
<line clip-path="url(#clipPath1)" fill="none" x1="32" x2="1152" y1="289" y2="289"/>
<line clip-path="url(#clipPath1)" fill="none" x1="32" x2="1152" y1="233" y2="233"/>
<line clip-path="url(#clipPath1)" fill="none" x1="32" x2="1152" y1="176" y2="176"/>
<line clip-path="url(#clipPath1)" fill="none" x1="32" x2="1152" y1="119" y2="119"/>
<line clip-path="url(#clipPath1)" fill="none" x1="32" x2="1152" y1="63" y2="63"/>
<rect x="1131" y="403" clip-path="url(#clipPath1)" fill="rgb(0,0,139)" width="10" height="1" stroke="none"/>
<rect x="1119" y="60" clip-path="url(#clipPath1)" fill="rgb(0,0,139)" width="10" height="342" stroke="none"/>
<rect x="1119" y="60" clip-path="url(#clipPath1)" fill="none" width="10" stroke-dasharray="none" height="342"/>
<rect x="1106" y="403" clip-path="url(#clipPath1)" fill="rgb(0,0,139)" width="10" stroke-dasharray="none" height="1" stroke="none"/>
<rect x="1094" y="60" clip-path="url(#clipPath1)" fill="rgb(0,0,139)" width="10" stroke-dasharray="none" height="342" stroke="none"/>
<rect x="1094" y="60" clip-path="url(#clipPath1)" fill="none" width="10" stroke-dasharray="none" height="342"/>
<rect x="1081" y="403" clip-path="url(#clipPath1)" fill="rgb(0,0,139)" width="10" stroke-dasharray="none" height="1" stroke="none"/>
<rect x="1069" y="142" clip-path="url(#clipPath1)" fill="rgb(0,0,139)" width="10" stroke-dasharray="none" height="260" stroke="none"/>
<rect x="1069" y="142" clip-path="url(#clipPath1)" fill="none" width="10" stroke-dasharray="none" height="260"/>
<rect x="1056" y="403" clip-path="url(#clipPath1)" fill="rgb(0,0,139)" width="10" stroke-dasharray="none" height="1" stroke="none"/>
<rect x="1044" y="142" clip-path="url(#clipPath1)" fill="rgb(0,0,139)" width="10" stroke-dasharray="none" height="260" stroke="none"/>
<rect x="1044" y="142" clip-path="url(#clipPath1)" fill="none" width="10" stroke-dasharray="none" height="260"/>
<rect x="1031" y="403" clip-path="url(#clipPath1)" fill="rgb(0,0,139)" width="10" stroke-dasharray="none" height="1" stroke="none"/>
<rect x="1019" y="142" clip-path="url(#clipPath1)" fill="rgb(0,0,139)" width="10" stroke-dasharray="none" height="260" stroke="none"/>
<rect x="1019" y="142" clip-path="url(#clipPath1)" fill="none" width="10" stroke-dasharray="none" height="260"/>
<rect x="1006" y="403" clip-path="url(#clipPath1)" fill="rgb(0,0,139)" width="10" stroke-dasharray="none" height="1" stroke="none"/>
<rect x="994" y="142" clip-path="url(#clipPath1)" fill="rgb(0,0,139)" width="10" stroke-dasharray="none" height="260" stroke="none"/>
<rect x="994" y="142" clip-path="url(#clipPath1)" fill="none" width="10" stroke-dasharray="none" height="260"/>
<rect x="981" y="403" clip-path="url(#clipPath1)" fill="rgb(0,0,139)" width="10" stroke-dasharray="none" height="1" stroke="none"/>
<rect x="969" y="142" clip-path="url(#clipPath1)" fill="rgb(0,0,139)" width="10" stroke-dasharray="none" height="260" stroke="none"/>
<rect x="969" y="142" clip-path="url(#clipPath1)" fill="none" width="10" stroke-dasharray="none" height="260"/>
<rect x="956" y="403" clip-path="url(#clipPath1)" fill="rgb(0,0,139)" width="10" stroke-dasharray="none" height="1" stroke="none"/>
<rect x="944" y="142" clip-path="url(#clipPath1)" fill="rgb(0,0,139)" width="10" stroke-dasharray="none" height="260" stroke="none"/>
<rect x="944" y="142" clip-path="url(#clipPath1)" fill="none" width="10" stroke-dasharray="none" height="260"/>
<rect x="931" y="403" clip-path="url(#clipPath1)" fill="rgb(0,0,139)" width="10" stroke-dasharray="none" height="1" stroke="none"/>
<rect x="918" y="142" clip-path="url(#clipPath1)" fill="rgb(0,0,139)" width="10" stroke-dasharray="none" height="260" stroke="none"/>
<rect x="918" y="142" clip-path="url(#clipPath1)" fill="none" width="10" stroke-dasharray="none" height="260"/>
<rect x="906" y="403" clip-path="url(#clipPath1)" fill="rgb(0,0,139)" width="10" stroke-dasharray="none" height="1" stroke="none"/>
<rect x="893" y="142" clip-path="url(#clipPath1)" fill="rgb(0,0,139)" width="10" stroke-dasharray="none" height="260" stroke="none"/>
<rect x="893" y="142" clip-path="url(#clipPath1)" fill="none" width="10" stroke-dasharray="none" height="260"/>
<rect x="881" y="403" clip-path="url(#clipPath1)" fill="rgb(0,0,139)" width="10" stroke-dasharray="none" height="1" stroke="none"/>
<rect x="868" y="142" clip-path="url(#clipPath1)" fill="rgb(0,0,139)" width="10" stroke-dasharray="none" height="260" stroke="none"/>
<rect x="868" y="142" clip-path="url(#clipPath1)" fill="none" width="10" stroke-dasharray="none" height="260"/>
<rect x="856" y="403" clip-path="url(#clipPath1)" fill="rgb(0,0,139)" width="10" stroke-dasharray="none" height="1" stroke="none"/>
<rect x="843" y="142" clip-path="url(#clipPath1)" fill="rgb(0,0,139)" width="10" stroke-dasharray="none" height="260" stroke="none"/>
<rect x="843" y="142" clip-path="url(#clipPath1)" fill="none" width="10" stroke-dasharray="none" height="260"/>
<rect x="831" y="403" clip-path="url(#clipPath1)" fill="rgb(0,0,139)" width="10" stroke-dasharray="none" height="1" stroke="none"/>
<rect x="818" y="142" clip-path="url(#clipPath1)" fill="rgb(0,0,139)" width="10" stroke-dasharray="none" height="260" stroke="none"/>
<rect x="818" y="142" clip-path="url(#clipPath1)" fill="none" width="10" stroke-dasharray="none" height="260"/>
<rect x="806" y="403" clip-path="url(#clipPath1)" fill="rgb(0,0,139)" width="10" stroke-dasharray="none" height="1" stroke="none"/>
<rect x="793" y="142" clip-path="url(#clipPath1)" fill="rgb(0,0,139)" width="10" stroke-dasharray="none" height="260" stroke="none"/>
<rect x="793" y="142" clip-path="url(#clipPath1)" fill="none" width="10" stroke-dasharray="none" height="260"/>
<rect x="781" y="403" clip-path="url(#clipPath1)" fill="rgb(0,0,139)" width="10" stroke-dasharray="none" height="1" stroke="none"/>
<rect x="768" y="142" clip-path="url(#clipPath1)" fill="rgb(0,0,139)" width="10" stroke-dasharray="none" height="260" stroke="none"/>
<rect x="768" y="142" clip-path="url(#clipPath1)" fill="none" width="10" stroke-dasharray="none" height="260"/>
<rect x="756" y="403" clip-path="url(#clipPath1)" fill="rgb(0,0,139)" width="10" stroke-dasharray="none" height="1" stroke="none"/>
<rect x="743" y="142" clip-path="url(#clipPath1)" fill="rgb(0,0,139)" width="10" stroke-dasharray="none" height="260" stroke="none"/>
<rect x="743" y="142" clip-path="url(#clipPath1)" fill="none" width="10" stroke-dasharray="none" height="260"/>
<rect x="731" y="403" clip-path="url(#clipPath1)" fill="rgb(0,0,139)" width="10" stroke-dasharray="none" height="1" stroke="none"/>
<rect x="718" y="142" clip-path="url(#clipPath1)" fill="rgb(0,0,139)" width="10" stroke-dasharray="none" height="260" stroke="none"/>
<rect x="718" y="142" clip-path="url(#clipPath1)" fill="none" width="10" stroke-dasharray="none" height="260"/>
<rect x="706" y="403" clip-path="url(#clipPath1)" fill="rgb(0,0,139)" width="10" stroke-dasharray="none" height="1" stroke="none"/>
<rect x="693" y="142" clip-path="url(#clipPath1)" fill="rgb(0,0,139)" width="10" stroke-dasharray="none" height="260" stroke="none"/>
<rect x="693" y="142" clip-path="url(#clipPath1)" fill="none" width="10" stroke-dasharray="none" height="260"/>
<rect x="680" y="403" clip-path="url(#clipPath1)" fill="rgb(0,0,139)" width="10" stroke-dasharray="none" height="1" stroke="none"/>
<rect x="668" y="142" clip-path="url(#clipPath1)" fill="rgb(0,0,139)" width="10" stroke-dasharray="none" height="260" stroke="none"/>
<rect x="668" y="142" clip-path="url(#clipPath1)" fill="none" width="10" stroke-dasharray="none" height="260"/>
<rect x="655" y="403" clip-path="url(#clipPath1)" fill="rgb(0,0,139)" width="10" stroke-dasharray="none" height="1" stroke="none"/>
<rect x="643" y="142" clip-path="url(#clipPath1)" fill="rgb(0,0,139)" width="10" stroke-dasharray="none" height="260" stroke="none"/>
<rect x="643" y="142" clip-path="url(#clipPath1)" fill="none" width="10" stroke-dasharray="none" height="260"/>
<rect x="630" y="403" clip-path="url(#clipPath1)" fill="rgb(0,0,139)" width="10" stroke-dasharray="none" height="1" stroke="none"/>
<rect x="618" y="142" clip-path="url(#clipPath1)" fill="rgb(0,0,139)" width="10" stroke-dasharray="none" height="260" stroke="none"/>
<rect x="618" y="142" clip-path="url(#clipPath1)" fill="none" width="10" stroke-dasharray="none" height="260"/>
<rect x="605" y="403" clip-path="url(#clipPath1)" fill="rgb(0,0,139)" width="10" stroke-dasharray="none" height="1" stroke="none"/>
<rect x="593" y="403" clip-path="url(#clipPath1)" fill="rgb(0,0,139)" width="10" stroke-dasharray="none" height="1" stroke="none"/>
<rect x="580" y="403" clip-path="url(#clipPath1)" fill="rgb(0,0,139)" width="10" stroke-dasharray="none" height="1" stroke="none"/>
<rect x="568" y="403" clip-path="url(#clipPath1)" fill="rgb(0,0,139)" width="10" stroke-dasharray="none" height="1" stroke="none"/>
<rect x="555" y="403" clip-path="url(#clipPath1)" fill="rgb(0,0,139)" width="10" stroke-dasharray="none" height="1" stroke="none"/>
<rect x="543" y="403" clip-path="url(#clipPath1)" fill="rgb(0,0,139)" width="10" stroke-dasharray="none" height="1" stroke="none"/>
<rect x="530" y="403" clip-path="url(#clipPath1)" fill="rgb(0,0,139)" width="10" stroke-dasharray="none" height="1" stroke="none"/>
<rect x="518" y="403" clip-path="url(#clipPath1)" fill="rgb(0,0,139)" width="10" stroke-dasharray="none" height="1" stroke="none"/>
<rect x="505" y="403" clip-path="url(#clipPath1)" fill="rgb(0,0,139)" width="10" stroke-dasharray="none" height="1" stroke="none"/>
<rect x="493" y="403" clip-path="url(#clipPath1)" fill="rgb(0,0,139)" width="10" stroke-dasharray="none" height="1" stroke="none"/>
<rect x="480" y="403" clip-path="url(#clipPath1)" fill="rgb(0,0,139)" width="10" stroke-dasharray="none" height="1" stroke="none"/>
<rect x="467" y="403" clip-path="url(#clipPath1)" fill="rgb(0,0,139)" width="10" stroke-dasharray="none" height="1" stroke="none"/>
<rect x="455" y="403" clip-path="url(#clipPath1)" fill="rgb(0,0,139)" width="10" stroke-dasharray="none" height="1" stroke="none"/>
<rect x="442" y="403" clip-path="url(#clipPath1)" fill="rgb(0,0,139)" width="10" stroke-dasharray="none" height="1" stroke="none"/>
<rect x="430" y="403" clip-path="url(#clipPath1)" fill="rgb(0,0,139)" width="10" stroke-dasharray="none" height="1" stroke="none"/>
<rect x="417" y="403" clip-path="url(#clipPath1)" fill="rgb(0,0,139)" width="10" stroke-dasharray="none" height="1" stroke="none"/>
<rect x="405" y="403" clip-path="url(#clipPath1)" fill="rgb(0,0,139)" width="10" stroke-dasharray="none" height="1" stroke="none"/>
<rect x="392" y="403" clip-path="url(#clipPath1)" fill="rgb(0,0,139)" width="10" stroke-dasharray="none" height="1" stroke="none"/>
<rect x="380" y="403" clip-path="url(#clipPath1)" fill="rgb(0,0,139)" width="10" stroke-dasharray="none" height="1" stroke="none"/>
<rect x="367" y="403" clip-path="url(#clipPath1)" fill="rgb(0,0,139)" width="10" stroke-dasharray="none" height="1" stroke="none"/>
<rect x="355" y="403" clip-path="url(#clipPath1)" fill="rgb(0,0,139)" width="10" stroke-dasharray="none" height="1" stroke="none"/>
<rect x="342" y="403" clip-path="url(#clipPath1)" fill="rgb(0,0,139)" width="10" stroke-dasharray="none" height="1" stroke="none"/>
<rect x="330" y="403" clip-path="url(#clipPath1)" fill="rgb(0,0,139)" width="10" stroke-dasharray="none" height="1" stroke="none"/>
<rect x="317" y="403" clip-path="url(#clipPath1)" fill="rgb(0,0,139)" width="10" stroke-dasharray="none" height="1" stroke="none"/>
<rect x="305" y="403" clip-path="url(#clipPath1)" fill="rgb(0,0,139)" width="10" stroke-dasharray="none" height="1" stroke="none"/>
<rect x="292" y="403" clip-path="url(#clipPath1)" fill="rgb(0,0,139)" width="10" stroke-dasharray="none" height="1" stroke="none"/>
<rect x="280" y="403" clip-path="url(#clipPath1)" fill="rgb(0,0,139)" width="10" stroke-dasharray="none" height="1" stroke="none"/>
<rect x="267" y="403" clip-path="url(#clipPath1)" fill="rgb(0,0,139)" width="10" stroke-dasharray="none" height="1" stroke="none"/>
<rect x="254" y="403" clip-path="url(#clipPath1)" fill="rgb(0,0,139)" width="10" stroke-dasharray="none" height="1" stroke="none"/>
<rect x="242" y="403" clip-path="url(#clipPath1)" fill="rgb(0,0,139)" width="10" stroke-dasharray="none" height="1" stroke="none"/>
<rect x="229" y="403" clip-path="url(#clipPath1)" fill="rgb(0,0,139)" width="10" stroke-dasharray="none" height="1" stroke="none"/>
<rect x="217" y="403" clip-path="url(#clipPath1)" fill="rgb(0,0,139)" width="10" stroke-dasharray="none" height="1" stroke="none"/>
<rect x="204" y="403" clip-path="url(#clipPath1)" fill="rgb(0,0,139)" width="10" stroke-dasharray="none" height="1" stroke="none"/>
<rect x="192" y="403" clip-path="url(#clipPath1)" fill="rgb(0,0,139)" width="10" stroke-dasharray="none" height="1" stroke="none"/>
<rect x="179" y="403" clip-path="url(#clipPath1)" fill="rgb(0,0,139)" width="10" stroke-dasharray="none" height="1" stroke="none"/>
<rect x="167" y="403" clip-path="url(#clipPath1)" fill="rgb(0,0,139)" width="10" stroke-dasharray="none" height="1" stroke="none"/>
<rect x="154" y="403" clip-path="url(#clipPath1)" fill="rgb(0,0,139)" width="10" stroke-dasharray="none" height="1" stroke="none"/>
<rect x="142" y="403" clip-path="url(#clipPath1)" fill="rgb(0,0,139)" width="10" stroke-dasharray="none" height="1" stroke="none"/>
<rect x="129" y="403" clip-path="url(#clipPath1)" fill="rgb(0,0,139)" width="10" stroke-dasharray="none" height="1" stroke="none"/>
<rect x="117" y="403" clip-path="url(#clipPath1)" fill="rgb(0,0,139)" width="10" stroke-dasharray="none" height="1" stroke="none"/>
<rect x="104" y="403" clip-path="url(#clipPath1)" fill="rgb(0,0,139)" width="10" stroke-dasharray="none" height="1" stroke="none"/>
<rect x="92" y="403" clip-path="url(#clipPath1)" fill="rgb(0,0,139)" width="10" stroke-dasharray="none" height="1" stroke="none"/>
<rect x="79" y="403" clip-path="url(#clipPath1)" fill="rgb(0,0,139)" width="10" stroke-dasharray="none" height="1" stroke="none"/>
<rect x="67" y="403" clip-path="url(#clipPath1)" fill="rgb(0,0,139)" width="10" stroke-dasharray="none" height="1" stroke="none"/>
<rect x="54" y="403" clip-path="url(#clipPath1)" fill="rgb(0,0,139)" width="10" stroke-dasharray="none" height="1" stroke="none"/>
<rect x="42" y="403" clip-path="url(#clipPath1)" fill="rgb(0,0,139)" width="10" stroke-dasharray="none" height="1" stroke="none"/>
<rect x="32" y="26" clip-path="url(#clipPath2)" fill="none" width="1120" stroke-dasharray="none" height="377" stroke="black"/>
<line clip-path="url(#clipPath2)" fill="none" x1="33" x2="1151" y1="403" y2="403" stroke-dasharray="none"/>
</g>
<g text-rendering="geometricPrecision" font-size="13" font-family="'Arial'" stroke-linecap="butt">
<text xml:space="preserve" x="516" y="12" clip-path="url(#clipPath2)" stroke="none">Število izgubljenih paketov</text>
<line clip-path="url(#clipPath2)" fill="none" x1="30" x2="30" y1="26" y2="403"/>
<line clip-path="url(#clipPath2)" fill="none" x1="1154" x2="1154" y1="26" y2="403"/>
<line clip-path="url(#clipPath2)" fill="none" x1="26" x2="30" y1="403" y2="403"/>
<line clip-path="url(#clipPath2)" fill="none" x1="1158" x2="1154" y1="403" y2="403"/>
<text font-size="11" x="20" y="407" clip-path="url(#clipPath2)" stroke="none" xml:space="preserve">0</text>
<text font-size="11" x="1161" y="407" clip-path="url(#clipPath2)" stroke="none" xml:space="preserve">0</text>
<line clip-path="url(#clipPath2)" fill="none" x1="28" x2="30" y1="374" y2="374"/>
<line clip-path="url(#clipPath2)" fill="none" x1="1156" x2="1154" y1="374" y2="374"/>
<line clip-path="url(#clipPath2)" fill="none" x1="26" x2="30" y1="346" y2="346"/>
<line clip-path="url(#clipPath2)" fill="none" x1="1158" x2="1154" y1="346" y2="346"/>
<text font-size="11" x="15" y="350" clip-path="url(#clipPath2)" stroke="none" xml:space="preserve">20</text>
<text font-size="11" x="1161" y="350" clip-path="url(#clipPath2)" stroke="none" xml:space="preserve">20</text>
<line clip-path="url(#clipPath2)" fill="none" x1="28" x2="30" y1="318" y2="318"/>
<line clip-path="url(#clipPath2)" fill="none" x1="1156" x2="1154" y1="318" y2="318"/>
<line clip-path="url(#clipPath2)" fill="none" x1="26" x2="30" y1="289" y2="289"/>
<line clip-path="url(#clipPath2)" fill="none" x1="1158" x2="1154" y1="289" y2="289"/>
<text font-size="11" x="15" y="293" clip-path="url(#clipPath2)" stroke="none" xml:space="preserve">40</text>
<text font-size="11" x="1161" y="293" clip-path="url(#clipPath2)" stroke="none" xml:space="preserve">40</text>
<line clip-path="url(#clipPath2)" fill="none" x1="28" x2="30" y1="261" y2="261"/>
<line clip-path="url(#clipPath2)" fill="none" x1="1156" x2="1154" y1="261" y2="261"/>
<line clip-path="url(#clipPath2)" fill="none" x1="26" x2="30" y1="233" y2="233"/>
<line clip-path="url(#clipPath2)" fill="none" x1="1158" x2="1154" y1="233" y2="233"/>
<text font-size="11" x="15" y="237" clip-path="url(#clipPath2)" stroke="none" xml:space="preserve">60</text>
<text font-size="11" x="1161" y="237" clip-path="url(#clipPath2)" stroke="none" xml:space="preserve">60</text>
<line clip-path="url(#clipPath2)" fill="none" x1="28" x2="30" y1="204" y2="204"/>
<line clip-path="url(#clipPath2)" fill="none" x1="1156" x2="1154" y1="204" y2="204"/>
<line clip-path="url(#clipPath2)" fill="none" x1="26" x2="30" y1="176" y2="176"/>
<line clip-path="url(#clipPath2)" fill="none" x1="1158" x2="1154" y1="176" y2="176"/>
<text font-size="11" x="15" y="180" clip-path="url(#clipPath2)" stroke="none" xml:space="preserve">80</text>
<text font-size="11" x="1161" y="180" clip-path="url(#clipPath2)" stroke="none" xml:space="preserve">80</text>
<line clip-path="url(#clipPath2)" fill="none" x1="28" x2="30" y1="148" y2="148"/>
<line clip-path="url(#clipPath2)" fill="none" x1="1156" x2="1154" y1="148" y2="148"/>
<line clip-path="url(#clipPath2)" fill="none" x1="26" x2="30" y1="119" y2="119"/>
<line clip-path="url(#clipPath2)" fill="none" x1="1158" x2="1154" y1="119" y2="119"/>
<text font-size="11" x="10" y="123" clip-path="url(#clipPath2)" stroke="none" xml:space="preserve">100</text>
<text font-size="11" x="1161" y="123" clip-path="url(#clipPath2)" stroke="none" xml:space="preserve">100</text>
<line clip-path="url(#clipPath2)" fill="none" x1="28" x2="30" y1="91" y2="91"/>
<line clip-path="url(#clipPath2)" fill="none" x1="1156" x2="1154" y1="91" y2="91"/>
<line clip-path="url(#clipPath2)" fill="none" x1="26" x2="30" y1="63" y2="63"/>
<line clip-path="url(#clipPath2)" fill="none" x1="1158" x2="1154" y1="63" y2="63"/>
<text font-size="11" x="10" y="67" clip-path="url(#clipPath2)" stroke="none" xml:space="preserve">120</text>
<text font-size="11" x="1161" y="67" clip-path="url(#clipPath2)" stroke="none" xml:space="preserve">120</text>
<line clip-path="url(#clipPath2)" fill="none" x1="28" x2="30" y1="34" y2="34"/>
<line clip-path="url(#clipPath2)" fill="none" x1="1156" x2="1154" y1="34" y2="34"/>
<line clip-path="url(#clipPath3)" fill="none" x1="42" x2="52" y1="407" y2="407"/>
<line clip-path="url(#clipPath3)" fill="none" x1="54" x2="64" y1="407" y2="407"/>
<line clip-path="url(#clipPath3)" fill="none" x1="67" x2="77" y1="407" y2="407"/>
<line clip-path="url(#clipPath3)" fill="none" x1="79" x2="89" y1="407" y2="407"/>
<line clip-path="url(#clipPath3)" fill="none" x1="92" x2="102" y1="407" y2="407"/>
<line clip-path="url(#clipPath3)" fill="none" x1="104" x2="114" y1="407" y2="407"/>
<line clip-path="url(#clipPath3)" fill="none" x1="117" x2="127" y1="407" y2="407"/>
<line clip-path="url(#clipPath3)" fill="none" x1="129" x2="139" y1="407" y2="407"/>
<line clip-path="url(#clipPath3)" fill="none" x1="142" x2="152" y1="407" y2="407"/>
<line clip-path="url(#clipPath3)" fill="none" x1="154" x2="164" y1="407" y2="407"/>
<line clip-path="url(#clipPath3)" fill="none" x1="167" x2="177" y1="407" y2="407"/>
<line clip-path="url(#clipPath3)" fill="none" x1="179" x2="189" y1="407" y2="407"/>
<line clip-path="url(#clipPath3)" fill="none" x1="192" x2="202" y1="407" y2="407"/>
<line clip-path="url(#clipPath3)" fill="none" x1="204" x2="214" y1="407" y2="407"/>
<line clip-path="url(#clipPath3)" fill="none" x1="217" x2="227" y1="407" y2="407"/>
<line clip-path="url(#clipPath3)" fill="none" x1="229" x2="239" y1="407" y2="407"/>
<line clip-path="url(#clipPath3)" fill="none" x1="242" x2="252" y1="407" y2="407"/>
<line clip-path="url(#clipPath3)" fill="none" x1="254" x2="264" y1="407" y2="407"/>
<line clip-path="url(#clipPath3)" fill="none" x1="267" x2="277" y1="407" y2="407"/>
<line clip-path="url(#clipPath3)" fill="none" x1="280" x2="290" y1="407" y2="407"/>
<line clip-path="url(#clipPath3)" fill="none" x1="292" x2="302" y1="407" y2="407"/>
<line clip-path="url(#clipPath3)" fill="none" x1="305" x2="315" y1="407" y2="407"/>
<line clip-path="url(#clipPath3)" fill="none" x1="317" x2="327" y1="407" y2="407"/>
<line clip-path="url(#clipPath3)" fill="none" x1="330" x2="340" y1="407" y2="407"/>
<line clip-path="url(#clipPath3)" fill="none" x1="342" x2="352" y1="407" y2="407"/>
<line clip-path="url(#clipPath3)" fill="none" x1="355" x2="365" y1="407" y2="407"/>
<line clip-path="url(#clipPath3)" fill="none" x1="367" x2="377" y1="407" y2="407"/>
<line clip-path="url(#clipPath3)" fill="none" x1="380" x2="390" y1="407" y2="407"/>
<line clip-path="url(#clipPath3)" fill="none" x1="392" x2="402" y1="407" y2="407"/>
<line clip-path="url(#clipPath3)" fill="none" x1="405" x2="415" y1="407" y2="407"/>
<line clip-path="url(#clipPath3)" fill="none" x1="417" x2="427" y1="407" y2="407"/>
<line clip-path="url(#clipPath3)" fill="none" x1="430" x2="440" y1="407" y2="407"/>
<line clip-path="url(#clipPath3)" fill="none" x1="442" x2="452" y1="407" y2="407"/>
<line clip-path="url(#clipPath3)" fill="none" x1="455" x2="465" y1="407" y2="407"/>
<line clip-path="url(#clipPath3)" fill="none" x1="467" x2="477" y1="407" y2="407"/>
<line clip-path="url(#clipPath3)" fill="none" x1="480" x2="490" y1="407" y2="407"/>
<line clip-path="url(#clipPath3)" fill="none" x1="493" x2="503" y1="407" y2="407"/>
<line clip-path="url(#clipPath3)" fill="none" x1="505" x2="515" y1="407" y2="407"/>
<line clip-path="url(#clipPath3)" fill="none" x1="518" x2="528" y1="407" y2="407"/>
<line clip-path="url(#clipPath3)" fill="none" x1="530" x2="540" y1="407" y2="407"/>
<line clip-path="url(#clipPath3)" fill="none" x1="543" x2="553" y1="407" y2="407"/>
<line clip-path="url(#clipPath3)" fill="none" x1="555" x2="565" y1="407" y2="407"/>
<line clip-path="url(#clipPath3)" fill="none" x1="568" x2="578" y1="407" y2="407"/>
<line clip-path="url(#clipPath3)" fill="none" x1="580" x2="590" y1="407" y2="407"/>
<line clip-path="url(#clipPath3)" fill="none" x1="593" x2="603" y1="407" y2="407"/>
<line clip-path="url(#clipPath3)" fill="none" x1="605" x2="615" y1="407" y2="407"/>
<line clip-path="url(#clipPath3)" fill="none" x1="618" x2="628" y1="407" y2="407"/>
<line clip-path="url(#clipPath3)" fill="none" x1="630" x2="640" y1="407" y2="407"/>
<line clip-path="url(#clipPath3)" fill="none" x1="643" x2="653" y1="407" y2="407"/>
<line clip-path="url(#clipPath3)" fill="none" x1="655" x2="665" y1="407" y2="407"/>
<line clip-path="url(#clipPath3)" fill="none" x1="668" x2="678" y1="407" y2="407"/>
<line clip-path="url(#clipPath3)" fill="none" x1="680" x2="690" y1="407" y2="407"/>
<line clip-path="url(#clipPath3)" fill="none" x1="693" x2="703" y1="407" y2="407"/>
<line clip-path="url(#clipPath3)" fill="none" x1="706" x2="716" y1="407" y2="407"/>
<line clip-path="url(#clipPath3)" fill="none" x1="718" x2="728" y1="407" y2="407"/>
<line clip-path="url(#clipPath3)" fill="none" x1="731" x2="741" y1="407" y2="407"/>
<line clip-path="url(#clipPath3)" fill="none" x1="743" x2="753" y1="407" y2="407"/>
<line clip-path="url(#clipPath3)" fill="none" x1="756" x2="766" y1="407" y2="407"/>
<line clip-path="url(#clipPath3)" fill="none" x1="768" x2="778" y1="407" y2="407"/>
<line clip-path="url(#clipPath3)" fill="none" x1="781" x2="791" y1="407" y2="407"/>
<line clip-path="url(#clipPath3)" fill="none" x1="793" x2="803" y1="407" y2="407"/>
<line clip-path="url(#clipPath3)" fill="none" x1="806" x2="816" y1="407" y2="407"/>
<line clip-path="url(#clipPath3)" fill="none" x1="818" x2="828" y1="407" y2="407"/>
<line clip-path="url(#clipPath3)" fill="none" x1="831" x2="841" y1="407" y2="407"/>
<line clip-path="url(#clipPath3)" fill="none" x1="843" x2="853" y1="407" y2="407"/>
<line clip-path="url(#clipPath3)" fill="none" x1="856" x2="866" y1="407" y2="407"/>
<line clip-path="url(#clipPath3)" fill="none" x1="868" x2="878" y1="407" y2="407"/>
<line clip-path="url(#clipPath3)" fill="none" x1="881" x2="891" y1="407" y2="407"/>
<line clip-path="url(#clipPath3)" fill="none" x1="893" x2="903" y1="407" y2="407"/>
<line clip-path="url(#clipPath3)" fill="none" x1="906" x2="916" y1="407" y2="407"/>
<line clip-path="url(#clipPath3)" fill="none" x1="918" x2="928" y1="407" y2="407"/>
<line clip-path="url(#clipPath3)" fill="none" x1="931" x2="941" y1="407" y2="407"/>
<line clip-path="url(#clipPath3)" fill="none" x1="944" x2="954" y1="407" y2="407"/>
<line clip-path="url(#clipPath3)" fill="none" x1="956" x2="966" y1="407" y2="407"/>
<line clip-path="url(#clipPath3)" fill="none" x1="969" x2="979" y1="407" y2="407"/>
<line clip-path="url(#clipPath3)" fill="none" x1="981" x2="991" y1="407" y2="407"/>
<line clip-path="url(#clipPath3)" fill="none" x1="994" x2="1004" y1="407" y2="407"/>
<line clip-path="url(#clipPath3)" fill="none" x1="1006" x2="1016" y1="407" y2="407"/>
<line clip-path="url(#clipPath3)" fill="none" x1="1019" x2="1029" y1="407" y2="407"/>
<line clip-path="url(#clipPath3)" fill="none" x1="1031" x2="1041" y1="407" y2="407"/>
<line clip-path="url(#clipPath3)" fill="none" x1="1044" x2="1054" y1="407" y2="407"/>
<line clip-path="url(#clipPath3)" fill="none" x1="1056" x2="1066" y1="407" y2="407"/>
<line clip-path="url(#clipPath3)" fill="none" x1="1069" x2="1079" y1="407" y2="407"/>
<line clip-path="url(#clipPath3)" fill="none" x1="1081" x2="1091" y1="407" y2="407"/>
<line clip-path="url(#clipPath3)" fill="none" x1="1094" x2="1104" y1="407" y2="407"/>
<line clip-path="url(#clipPath3)" fill="none" x1="1106" x2="1116" y1="407" y2="407"/>
<line clip-path="url(#clipPath3)" fill="none" x1="1119" x2="1129" y1="407" y2="407"/>
<line clip-path="url(#clipPath3)" fill="none" x1="1131" x2="1141" y1="407" y2="407"/>
<text font-size="11" x="42" y="429" clip-path="url(#clipPath3)" stroke="none" xml:space="preserve">Bus.standardHost1.eth[0].queue.dataQueue</text>
<text font-size="11" x="54" y="419" clip-path="url(#clipPath3)" stroke="none" xml:space="preserve">Bus.standardHost1.eth[0].queue.pauseQueue</text>
<text font-size="11" x="67" y="429" clip-path="url(#clipPath3)" stroke="none" xml:space="preserve">Bus.standardHost2.eth[0].queue.dataQueue</text>
<text font-size="11" x="79" y="419" clip-path="url(#clipPath3)" stroke="none" xml:space="preserve">Bus.standardHost2.eth[0].queue.pauseQueue</text>
<text font-size="11" x="92" y="429" clip-path="url(#clipPath3)" stroke="none" xml:space="preserve">Bus.standardHost3.eth[0].queue.dataQueue</text>
<text font-size="11" x="104" y="419" clip-path="url(#clipPath3)" stroke="none" xml:space="preserve">Bus.standardHost3.eth[0].queue.pauseQueue</text>
<text font-size="11" x="117" y="429" clip-path="url(#clipPath3)" stroke="none" xml:space="preserve">Bus.standardHost4.eth[0].queue.dataQueue</text>
<text font-size="11" x="129" y="419" clip-path="url(#clipPath3)" stroke="none" xml:space="preserve">Bus.standardHost4.eth[0].queue.pauseQueue</text>
<text font-size="11" x="142" y="429" clip-path="url(#clipPath3)" stroke="none" xml:space="preserve">Bus.standardHost5.eth[0].queue.dataQueue</text>
<text font-size="11" x="154" y="419" clip-path="url(#clipPath3)" stroke="none" xml:space="preserve">Bus.standardHost5.eth[0].queue.pauseQueue</text>
<text font-size="11" x="167" y="429" clip-path="url(#clipPath3)" stroke="none" xml:space="preserve">Bus.standardHost6.eth[0].queue.dataQueue</text>
<text font-size="11" x="179" y="419" clip-path="url(#clipPath3)" stroke="none" xml:space="preserve">Bus.standardHost6.eth[0].queue.pauseQueue</text>
<text font-size="11" x="192" y="429" clip-path="url(#clipPath3)" stroke="none" xml:space="preserve">Bus.standardHost7.eth[0].queue.dataQueue</text>
<text font-size="11" x="204" y="419" clip-path="url(#clipPath3)" stroke="none" xml:space="preserve">Bus.standardHost7.eth[0].queue.pauseQueue</text>
<text font-size="11" x="217" y="429" clip-path="url(#clipPath3)" stroke="none" xml:space="preserve">Bus.standardHost8.eth[0].queue.dataQueue</text>
<text font-size="11" x="229" y="419" clip-path="url(#clipPath3)" stroke="none" xml:space="preserve">Bus.standardHost8.eth[0].queue.pauseQueue</text>
<text font-size="11" x="242" y="429" clip-path="url(#clipPath3)" stroke="none" xml:space="preserve">Bus.standardHost9.eth[0].queue.dataQueue</text>
<text font-size="11" x="254" y="419" clip-path="url(#clipPath3)" stroke="none" xml:space="preserve">Bus.standardHost9.eth[0].queue.pauseQueue</text>
<text font-size="11" x="267" y="429" clip-path="url(#clipPath3)" stroke="none" xml:space="preserve">Bus.standardHost10.eth[0].queue.dataQueue</text>
<text font-size="11" x="280" y="419" clip-path="url(#clipPath3)" stroke="none" xml:space="preserve">Bus.standardHost10.eth[0].queue.pauseQueue</text>
<text font-size="11" x="292" y="429" clip-path="url(#clipPath3)" stroke="none" xml:space="preserve">Bus.standardHost11.eth[0].queue.dataQueue</text>
<text font-size="11" x="305" y="419" clip-path="url(#clipPath3)" stroke="none" xml:space="preserve">Bus.standardHost11.eth[0].queue.pauseQueue</text>
<text font-size="11" x="317" y="429" clip-path="url(#clipPath3)" stroke="none" xml:space="preserve">Bus.standardHost12.eth[0].queue.dataQueue</text>
<text font-size="11" x="330" y="419" clip-path="url(#clipPath3)" stroke="none" xml:space="preserve">Bus.standardHost12.eth[0].queue.pauseQueue</text>
<text font-size="11" x="342" y="429" clip-path="url(#clipPath3)" stroke="none" xml:space="preserve">Bus.standardHost13.eth[0].queue.dataQueue</text>
<text font-size="11" x="355" y="419" clip-path="url(#clipPath3)" stroke="none" xml:space="preserve">Bus.standardHost13.eth[0].queue.pauseQueue</text>
<text font-size="11" x="367" y="429" clip-path="url(#clipPath3)" stroke="none" xml:space="preserve">Bus.standardHost14.eth[0].queue.dataQueue</text>
<text font-size="11" x="380" y="419" clip-path="url(#clipPath3)" stroke="none" xml:space="preserve">Bus.standardHost14.eth[0].queue.pauseQueue</text>
<text font-size="11" x="392" y="429" clip-path="url(#clipPath3)" stroke="none" xml:space="preserve">Bus.standardHost15.eth[0].queue.dataQueue</text>
<text font-size="11" x="405" y="419" clip-path="url(#clipPath3)" stroke="none" xml:space="preserve">Bus.standardHost15.eth[0].queue.pauseQueue</text>
<text font-size="11" x="417" y="429" clip-path="url(#clipPath3)" stroke="none" xml:space="preserve">Bus.standardHost16.eth[0].queue.dataQueue</text>
<text font-size="11" x="430" y="419" clip-path="url(#clipPath3)" stroke="none" xml:space="preserve">Bus.standardHost16.eth[0].queue.pauseQueue</text>
<text font-size="11" x="442" y="429" clip-path="url(#clipPath3)" stroke="none" xml:space="preserve">Bus.standardHost17.eth[0].queue.dataQueue</text>
<text font-size="11" x="455" y="419" clip-path="url(#clipPath3)" stroke="none" xml:space="preserve">Bus.standardHost17.eth[0].queue.pauseQueue</text>
<text font-size="11" x="467" y="429" clip-path="url(#clipPath3)" stroke="none" xml:space="preserve">Bus.standardHost18.eth[0].queue.dataQueue</text>
<text font-size="11" x="480" y="419" clip-path="url(#clipPath3)" stroke="none" xml:space="preserve">Bus.standardHost18.eth[0].queue.pauseQueue</text>
<text font-size="11" x="493" y="429" clip-path="url(#clipPath3)" stroke="none" xml:space="preserve">Bus.standardHost19.eth[0].queue.dataQueue</text>
<text font-size="11" x="505" y="419" clip-path="url(#clipPath3)" stroke="none" xml:space="preserve">Bus.standardHost19.eth[0].queue.pauseQueue</text>
<text font-size="11" x="518" y="429" clip-path="url(#clipPath3)" stroke="none" xml:space="preserve">Bus.standardHost20.eth[0].queue.dataQueue</text>
<text font-size="11" x="530" y="419" clip-path="url(#clipPath3)" stroke="none" xml:space="preserve">Bus.standardHost20.eth[0].queue.pauseQueue</text>
<text font-size="11" x="543" y="429" clip-path="url(#clipPath3)" stroke="none" xml:space="preserve">Bus.standardHost21.eth[0].queue.dataQueue</text>
<text font-size="11" x="555" y="419" clip-path="url(#clipPath3)" stroke="none" xml:space="preserve">Bus.standardHost21.eth[0].queue.pauseQueue</text>
<text font-size="11" x="568" y="429" clip-path="url(#clipPath3)" stroke="none" xml:space="preserve">Bus.standardHost22.eth[0].queue.dataQueue</text>
<text font-size="11" x="580" y="419" clip-path="url(#clipPath3)" stroke="none" xml:space="preserve">Bus.standardHost22.eth[0].queue.pauseQueue</text>
<text font-size="11" x="593" y="429" clip-path="url(#clipPath3)" stroke="none" xml:space="preserve">Bus.standardHost23.eth[0].queue.dataQueue</text>
<text font-size="11" x="605" y="419" clip-path="url(#clipPath3)" stroke="none" xml:space="preserve">Bus.standardHost23.eth[0].queue.pauseQueue</text>
<text font-size="11" x="618" y="429" clip-path="url(#clipPath3)" stroke="none" xml:space="preserve">Bus.standardHost24.eth[0].queue.dataQueue</text>
<text font-size="11" x="630" y="419" clip-path="url(#clipPath3)" stroke="none" xml:space="preserve">Bus.standardHost24.eth[0].queue.pauseQueue</text>
<text font-size="11" x="643" y="429" clip-path="url(#clipPath3)" stroke="none" xml:space="preserve">Bus.standardHost25.eth[0].queue.dataQueue</text>
<text font-size="11" x="655" y="419" clip-path="url(#clipPath3)" stroke="none" xml:space="preserve">Bus.standardHost25.eth[0].queue.pauseQueue</text>
<text font-size="11" x="668" y="429" clip-path="url(#clipPath3)" stroke="none" xml:space="preserve">Bus.standardHost26.eth[0].queue.dataQueue</text>
<text font-size="11" x="680" y="419" clip-path="url(#clipPath3)" stroke="none" xml:space="preserve">Bus.standardHost26.eth[0].queue.pauseQueue</text>
<text font-size="11" x="693" y="429" clip-path="url(#clipPath3)" stroke="none" xml:space="preserve">Bus.standardHost27.eth[0].queue.dataQueue</text>
<text font-size="11" x="706" y="419" clip-path="url(#clipPath3)" stroke="none" xml:space="preserve">Bus.standardHost27.eth[0].queue.pauseQueue</text>
<text font-size="11" x="718" y="429" clip-path="url(#clipPath3)" stroke="none" xml:space="preserve">Bus.standardHost28.eth[0].queue.dataQueue</text>
<text font-size="11" x="731" y="419" clip-path="url(#clipPath3)" stroke="none" xml:space="preserve">Bus.standardHost28.eth[0].queue.pauseQueue</text>
<text font-size="11" x="743" y="429" clip-path="url(#clipPath3)" stroke="none" xml:space="preserve">Bus.standardHost29.eth[0].queue.dataQueue</text>
<text font-size="11" x="756" y="419" clip-path="url(#clipPath3)" stroke="none" xml:space="preserve">Bus.standardHost29.eth[0].queue.pauseQueue</text>
<text font-size="11" x="768" y="429" clip-path="url(#clipPath3)" stroke="none" xml:space="preserve">Bus.standardHost30.eth[0].queue.dataQueue</text>
<text font-size="11" x="781" y="419" clip-path="url(#clipPath3)" stroke="none" xml:space="preserve">Bus.standardHost30.eth[0].queue.pauseQueue</text>
<text font-size="11" x="793" y="429" clip-path="url(#clipPath3)" stroke="none" xml:space="preserve">Bus.standardHost31.eth[0].queue.dataQueue</text>
<text font-size="11" x="806" y="419" clip-path="url(#clipPath3)" stroke="none" xml:space="preserve">Bus.standardHost31.eth[0].queue.pauseQueue</text>
<text font-size="11" x="818" y="429" clip-path="url(#clipPath3)" stroke="none" xml:space="preserve">Bus.standardHost32.eth[0].queue.dataQueue</text>
<text font-size="11" x="831" y="419" clip-path="url(#clipPath3)" stroke="none" xml:space="preserve">Bus.standardHost32.eth[0].queue.pauseQueue</text>
<text font-size="11" x="843" y="429" clip-path="url(#clipPath3)" stroke="none" xml:space="preserve">Bus.standardHost33.eth[0].queue.dataQueue</text>
<text font-size="11" x="856" y="419" clip-path="url(#clipPath3)" stroke="none" xml:space="preserve">Bus.standardHost33.eth[0].queue.pauseQueue</text>
<text font-size="11" x="868" y="429" clip-path="url(#clipPath3)" stroke="none" xml:space="preserve">Bus.standardHost34.eth[0].queue.dataQueue</text>
<text font-size="11" x="881" y="419" clip-path="url(#clipPath3)" stroke="none" xml:space="preserve">Bus.standardHost34.eth[0].queue.pauseQueue</text>
<text font-size="11" x="893" y="429" clip-path="url(#clipPath3)" stroke="none" xml:space="preserve">Bus.standardHost35.eth[0].queue.dataQueue</text>
<text font-size="11" x="906" y="419" clip-path="url(#clipPath3)" stroke="none" xml:space="preserve">Bus.standardHost35.eth[0].queue.pauseQueue</text>
<text font-size="11" x="918" y="429" clip-path="url(#clipPath3)" stroke="none" xml:space="preserve">Bus.standardHost36.eth[0].queue.dataQueue</text>
<text font-size="11" x="931" y="419" clip-path="url(#clipPath3)" stroke="none" xml:space="preserve">Bus.standardHost36.eth[0].queue.pauseQueue</text>
<text font-size="11" x="944" y="429" clip-path="url(#clipPath3)" stroke="none" xml:space="preserve">Bus.standardHost37.eth[0].queue.dataQueue</text>
<text font-size="11" x="956" y="419" clip-path="url(#clipPath3)" stroke="none" xml:space="preserve">Bus.standardHost37.eth[0].queue.pauseQueue</text>
<text font-size="11" x="969" y="429" clip-path="url(#clipPath3)" stroke="none" xml:space="preserve">Bus.standardHost38.eth[0].queue.dataQueue</text>
<text font-size="11" x="981" y="419" clip-path="url(#clipPath3)" stroke="none" xml:space="preserve">Bus.standardHost38.eth[0].queue.pauseQueue</text>
<text font-size="11" x="994" y="429" clip-path="url(#clipPath3)" stroke="none" xml:space="preserve">Bus.standardHost39.eth[0].queue.dataQueue</text>
<text font-size="11" x="1006" y="419" clip-path="url(#clipPath3)" stroke="none" xml:space="preserve">Bus.standardHost39.eth[0].queue.pauseQueue</text>
<text font-size="11" x="1019" y="429" clip-path="url(#clipPath3)" stroke="none" xml:space="preserve">Bus.standardHost40.eth[0].queue.dataQueue</text>
<text font-size="11" x="1031" y="419" clip-path="url(#clipPath3)" stroke="none" xml:space="preserve">Bus.standardHost40.eth[0].queue.pauseQueue</text>
<text font-size="11" x="1044" y="429" clip-path="url(#clipPath3)" stroke="none" xml:space="preserve">Bus.standardHost41.eth[0].queue.dataQueue</text>
<text font-size="11" x="1056" y="419" clip-path="url(#clipPath3)" stroke="none" xml:space="preserve">Bus.standardHost41.eth[0].queue.pauseQueue</text>
<text font-size="11" x="1069" y="429" clip-path="url(#clipPath3)" stroke="none" xml:space="preserve">Bus.standardHost42.eth[0].queue.dataQueue</text>
<text font-size="11" x="1081" y="419" clip-path="url(#clipPath3)" stroke="none" xml:space="preserve">Bus.standardHost42.eth[0].queue.pauseQueue</text>
<text font-size="11" x="1094" y="429" clip-path="url(#clipPath3)" stroke="none" xml:space="preserve">Bus.standardHost43.eth[0].queue.dataQueue</text>
<text font-size="11" x="1106" y="419" clip-path="url(#clipPath3)" stroke="none" xml:space="preserve">Bus.standardHost43.eth[0].queue.pauseQueue</text>
<text font-size="11" x="1119" y="429" clip-path="url(#clipPath3)" stroke="none" xml:space="preserve">Bus.standardHost44.eth[0].queue.dataQueue</text>
<text font-size="11" x="1131" y="419" clip-path="url(#clipPath3)" stroke="none" xml:space="preserve">Bus.standardHost44.eth[0].queue.pauseQueue</text>
</g>
</g>
</svg>
