<?xml version="1.0" encoding="UTF-8"?><svg xmlns="http://www.w3.org/2000/svg" xmlns:xlink="http://www.w3.org/1999/xlink" stroke-dasharray="none" shape-rendering="auto" font-family="'Dialog'" width="1265" text-rendering="auto" fill-opacity="1" contentScriptType="text/ecmascript" color-interpolation="auto" color-rendering="auto" preserveAspectRatio="xMidYMid meet" font-size="12" fill="black" stroke="black" image-rendering="auto" stroke-miterlimit="10" zoomAndPan="magnify" version="1.0" stroke-linecap="square" stroke-linejoin="miter" contentStyleType="text/css" font-style="normal" height="563" stroke-width="1" stroke-dashoffset="0" font-weight="normal" stroke-opacity="1">
<!--Generated by the Batik Graphics2D SVG Generator-->
<defs id="genericDefs"/>
<g>
<defs id="defs1">
<clipPath clipPathUnits="userSpaceOnUse" id="clipPath1">
<path d="M28 24 L1237 24 L1237 444 L28 444 L28 24 Z"/>
</clipPath>
<clipPath clipPathUnits="userSpaceOnUse" id="clipPath2">
<path d="M-1 -1 L1266 -1 L1266 564 L-1 564 L-1 -1 Z"/>
</clipPath>
<clipPath clipPathUnits="userSpaceOnUse" id="clipPath3">
<path d="M28 442 L1237 442 L1237 564 L28 564 L28 442 Z"/>
</clipPath>
</defs>
<g fill="white" text-rendering="geometricPrecision" font-family="'Ubuntu'" stroke-linejoin="round" stroke="white" stroke-width="0" stroke-miterlimit="0">
<rect x="29" y="25" clip-path="url(#clipPath1)" width="1207" height="418" stroke="none"/>
</g>
<g stroke-linecap="butt" fill="rgb(204,204,204)" text-rendering="geometricPrecision" font-family="'Ubuntu'" stroke-dasharray="3,3" stroke="rgb(204,204,204)">
<line clip-path="url(#clipPath1)" fill="none" x1="29" x2="1236" y1="443" y2="443"/>
<line clip-path="url(#clipPath1)" fill="none" x1="29" x2="1236" y1="422" y2="422"/>
<line clip-path="url(#clipPath1)" fill="none" x1="29" x2="1236" y1="402" y2="402"/>
<line clip-path="url(#clipPath1)" fill="none" x1="29" x2="1236" y1="381" y2="381"/>
<line clip-path="url(#clipPath1)" fill="none" x1="29" x2="1236" y1="361" y2="361"/>
<line clip-path="url(#clipPath1)" fill="none" x1="29" x2="1236" y1="340" y2="340"/>
<line clip-path="url(#clipPath1)" fill="none" x1="29" x2="1236" y1="320" y2="320"/>
<line clip-path="url(#clipPath1)" fill="none" x1="29" x2="1236" y1="300" y2="300"/>
<line clip-path="url(#clipPath1)" fill="none" x1="29" x2="1236" y1="279" y2="279"/>
<line clip-path="url(#clipPath1)" fill="none" x1="29" x2="1236" y1="259" y2="259"/>
<line clip-path="url(#clipPath1)" fill="none" x1="29" x2="1236" y1="238" y2="238"/>
<line clip-path="url(#clipPath1)" fill="none" x1="29" x2="1236" y1="218" y2="218"/>
<line clip-path="url(#clipPath1)" fill="none" x1="29" x2="1236" y1="197" y2="197"/>
<line clip-path="url(#clipPath1)" fill="none" x1="29" x2="1236" y1="177" y2="177"/>
<line clip-path="url(#clipPath1)" fill="none" x1="29" x2="1236" y1="157" y2="157"/>
<line clip-path="url(#clipPath1)" fill="none" x1="29" x2="1236" y1="136" y2="136"/>
<line clip-path="url(#clipPath1)" fill="none" x1="29" x2="1236" y1="116" y2="116"/>
<line clip-path="url(#clipPath1)" fill="none" x1="29" x2="1236" y1="95" y2="95"/>
<line clip-path="url(#clipPath1)" fill="none" x1="29" x2="1236" y1="75" y2="75"/>
<line clip-path="url(#clipPath1)" fill="none" x1="29" x2="1236" y1="54" y2="54"/>
<line clip-path="url(#clipPath1)" fill="none" x1="29" x2="1236" y1="34" y2="34"/>
<rect x="1193" y="442" clip-path="url(#clipPath1)" fill="rgb(0,0,139)" width="21" height="1" stroke="none"/>
<rect x="1166" y="442" clip-path="url(#clipPath1)" fill="rgb(0,0,139)" width="21" height="1" stroke="none"/>
<rect x="1140" y="442" clip-path="url(#clipPath1)" fill="rgb(0,0,139)" width="21" height="1" stroke="none"/>
<rect x="1113" y="442" clip-path="url(#clipPath1)" fill="rgb(0,0,139)" width="21" height="1" stroke="none"/>
<rect x="1087" y="442" clip-path="url(#clipPath1)" fill="rgb(0,0,139)" width="21" height="1" stroke="none"/>
<rect x="1060" y="442" clip-path="url(#clipPath1)" fill="rgb(0,0,139)" width="21" height="1" stroke="none"/>
<rect x="1033" y="442" clip-path="url(#clipPath1)" fill="rgb(0,0,139)" width="21" height="1" stroke="none"/>
<rect x="1007" y="442" clip-path="url(#clipPath1)" fill="rgb(0,0,139)" width="21" height="1" stroke="none"/>
<rect x="980" y="442" clip-path="url(#clipPath1)" fill="rgb(0,0,139)" width="21" height="1" stroke="none"/>
<rect x="954" y="442" clip-path="url(#clipPath1)" fill="rgb(0,0,139)" width="21" height="1" stroke="none"/>
<rect x="927" y="442" clip-path="url(#clipPath1)" fill="rgb(0,0,139)" width="21" height="1" stroke="none"/>
<rect x="901" y="442" clip-path="url(#clipPath1)" fill="rgb(0,0,139)" width="21" height="1" stroke="none"/>
<rect x="874" y="442" clip-path="url(#clipPath1)" fill="rgb(0,0,139)" width="21" height="1" stroke="none"/>
<rect x="847" y="442" clip-path="url(#clipPath1)" fill="rgb(0,0,139)" width="21" height="1" stroke="none"/>
<rect x="821" y="442" clip-path="url(#clipPath1)" fill="rgb(0,0,139)" width="21" height="1" stroke="none"/>
<rect x="794" y="442" clip-path="url(#clipPath1)" fill="rgb(0,0,139)" width="21" height="1" stroke="none"/>
<rect x="768" y="442" clip-path="url(#clipPath1)" fill="rgb(0,0,139)" width="21" height="1" stroke="none"/>
<rect x="741" y="442" clip-path="url(#clipPath1)" fill="rgb(0,0,139)" width="21" height="1" stroke="none"/>
<rect x="714" y="442" clip-path="url(#clipPath1)" fill="rgb(0,0,139)" width="21" height="1" stroke="none"/>
<rect x="688" y="442" clip-path="url(#clipPath1)" fill="rgb(0,0,139)" width="21" height="1" stroke="none"/>
<rect x="661" y="442" clip-path="url(#clipPath1)" fill="rgb(0,0,139)" width="21" height="1" stroke="none"/>
<rect x="635" y="107" clip-path="url(#clipPath1)" fill="rgb(0,0,139)" width="21" height="335" stroke="none"/>
<rect x="635" y="107" clip-path="url(#clipPath1)" fill="none" width="21" stroke-dasharray="none" height="335"/>
<rect x="608" y="63" clip-path="url(#clipPath1)" fill="rgb(0,0,139)" width="21" stroke-dasharray="none" height="380" stroke="none"/>
<rect x="608" y="63" clip-path="url(#clipPath1)" fill="none" width="21" stroke-dasharray="none" height="380"/>
<rect x="581" y="107" clip-path="url(#clipPath1)" fill="rgb(0,0,139)" width="21" stroke-dasharray="none" height="335" stroke="none"/>
<rect x="581" y="107" clip-path="url(#clipPath1)" fill="none" width="21" stroke-dasharray="none" height="335"/>
<rect x="555" y="63" clip-path="url(#clipPath1)" fill="rgb(0,0,139)" width="21" stroke-dasharray="none" height="379" stroke="none"/>
<rect x="555" y="63" clip-path="url(#clipPath1)" fill="none" width="21" stroke-dasharray="none" height="379"/>
<rect x="528" y="422" clip-path="url(#clipPath1)" fill="rgb(0,0,139)" width="21" stroke-dasharray="none" height="20" stroke="none"/>
<rect x="528" y="422" clip-path="url(#clipPath1)" fill="none" width="21" stroke-dasharray="none" height="20"/>
<rect x="502" y="422" clip-path="url(#clipPath1)" fill="rgb(0,0,139)" width="21" stroke-dasharray="none" height="20" stroke="none"/>
<rect x="502" y="422" clip-path="url(#clipPath1)" fill="none" width="21" stroke-dasharray="none" height="20"/>
<rect x="475" y="422" clip-path="url(#clipPath1)" fill="rgb(0,0,139)" width="21" stroke-dasharray="none" height="20" stroke="none"/>
<rect x="475" y="422" clip-path="url(#clipPath1)" fill="none" width="21" stroke-dasharray="none" height="20"/>
<rect x="449" y="422" clip-path="url(#clipPath1)" fill="rgb(0,0,139)" width="21" stroke-dasharray="none" height="20" stroke="none"/>
<rect x="449" y="422" clip-path="url(#clipPath1)" fill="none" width="21" stroke-dasharray="none" height="20"/>
<rect x="422" y="422" clip-path="url(#clipPath1)" fill="rgb(0,0,139)" width="21" stroke-dasharray="none" height="20" stroke="none"/>
<rect x="422" y="422" clip-path="url(#clipPath1)" fill="none" width="21" stroke-dasharray="none" height="20"/>
<rect x="395" y="422" clip-path="url(#clipPath1)" fill="rgb(0,0,139)" width="21" stroke-dasharray="none" height="20" stroke="none"/>
<rect x="395" y="422" clip-path="url(#clipPath1)" fill="none" width="21" stroke-dasharray="none" height="20"/>
<rect x="369" y="422" clip-path="url(#clipPath1)" fill="rgb(0,0,139)" width="21" stroke-dasharray="none" height="20" stroke="none"/>
<rect x="369" y="422" clip-path="url(#clipPath1)" fill="none" width="21" stroke-dasharray="none" height="20"/>
<rect x="342" y="147" clip-path="url(#clipPath1)" fill="rgb(0,0,139)" width="21" stroke-dasharray="none" height="295" stroke="none"/>
<rect x="342" y="147" clip-path="url(#clipPath1)" fill="none" width="21" stroke-dasharray="none" height="295"/>
<rect x="316" y="422" clip-path="url(#clipPath1)" fill="rgb(0,0,139)" width="21" stroke-dasharray="none" height="20" stroke="none"/>
<rect x="316" y="422" clip-path="url(#clipPath1)" fill="none" width="21" stroke-dasharray="none" height="20"/>
<rect x="289" y="422" clip-path="url(#clipPath1)" fill="rgb(0,0,139)" width="21" stroke-dasharray="none" height="20" stroke="none"/>
<rect x="289" y="422" clip-path="url(#clipPath1)" fill="none" width="21" stroke-dasharray="none" height="20"/>
<rect x="262" y="422" clip-path="url(#clipPath1)" fill="rgb(0,0,139)" width="21" stroke-dasharray="none" height="20" stroke="none"/>
<rect x="262" y="422" clip-path="url(#clipPath1)" fill="none" width="21" stroke-dasharray="none" height="20"/>
<rect x="236" y="422" clip-path="url(#clipPath1)" fill="rgb(0,0,139)" width="21" stroke-dasharray="none" height="20" stroke="none"/>
<rect x="236" y="422" clip-path="url(#clipPath1)" fill="none" width="21" stroke-dasharray="none" height="20"/>
<rect x="209" y="422" clip-path="url(#clipPath1)" fill="rgb(0,0,139)" width="21" stroke-dasharray="none" height="20" stroke="none"/>
<rect x="209" y="422" clip-path="url(#clipPath1)" fill="none" width="21" stroke-dasharray="none" height="20"/>
<rect x="183" y="422" clip-path="url(#clipPath1)" fill="rgb(0,0,139)" width="21" stroke-dasharray="none" height="20" stroke="none"/>
<rect x="183" y="422" clip-path="url(#clipPath1)" fill="none" width="21" stroke-dasharray="none" height="20"/>
<rect x="156" y="422" clip-path="url(#clipPath1)" fill="rgb(0,0,139)" width="21" stroke-dasharray="none" height="20" stroke="none"/>
<rect x="156" y="422" clip-path="url(#clipPath1)" fill="none" width="21" stroke-dasharray="none" height="20"/>
<rect x="130" y="422" clip-path="url(#clipPath1)" fill="rgb(0,0,139)" width="21" stroke-dasharray="none" height="20" stroke="none"/>
<rect x="130" y="422" clip-path="url(#clipPath1)" fill="none" width="21" stroke-dasharray="none" height="20"/>
<rect x="103" y="422" clip-path="url(#clipPath1)" fill="rgb(0,0,139)" width="21" stroke-dasharray="none" height="20" stroke="none"/>
<rect x="103" y="422" clip-path="url(#clipPath1)" fill="none" width="21" stroke-dasharray="none" height="20"/>
<rect x="76" y="422" clip-path="url(#clipPath1)" fill="rgb(0,0,139)" width="21" stroke-dasharray="none" height="20" stroke="none"/>
<rect x="76" y="422" clip-path="url(#clipPath1)" fill="none" width="21" stroke-dasharray="none" height="20"/>
<rect x="50" y="422" clip-path="url(#clipPath1)" fill="rgb(0,0,139)" width="21" stroke-dasharray="none" height="20" stroke="none"/>
<rect x="50" y="422" clip-path="url(#clipPath1)" fill="none" width="21" stroke-dasharray="none" height="20"/>
<rect x="29" y="25" clip-path="url(#clipPath2)" fill="none" width="1207" stroke-dasharray="none" height="418" stroke="black"/>
<line clip-path="url(#clipPath2)" fill="none" x1="30" x2="1235" y1="443" y2="443" stroke-dasharray="none"/>
</g>
<g text-rendering="geometricPrecision" font-size="13" font-family="'Arial'" stroke-linecap="butt">
<text xml:space="preserve" x="593" y="12" clip-path="url(#clipPath2)" stroke="none">Potovalni čas</text>
<line clip-path="url(#clipPath2)" fill="none" x1="27" x2="27" y1="25" y2="443"/>
<line clip-path="url(#clipPath2)" fill="none" x1="1238" x2="1238" y1="25" y2="443"/>
<line clip-path="url(#clipPath2)" fill="none" x1="23" x2="27" y1="443" y2="443"/>
<line clip-path="url(#clipPath2)" fill="none" x1="1242" x2="1238" y1="443" y2="443"/>
<text font-size="11" x="17" y="447" clip-path="url(#clipPath2)" stroke="none" xml:space="preserve">0</text>
<text font-size="11" x="1245" y="447" clip-path="url(#clipPath2)" stroke="none" xml:space="preserve">0</text>
<line clip-path="url(#clipPath2)" fill="none" x1="25" x2="27" y1="422" y2="422"/>
<line clip-path="url(#clipPath2)" fill="none" x1="1240" x2="1238" y1="422" y2="422"/>
<line clip-path="url(#clipPath2)" fill="none" x1="25" x2="27" y1="402" y2="402"/>
<line clip-path="url(#clipPath2)" fill="none" x1="1240" x2="1238" y1="402" y2="402"/>
<line clip-path="url(#clipPath2)" fill="none" x1="25" x2="27" y1="381" y2="381"/>
<line clip-path="url(#clipPath2)" fill="none" x1="1240" x2="1238" y1="381" y2="381"/>
<line clip-path="url(#clipPath2)" fill="none" x1="25" x2="27" y1="361" y2="361"/>
<line clip-path="url(#clipPath2)" fill="none" x1="1240" x2="1238" y1="361" y2="361"/>
<line clip-path="url(#clipPath2)" fill="none" x1="23" x2="27" y1="340" y2="340"/>
<line clip-path="url(#clipPath2)" fill="none" x1="1242" x2="1238" y1="340" y2="340"/>
<text font-size="11" x="7" y="344" clip-path="url(#clipPath2)" stroke="none" xml:space="preserve">0.5</text>
<text font-size="11" x="1245" y="344" clip-path="url(#clipPath2)" stroke="none" xml:space="preserve">0.5</text>
<line clip-path="url(#clipPath2)" fill="none" x1="25" x2="27" y1="320" y2="320"/>
<line clip-path="url(#clipPath2)" fill="none" x1="1240" x2="1238" y1="320" y2="320"/>
<line clip-path="url(#clipPath2)" fill="none" x1="25" x2="27" y1="300" y2="300"/>
<line clip-path="url(#clipPath2)" fill="none" x1="1240" x2="1238" y1="300" y2="300"/>
<line clip-path="url(#clipPath2)" fill="none" x1="25" x2="27" y1="279" y2="279"/>
<line clip-path="url(#clipPath2)" fill="none" x1="1240" x2="1238" y1="279" y2="279"/>
<line clip-path="url(#clipPath2)" fill="none" x1="25" x2="27" y1="259" y2="259"/>
<line clip-path="url(#clipPath2)" fill="none" x1="1240" x2="1238" y1="259" y2="259"/>
<line clip-path="url(#clipPath2)" fill="none" x1="23" x2="27" y1="238" y2="238"/>
<line clip-path="url(#clipPath2)" fill="none" x1="1242" x2="1238" y1="238" y2="238"/>
<text font-size="11" x="7" y="242" clip-path="url(#clipPath2)" stroke="none" xml:space="preserve">1.0</text>
<text font-size="11" x="1245" y="242" clip-path="url(#clipPath2)" stroke="none" xml:space="preserve">1.0</text>
<line clip-path="url(#clipPath2)" fill="none" x1="25" x2="27" y1="218" y2="218"/>
<line clip-path="url(#clipPath2)" fill="none" x1="1240" x2="1238" y1="218" y2="218"/>
<line clip-path="url(#clipPath2)" fill="none" x1="25" x2="27" y1="197" y2="197"/>
<line clip-path="url(#clipPath2)" fill="none" x1="1240" x2="1238" y1="197" y2="197"/>
<line clip-path="url(#clipPath2)" fill="none" x1="25" x2="27" y1="177" y2="177"/>
<line clip-path="url(#clipPath2)" fill="none" x1="1240" x2="1238" y1="177" y2="177"/>
<line clip-path="url(#clipPath2)" fill="none" x1="25" x2="27" y1="157" y2="157"/>
<line clip-path="url(#clipPath2)" fill="none" x1="1240" x2="1238" y1="157" y2="157"/>
<line clip-path="url(#clipPath2)" fill="none" x1="23" x2="27" y1="136" y2="136"/>
<line clip-path="url(#clipPath2)" fill="none" x1="1242" x2="1238" y1="136" y2="136"/>
<text font-size="11" x="7" y="140" clip-path="url(#clipPath2)" stroke="none" xml:space="preserve">1.5</text>
<text font-size="11" x="1245" y="140" clip-path="url(#clipPath2)" stroke="none" xml:space="preserve">1.5</text>
<line clip-path="url(#clipPath2)" fill="none" x1="25" x2="27" y1="116" y2="116"/>
<line clip-path="url(#clipPath2)" fill="none" x1="1240" x2="1238" y1="116" y2="116"/>
<line clip-path="url(#clipPath2)" fill="none" x1="25" x2="27" y1="95" y2="95"/>
<line clip-path="url(#clipPath2)" fill="none" x1="1240" x2="1238" y1="95" y2="95"/>
<line clip-path="url(#clipPath2)" fill="none" x1="25" x2="27" y1="75" y2="75"/>
<line clip-path="url(#clipPath2)" fill="none" x1="1240" x2="1238" y1="75" y2="75"/>
<line clip-path="url(#clipPath2)" fill="none" x1="25" x2="27" y1="54" y2="54"/>
<line clip-path="url(#clipPath2)" fill="none" x1="1240" x2="1238" y1="54" y2="54"/>
<line clip-path="url(#clipPath2)" fill="none" x1="23" x2="27" y1="34" y2="34"/>
<line clip-path="url(#clipPath2)" fill="none" x1="1242" x2="1238" y1="34" y2="34"/>
<text font-size="11" x="7" y="38" clip-path="url(#clipPath2)" stroke="none" xml:space="preserve">2.0</text>
<text font-size="11" x="1245" y="38" clip-path="url(#clipPath2)" stroke="none" xml:space="preserve">2.0</text>
<line clip-path="url(#clipPath3)" fill="none" x1="50" x2="71" y1="447" y2="447"/>
<line clip-path="url(#clipPath3)" fill="none" x1="76" x2="97" y1="447" y2="447"/>
<line clip-path="url(#clipPath3)" fill="none" x1="103" x2="124" y1="447" y2="447"/>
<line clip-path="url(#clipPath3)" fill="none" x1="130" x2="151" y1="447" y2="447"/>
<line clip-path="url(#clipPath3)" fill="none" x1="156" x2="177" y1="447" y2="447"/>
<line clip-path="url(#clipPath3)" fill="none" x1="183" x2="204" y1="447" y2="447"/>
<line clip-path="url(#clipPath3)" fill="none" x1="209" x2="230" y1="447" y2="447"/>
<line clip-path="url(#clipPath3)" fill="none" x1="236" x2="257" y1="447" y2="447"/>
<line clip-path="url(#clipPath3)" fill="none" x1="262" x2="283" y1="447" y2="447"/>
<line clip-path="url(#clipPath3)" fill="none" x1="289" x2="310" y1="447" y2="447"/>
<line clip-path="url(#clipPath3)" fill="none" x1="316" x2="337" y1="447" y2="447"/>
<line clip-path="url(#clipPath3)" fill="none" x1="342" x2="363" y1="447" y2="447"/>
<line clip-path="url(#clipPath3)" fill="none" x1="369" x2="390" y1="447" y2="447"/>
<line clip-path="url(#clipPath3)" fill="none" x1="395" x2="416" y1="447" y2="447"/>
<line clip-path="url(#clipPath3)" fill="none" x1="422" x2="443" y1="447" y2="447"/>
<line clip-path="url(#clipPath3)" fill="none" x1="449" x2="470" y1="447" y2="447"/>
<line clip-path="url(#clipPath3)" fill="none" x1="475" x2="496" y1="447" y2="447"/>
<line clip-path="url(#clipPath3)" fill="none" x1="502" x2="523" y1="447" y2="447"/>
<line clip-path="url(#clipPath3)" fill="none" x1="528" x2="549" y1="447" y2="447"/>
<line clip-path="url(#clipPath3)" fill="none" x1="555" x2="576" y1="447" y2="447"/>
<line clip-path="url(#clipPath3)" fill="none" x1="581" x2="602" y1="447" y2="447"/>
<line clip-path="url(#clipPath3)" fill="none" x1="608" x2="629" y1="447" y2="447"/>
<line clip-path="url(#clipPath3)" fill="none" x1="635" x2="656" y1="447" y2="447"/>
<line clip-path="url(#clipPath3)" fill="none" x1="661" x2="682" y1="447" y2="447"/>
<line clip-path="url(#clipPath3)" fill="none" x1="688" x2="709" y1="447" y2="447"/>
<line clip-path="url(#clipPath3)" fill="none" x1="714" x2="735" y1="447" y2="447"/>
<line clip-path="url(#clipPath3)" fill="none" x1="741" x2="762" y1="447" y2="447"/>
<line clip-path="url(#clipPath3)" fill="none" x1="768" x2="789" y1="447" y2="447"/>
<line clip-path="url(#clipPath3)" fill="none" x1="794" x2="815" y1="447" y2="447"/>
<line clip-path="url(#clipPath3)" fill="none" x1="821" x2="842" y1="447" y2="447"/>
<line clip-path="url(#clipPath3)" fill="none" x1="847" x2="868" y1="447" y2="447"/>
<line clip-path="url(#clipPath3)" fill="none" x1="874" x2="895" y1="447" y2="447"/>
<line clip-path="url(#clipPath3)" fill="none" x1="901" x2="922" y1="447" y2="447"/>
<line clip-path="url(#clipPath3)" fill="none" x1="927" x2="948" y1="447" y2="447"/>
<line clip-path="url(#clipPath3)" fill="none" x1="954" x2="975" y1="447" y2="447"/>
<line clip-path="url(#clipPath3)" fill="none" x1="980" x2="1001" y1="447" y2="447"/>
<line clip-path="url(#clipPath3)" fill="none" x1="1007" x2="1028" y1="447" y2="447"/>
<line clip-path="url(#clipPath3)" fill="none" x1="1033" x2="1054" y1="447" y2="447"/>
<line clip-path="url(#clipPath3)" fill="none" x1="1060" x2="1081" y1="447" y2="447"/>
<line clip-path="url(#clipPath3)" fill="none" x1="1087" x2="1108" y1="447" y2="447"/>
<line clip-path="url(#clipPath3)" fill="none" x1="1113" x2="1134" y1="447" y2="447"/>
<line clip-path="url(#clipPath3)" fill="none" x1="1140" x2="1161" y1="447" y2="447"/>
<line clip-path="url(#clipPath3)" fill="none" x1="1166" x2="1187" y1="447" y2="447"/>
<line clip-path="url(#clipPath3)" fill="none" x1="1193" x2="1214" y1="447" y2="447"/>
<text font-size="11" x="50" y="464" clip-path="url(#clipPath3)" stroke="none" xml:space="preserve">Tree.standardHost1.tcpApp[0]</text>
<text font-size="11" x="76" y="464" clip-path="url(#clipPath3)" stroke="none" xml:space="preserve">Tree.standardHost2.tcpApp[0]</text>
<text font-size="11" x="103" y="464" clip-path="url(#clipPath3)" stroke="none" xml:space="preserve">Tree.standardHost3.tcpApp[0]</text>
<text font-size="11" x="130" y="464" clip-path="url(#clipPath3)" stroke="none" xml:space="preserve">Tree.standardHost4.tcpApp[0]</text>
<text font-size="11" x="156" y="464" clip-path="url(#clipPath3)" stroke="none" xml:space="preserve">Tree.standardHost5.tcpApp[0]</text>
<text font-size="11" x="183" y="464" clip-path="url(#clipPath3)" stroke="none" xml:space="preserve">Tree.standardHost6.tcpApp[0]</text>
<text font-size="11" x="209" y="464" clip-path="url(#clipPath3)" stroke="none" xml:space="preserve">Tree.standardHost7.tcpApp[0]</text>
<text font-size="11" x="236" y="464" clip-path="url(#clipPath3)" stroke="none" xml:space="preserve">Tree.standardHost8.tcpApp[0]</text>
<text font-size="11" x="262" y="464" clip-path="url(#clipPath3)" stroke="none" xml:space="preserve">Tree.standardHost9.tcpApp[0]</text>
<text font-size="11" x="289" y="458" clip-path="url(#clipPath3)" stroke="none" xml:space="preserve">Tree.standardHost10.tcpApp[0]</text>
<text font-size="11" x="316" y="458" clip-path="url(#clipPath3)" stroke="none" xml:space="preserve">Tree.standardHost11.tcpApp[0]</text>
<text font-size="11" x="342" y="458" clip-path="url(#clipPath3)" stroke="none" xml:space="preserve">Tree.standardHost12.tcpApp[0]</text>
<text font-size="11" x="369" y="458" clip-path="url(#clipPath3)" stroke="none" xml:space="preserve">Tree.standardHost13.tcpApp[0]</text>
<text font-size="11" x="395" y="458" clip-path="url(#clipPath3)" stroke="none" xml:space="preserve">Tree.standardHost14.tcpApp[0]</text>
<text font-size="11" x="422" y="458" clip-path="url(#clipPath3)" stroke="none" xml:space="preserve">Tree.standardHost15.tcpApp[0]</text>
<text font-size="11" x="449" y="458" clip-path="url(#clipPath3)" stroke="none" xml:space="preserve">Tree.standardHost16.tcpApp[0]</text>
<text font-size="11" x="475" y="458" clip-path="url(#clipPath3)" stroke="none" xml:space="preserve">Tree.standardHost17.tcpApp[0]</text>
<text font-size="11" x="502" y="458" clip-path="url(#clipPath3)" stroke="none" xml:space="preserve">Tree.standardHost18.tcpApp[0]</text>
<text font-size="11" x="528" y="458" clip-path="url(#clipPath3)" stroke="none" xml:space="preserve">Tree.standardHost19.tcpApp[0]</text>
<text font-size="11" x="555" y="458" clip-path="url(#clipPath3)" stroke="none" xml:space="preserve">Tree.standardHost20.tcpApp[0]</text>
<text font-size="11" x="581" y="458" clip-path="url(#clipPath3)" stroke="none" xml:space="preserve">Tree.standardHost21.tcpApp[0]</text>
<text font-size="11" x="608" y="458" clip-path="url(#clipPath3)" stroke="none" xml:space="preserve">Tree.standardHost22.tcpApp[0]</text>
<text font-size="11" x="635" y="458" clip-path="url(#clipPath3)" stroke="none" xml:space="preserve">Tree.standardHost23.tcpApp[0]</text>
<text font-size="11" x="661" y="458" clip-path="url(#clipPath3)" stroke="none" xml:space="preserve">Tree.standardHost24.tcpApp[0]</text>
<text font-size="11" x="688" y="458" clip-path="url(#clipPath3)" stroke="none" xml:space="preserve">Tree.standardHost25.tcpApp[0]</text>
<text font-size="11" x="714" y="458" clip-path="url(#clipPath3)" stroke="none" xml:space="preserve">Tree.standardHost26.tcpApp[0]</text>
<text font-size="11" x="741" y="458" clip-path="url(#clipPath3)" stroke="none" xml:space="preserve">Tree.standardHost27.tcpApp[0]</text>
<text font-size="11" x="768" y="458" clip-path="url(#clipPath3)" stroke="none" xml:space="preserve">Tree.standardHost28.tcpApp[0]</text>
<text font-size="11" x="794" y="458" clip-path="url(#clipPath3)" stroke="none" xml:space="preserve">Tree.standardHost29.tcpApp[0]</text>
<text font-size="11" x="821" y="458" clip-path="url(#clipPath3)" stroke="none" xml:space="preserve">Tree.standardHost30.tcpApp[0]</text>
<text font-size="11" x="847" y="458" clip-path="url(#clipPath3)" stroke="none" xml:space="preserve">Tree.standardHost31.tcpApp[0]</text>
<text font-size="11" x="874" y="458" clip-path="url(#clipPath3)" stroke="none" xml:space="preserve">Tree.standardHost32.tcpApp[0]</text>
<text font-size="11" x="901" y="458" clip-path="url(#clipPath3)" stroke="none" xml:space="preserve">Tree.standardHost33.tcpApp[0]</text>
<text font-size="11" x="927" y="458" clip-path="url(#clipPath3)" stroke="none" xml:space="preserve">Tree.standardHost34.tcpApp[0]</text>
<text font-size="11" x="954" y="458" clip-path="url(#clipPath3)" stroke="none" xml:space="preserve">Tree.standardHost35.tcpApp[0]</text>
<text font-size="11" x="980" y="458" clip-path="url(#clipPath3)" stroke="none" xml:space="preserve">Tree.standardHost36.tcpApp[0]</text>
<text font-size="11" x="1007" y="458" clip-path="url(#clipPath3)" stroke="none" xml:space="preserve">Tree.standardHost37.tcpApp[0]</text>
<text font-size="11" x="1033" y="458" clip-path="url(#clipPath3)" stroke="none" xml:space="preserve">Tree.standardHost38.tcpApp[0]</text>
<text font-size="11" x="1060" y="458" clip-path="url(#clipPath3)" stroke="none" xml:space="preserve">Tree.standardHost39.tcpApp[0]</text>
<text font-size="11" x="1087" y="458" clip-path="url(#clipPath3)" stroke="none" xml:space="preserve">Tree.standardHost40.tcpApp[0]</text>
<text font-size="11" x="1113" y="458" clip-path="url(#clipPath3)" stroke="none" xml:space="preserve">Tree.standardHost41.tcpApp[0]</text>
<text font-size="11" x="1140" y="458" clip-path="url(#clipPath3)" stroke="none" xml:space="preserve">Tree.standardHost42.tcpApp[0]</text>
<text font-size="11" x="1166" y="458" clip-path="url(#clipPath3)" stroke="none" xml:space="preserve">Tree.standardHost43.tcpApp[0]</text>
<text font-size="11" x="1193" y="458" clip-path="url(#clipPath3)" stroke="none" xml:space="preserve">Tree.standardHost44.tcpApp[0]</text>
</g>
</g>
</svg>
