<?xml version="1.0" encoding="UTF-8"?><svg xmlns="http://www.w3.org/2000/svg" xmlns:xlink="http://www.w3.org/1999/xlink" stroke-dasharray="none" shape-rendering="auto" font-family="'Dialog'" width="1265" text-rendering="auto" fill-opacity="1" contentScriptType="text/ecmascript" color-interpolation="auto" color-rendering="auto" preserveAspectRatio="xMidYMid meet" font-size="12" fill="black" stroke="black" image-rendering="auto" stroke-miterlimit="10" zoomAndPan="magnify" version="1.0" stroke-linecap="square" stroke-linejoin="miter" contentStyleType="text/css" font-style="normal" height="563" stroke-width="1" stroke-dashoffset="0" font-weight="normal" stroke-opacity="1">
<!--Generated by the Batik Graphics2D SVG Generator-->
<defs id="genericDefs"/>
<g>
<defs id="defs1">
<clipPath clipPathUnits="userSpaceOnUse" id="clipPath1">
<path d="M28 24 L1237 24 L1237 492 L28 492 L28 24 Z"/>
</clipPath>
<clipPath clipPathUnits="userSpaceOnUse" id="clipPath2">
<path d="M-1 -1 L1266 -1 L1266 564 L-1 564 L-1 -1 Z"/>
</clipPath>
<clipPath clipPathUnits="userSpaceOnUse" id="clipPath3">
<path d="M28 490 L1237 490 L1237 564 L28 564 L28 490 Z"/>
</clipPath>
</defs>
<g fill="white" text-rendering="geometricPrecision" font-family="'Ubuntu'" stroke-linejoin="round" stroke="white" stroke-width="0" stroke-miterlimit="0">
<rect x="29" y="25" clip-path="url(#clipPath1)" width="1207" height="466" stroke="none"/>
</g>
<g stroke-linecap="butt" fill="rgb(204,204,204)" text-rendering="geometricPrecision" font-family="'Ubuntu'" stroke-dasharray="3,3" stroke="rgb(204,204,204)">
<line clip-path="url(#clipPath1)" fill="none" x1="29" x2="1236" y1="491" y2="491"/>
<line clip-path="url(#clipPath1)" fill="none" x1="29" x2="1236" y1="420" y2="420"/>
<line clip-path="url(#clipPath1)" fill="none" x1="29" x2="1236" y1="349" y2="349"/>
<line clip-path="url(#clipPath1)" fill="none" x1="29" x2="1236" y1="279" y2="279"/>
<line clip-path="url(#clipPath1)" fill="none" x1="29" x2="1236" y1="208" y2="208"/>
<line clip-path="url(#clipPath1)" fill="none" x1="29" x2="1236" y1="137" y2="137"/>
<line clip-path="url(#clipPath1)" fill="none" x1="29" x2="1236" y1="67" y2="67"/>
<rect x="1156" y="349" clip-path="url(#clipPath1)" fill="rgb(0,0,139)" width="39" height="141" stroke="none"/>
<rect x="1156" y="349" clip-path="url(#clipPath1)" fill="none" width="39" stroke-dasharray="none" height="141"/>
<rect x="1107" y="349" clip-path="url(#clipPath1)" fill="rgb(0,0,139)" width="39" stroke-dasharray="none" height="141" stroke="none"/>
<rect x="1107" y="349" clip-path="url(#clipPath1)" fill="none" width="39" stroke-dasharray="none" height="141"/>
<rect x="1057" y="349" clip-path="url(#clipPath1)" fill="rgb(0,0,139)" width="39" stroke-dasharray="none" height="141" stroke="none"/>
<rect x="1057" y="349" clip-path="url(#clipPath1)" fill="none" width="39" stroke-dasharray="none" height="141"/>
<rect x="1008" y="349" clip-path="url(#clipPath1)" fill="rgb(0,0,139)" width="39" stroke-dasharray="none" height="141" stroke="none"/>
<rect x="1008" y="349" clip-path="url(#clipPath1)" fill="none" width="39" stroke-dasharray="none" height="141"/>
<rect x="958" y="349" clip-path="url(#clipPath1)" fill="rgb(0,0,139)" width="39" stroke-dasharray="none" height="141" stroke="none"/>
<rect x="958" y="349" clip-path="url(#clipPath1)" fill="none" width="39" stroke-dasharray="none" height="141"/>
<rect x="909" y="349" clip-path="url(#clipPath1)" fill="rgb(0,0,139)" width="39" stroke-dasharray="none" height="141" stroke="none"/>
<rect x="909" y="349" clip-path="url(#clipPath1)" fill="none" width="39" stroke-dasharray="none" height="141"/>
<rect x="860" y="349" clip-path="url(#clipPath1)" fill="rgb(0,0,139)" width="39" stroke-dasharray="none" height="141" stroke="none"/>
<rect x="860" y="349" clip-path="url(#clipPath1)" fill="none" width="39" stroke-dasharray="none" height="141"/>
<rect x="810" y="349" clip-path="url(#clipPath1)" fill="rgb(0,0,139)" width="39" stroke-dasharray="none" height="141" stroke="none"/>
<rect x="810" y="349" clip-path="url(#clipPath1)" fill="none" width="39" stroke-dasharray="none" height="141"/>
<rect x="761" y="349" clip-path="url(#clipPath1)" fill="rgb(0,0,139)" width="39" stroke-dasharray="none" height="141" stroke="none"/>
<rect x="761" y="349" clip-path="url(#clipPath1)" fill="none" width="39" stroke-dasharray="none" height="141"/>
<rect x="711" y="349" clip-path="url(#clipPath1)" fill="rgb(0,0,139)" width="39" stroke-dasharray="none" height="141" stroke="none"/>
<rect x="711" y="349" clip-path="url(#clipPath1)" fill="none" width="39" stroke-dasharray="none" height="141"/>
<rect x="662" y="349" clip-path="url(#clipPath1)" fill="rgb(0,0,139)" width="39" stroke-dasharray="none" height="141" stroke="none"/>
<rect x="662" y="349" clip-path="url(#clipPath1)" fill="none" width="39" stroke-dasharray="none" height="141"/>
<rect x="612" y="349" clip-path="url(#clipPath1)" fill="rgb(0,0,139)" width="39" stroke-dasharray="none" height="141" stroke="none"/>
<rect x="612" y="349" clip-path="url(#clipPath1)" fill="none" width="39" stroke-dasharray="none" height="141"/>
<rect x="563" y="349" clip-path="url(#clipPath1)" fill="rgb(0,0,139)" width="39" stroke-dasharray="none" height="141" stroke="none"/>
<rect x="563" y="349" clip-path="url(#clipPath1)" fill="none" width="39" stroke-dasharray="none" height="141"/>
<rect x="513" y="349" clip-path="url(#clipPath1)" fill="rgb(0,0,139)" width="39" stroke-dasharray="none" height="141" stroke="none"/>
<rect x="513" y="349" clip-path="url(#clipPath1)" fill="none" width="39" stroke-dasharray="none" height="141"/>
<rect x="464" y="349" clip-path="url(#clipPath1)" fill="rgb(0,0,139)" width="39" stroke-dasharray="none" height="141" stroke="none"/>
<rect x="464" y="349" clip-path="url(#clipPath1)" fill="none" width="39" stroke-dasharray="none" height="141"/>
<rect x="414" y="349" clip-path="url(#clipPath1)" fill="rgb(0,0,139)" width="39" stroke-dasharray="none" height="141" stroke="none"/>
<rect x="414" y="349" clip-path="url(#clipPath1)" fill="none" width="39" stroke-dasharray="none" height="141"/>
<rect x="365" y="349" clip-path="url(#clipPath1)" fill="rgb(0,0,139)" width="39" stroke-dasharray="none" height="141" stroke="none"/>
<rect x="365" y="349" clip-path="url(#clipPath1)" fill="none" width="39" stroke-dasharray="none" height="141"/>
<rect x="315" y="208" clip-path="url(#clipPath1)" fill="rgb(0,0,139)" width="39" stroke-dasharray="none" height="282" stroke="none"/>
<rect x="315" y="208" clip-path="url(#clipPath1)" fill="none" width="39" stroke-dasharray="none" height="282"/>
<rect x="266" y="349" clip-path="url(#clipPath1)" fill="rgb(0,0,139)" width="39" stroke-dasharray="none" height="141" stroke="none"/>
<rect x="266" y="349" clip-path="url(#clipPath1)" fill="none" width="39" stroke-dasharray="none" height="141"/>
<rect x="216" y="349" clip-path="url(#clipPath1)" fill="rgb(0,0,139)" width="39" stroke-dasharray="none" height="141" stroke="none"/>
<rect x="216" y="349" clip-path="url(#clipPath1)" fill="none" width="39" stroke-dasharray="none" height="141"/>
<rect x="167" y="349" clip-path="url(#clipPath1)" fill="rgb(0,0,139)" width="39" stroke-dasharray="none" height="141" stroke="none"/>
<rect x="167" y="349" clip-path="url(#clipPath1)" fill="none" width="39" stroke-dasharray="none" height="141"/>
<rect x="118" y="67" clip-path="url(#clipPath1)" fill="rgb(0,0,139)" width="39" stroke-dasharray="none" height="423" stroke="none"/>
<rect x="118" y="67" clip-path="url(#clipPath1)" fill="none" width="39" stroke-dasharray="none" height="423"/>
<rect x="68" y="349" clip-path="url(#clipPath1)" fill="rgb(0,0,139)" width="39" stroke-dasharray="none" height="141" stroke="none"/>
<rect x="68" y="349" clip-path="url(#clipPath1)" fill="none" width="39" stroke-dasharray="none" height="141"/>
<rect x="29" y="25" clip-path="url(#clipPath2)" fill="none" width="1207" stroke-dasharray="none" height="466" stroke="black"/>
<line clip-path="url(#clipPath2)" fill="none" x1="30" x2="1235" y1="491" y2="491" stroke-dasharray="none"/>
</g>
<g text-rendering="geometricPrecision" font-size="13" font-family="'Arial'" stroke-linecap="butt">
<text xml:space="preserve" x="602" y="12" clip-path="url(#clipPath2)" stroke="none">Število sej</text>
<line clip-path="url(#clipPath2)" fill="none" x1="27" x2="27" y1="25" y2="491"/>
<line clip-path="url(#clipPath2)" fill="none" x1="1238" x2="1238" y1="25" y2="491"/>
<line clip-path="url(#clipPath2)" fill="none" x1="23" x2="27" y1="491" y2="491"/>
<line clip-path="url(#clipPath2)" fill="none" x1="1242" x2="1238" y1="491" y2="491"/>
<text font-size="11" x="17" y="495" clip-path="url(#clipPath2)" stroke="none" xml:space="preserve">0</text>
<text font-size="11" x="1245" y="495" clip-path="url(#clipPath2)" stroke="none" xml:space="preserve">0</text>
<line clip-path="url(#clipPath2)" fill="none" x1="25" x2="27" y1="476" y2="476"/>
<line clip-path="url(#clipPath2)" fill="none" x1="1240" x2="1238" y1="476" y2="476"/>
<line clip-path="url(#clipPath2)" fill="none" x1="25" x2="27" y1="462" y2="462"/>
<line clip-path="url(#clipPath2)" fill="none" x1="1240" x2="1238" y1="462" y2="462"/>
<line clip-path="url(#clipPath2)" fill="none" x1="25" x2="27" y1="448" y2="448"/>
<line clip-path="url(#clipPath2)" fill="none" x1="1240" x2="1238" y1="448" y2="448"/>
<line clip-path="url(#clipPath2)" fill="none" x1="25" x2="27" y1="434" y2="434"/>
<line clip-path="url(#clipPath2)" fill="none" x1="1240" x2="1238" y1="434" y2="434"/>
<line clip-path="url(#clipPath2)" fill="none" x1="23" x2="27" y1="420" y2="420"/>
<line clip-path="url(#clipPath2)" fill="none" x1="1242" x2="1238" y1="420" y2="420"/>
<text font-size="11" x="7" y="424" clip-path="url(#clipPath2)" stroke="none" xml:space="preserve">0.5</text>
<text font-size="11" x="1245" y="424" clip-path="url(#clipPath2)" stroke="none" xml:space="preserve">0.5</text>
<line clip-path="url(#clipPath2)" fill="none" x1="25" x2="27" y1="406" y2="406"/>
<line clip-path="url(#clipPath2)" fill="none" x1="1240" x2="1238" y1="406" y2="406"/>
<line clip-path="url(#clipPath2)" fill="none" x1="25" x2="27" y1="392" y2="392"/>
<line clip-path="url(#clipPath2)" fill="none" x1="1240" x2="1238" y1="392" y2="392"/>
<line clip-path="url(#clipPath2)" fill="none" x1="25" x2="27" y1="378" y2="378"/>
<line clip-path="url(#clipPath2)" fill="none" x1="1240" x2="1238" y1="378" y2="378"/>
<line clip-path="url(#clipPath2)" fill="none" x1="25" x2="27" y1="363" y2="363"/>
<line clip-path="url(#clipPath2)" fill="none" x1="1240" x2="1238" y1="363" y2="363"/>
<line clip-path="url(#clipPath2)" fill="none" x1="23" x2="27" y1="349" y2="349"/>
<line clip-path="url(#clipPath2)" fill="none" x1="1242" x2="1238" y1="349" y2="349"/>
<text font-size="11" x="7" y="353" clip-path="url(#clipPath2)" stroke="none" xml:space="preserve">1.0</text>
<text font-size="11" x="1245" y="353" clip-path="url(#clipPath2)" stroke="none" xml:space="preserve">1.0</text>
<line clip-path="url(#clipPath2)" fill="none" x1="25" x2="27" y1="335" y2="335"/>
<line clip-path="url(#clipPath2)" fill="none" x1="1240" x2="1238" y1="335" y2="335"/>
<line clip-path="url(#clipPath2)" fill="none" x1="25" x2="27" y1="321" y2="321"/>
<line clip-path="url(#clipPath2)" fill="none" x1="1240" x2="1238" y1="321" y2="321"/>
<line clip-path="url(#clipPath2)" fill="none" x1="25" x2="27" y1="307" y2="307"/>
<line clip-path="url(#clipPath2)" fill="none" x1="1240" x2="1238" y1="307" y2="307"/>
<line clip-path="url(#clipPath2)" fill="none" x1="25" x2="27" y1="293" y2="293"/>
<line clip-path="url(#clipPath2)" fill="none" x1="1240" x2="1238" y1="293" y2="293"/>
<line clip-path="url(#clipPath2)" fill="none" x1="23" x2="27" y1="279" y2="279"/>
<line clip-path="url(#clipPath2)" fill="none" x1="1242" x2="1238" y1="279" y2="279"/>
<text font-size="11" x="7" y="283" clip-path="url(#clipPath2)" stroke="none" xml:space="preserve">1.5</text>
<text font-size="11" x="1245" y="283" clip-path="url(#clipPath2)" stroke="none" xml:space="preserve">1.5</text>
<line clip-path="url(#clipPath2)" fill="none" x1="25" x2="27" y1="265" y2="265"/>
<line clip-path="url(#clipPath2)" fill="none" x1="1240" x2="1238" y1="265" y2="265"/>
<line clip-path="url(#clipPath2)" fill="none" x1="25" x2="27" y1="250" y2="250"/>
<line clip-path="url(#clipPath2)" fill="none" x1="1240" x2="1238" y1="250" y2="250"/>
<line clip-path="url(#clipPath2)" fill="none" x1="25" x2="27" y1="236" y2="236"/>
<line clip-path="url(#clipPath2)" fill="none" x1="1240" x2="1238" y1="236" y2="236"/>
<line clip-path="url(#clipPath2)" fill="none" x1="25" x2="27" y1="222" y2="222"/>
<line clip-path="url(#clipPath2)" fill="none" x1="1240" x2="1238" y1="222" y2="222"/>
<line clip-path="url(#clipPath2)" fill="none" x1="23" x2="27" y1="208" y2="208"/>
<line clip-path="url(#clipPath2)" fill="none" x1="1242" x2="1238" y1="208" y2="208"/>
<text font-size="11" x="7" y="212" clip-path="url(#clipPath2)" stroke="none" xml:space="preserve">2.0</text>
<text font-size="11" x="1245" y="212" clip-path="url(#clipPath2)" stroke="none" xml:space="preserve">2.0</text>
<line clip-path="url(#clipPath2)" fill="none" x1="25" x2="27" y1="194" y2="194"/>
<line clip-path="url(#clipPath2)" fill="none" x1="1240" x2="1238" y1="194" y2="194"/>
<line clip-path="url(#clipPath2)" fill="none" x1="25" x2="27" y1="180" y2="180"/>
<line clip-path="url(#clipPath2)" fill="none" x1="1240" x2="1238" y1="180" y2="180"/>
<line clip-path="url(#clipPath2)" fill="none" x1="25" x2="27" y1="166" y2="166"/>
<line clip-path="url(#clipPath2)" fill="none" x1="1240" x2="1238" y1="166" y2="166"/>
<line clip-path="url(#clipPath2)" fill="none" x1="25" x2="27" y1="152" y2="152"/>
<line clip-path="url(#clipPath2)" fill="none" x1="1240" x2="1238" y1="152" y2="152"/>
<line clip-path="url(#clipPath2)" fill="none" x1="23" x2="27" y1="137" y2="137"/>
<line clip-path="url(#clipPath2)" fill="none" x1="1242" x2="1238" y1="137" y2="137"/>
<text font-size="11" x="7" y="141" clip-path="url(#clipPath2)" stroke="none" xml:space="preserve">2.5</text>
<text font-size="11" x="1245" y="141" clip-path="url(#clipPath2)" stroke="none" xml:space="preserve">2.5</text>
<line clip-path="url(#clipPath2)" fill="none" x1="25" x2="27" y1="123" y2="123"/>
<line clip-path="url(#clipPath2)" fill="none" x1="1240" x2="1238" y1="123" y2="123"/>
<line clip-path="url(#clipPath2)" fill="none" x1="25" x2="27" y1="109" y2="109"/>
<line clip-path="url(#clipPath2)" fill="none" x1="1240" x2="1238" y1="109" y2="109"/>
<line clip-path="url(#clipPath2)" fill="none" x1="25" x2="27" y1="95" y2="95"/>
<line clip-path="url(#clipPath2)" fill="none" x1="1240" x2="1238" y1="95" y2="95"/>
<line clip-path="url(#clipPath2)" fill="none" x1="25" x2="27" y1="81" y2="81"/>
<line clip-path="url(#clipPath2)" fill="none" x1="1240" x2="1238" y1="81" y2="81"/>
<line clip-path="url(#clipPath2)" fill="none" x1="23" x2="27" y1="67" y2="67"/>
<line clip-path="url(#clipPath2)" fill="none" x1="1242" x2="1238" y1="67" y2="67"/>
<text font-size="11" x="7" y="71" clip-path="url(#clipPath2)" stroke="none" xml:space="preserve">3.0</text>
<text font-size="11" x="1245" y="71" clip-path="url(#clipPath2)" stroke="none" xml:space="preserve">3.0</text>
<line clip-path="url(#clipPath2)" fill="none" x1="25" x2="27" y1="53" y2="53"/>
<line clip-path="url(#clipPath2)" fill="none" x1="1240" x2="1238" y1="53" y2="53"/>
<line clip-path="url(#clipPath2)" fill="none" x1="25" x2="27" y1="39" y2="39"/>
<line clip-path="url(#clipPath2)" fill="none" x1="1240" x2="1238" y1="39" y2="39"/>
<line clip-path="url(#clipPath2)" fill="none" x1="25" x2="27" y1="25" y2="25"/>
<line clip-path="url(#clipPath2)" fill="none" x1="1240" x2="1238" y1="25" y2="25"/>
<line clip-path="url(#clipPath3)" fill="none" x1="68" x2="107" y1="495" y2="495"/>
<line clip-path="url(#clipPath3)" fill="none" x1="118" x2="157" y1="495" y2="495"/>
<line clip-path="url(#clipPath3)" fill="none" x1="167" x2="206" y1="495" y2="495"/>
<line clip-path="url(#clipPath3)" fill="none" x1="216" x2="255" y1="495" y2="495"/>
<line clip-path="url(#clipPath3)" fill="none" x1="266" x2="305" y1="495" y2="495"/>
<line clip-path="url(#clipPath3)" fill="none" x1="315" x2="354" y1="495" y2="495"/>
<line clip-path="url(#clipPath3)" fill="none" x1="365" x2="404" y1="495" y2="495"/>
<line clip-path="url(#clipPath3)" fill="none" x1="414" x2="453" y1="495" y2="495"/>
<line clip-path="url(#clipPath3)" fill="none" x1="464" x2="503" y1="495" y2="495"/>
<line clip-path="url(#clipPath3)" fill="none" x1="513" x2="552" y1="495" y2="495"/>
<line clip-path="url(#clipPath3)" fill="none" x1="563" x2="602" y1="495" y2="495"/>
<line clip-path="url(#clipPath3)" fill="none" x1="612" x2="651" y1="495" y2="495"/>
<line clip-path="url(#clipPath3)" fill="none" x1="662" x2="701" y1="495" y2="495"/>
<line clip-path="url(#clipPath3)" fill="none" x1="711" x2="750" y1="495" y2="495"/>
<line clip-path="url(#clipPath3)" fill="none" x1="761" x2="800" y1="495" y2="495"/>
<line clip-path="url(#clipPath3)" fill="none" x1="810" x2="849" y1="495" y2="495"/>
<line clip-path="url(#clipPath3)" fill="none" x1="860" x2="899" y1="495" y2="495"/>
<line clip-path="url(#clipPath3)" fill="none" x1="909" x2="948" y1="495" y2="495"/>
<line clip-path="url(#clipPath3)" fill="none" x1="958" x2="997" y1="495" y2="495"/>
<line clip-path="url(#clipPath3)" fill="none" x1="1008" x2="1047" y1="495" y2="495"/>
<line clip-path="url(#clipPath3)" fill="none" x1="1057" x2="1096" y1="495" y2="495"/>
<line clip-path="url(#clipPath3)" fill="none" x1="1107" x2="1146" y1="495" y2="495"/>
<line clip-path="url(#clipPath3)" fill="none" x1="1156" x2="1195" y1="495" y2="495"/>
<text font-size="11" x="68" y="506" clip-path="url(#clipPath3)" stroke="none" xml:space="preserve">Tree.standardHost1.tcpApp[0]</text>
<text font-size="11" x="118" y="506" clip-path="url(#clipPath3)" stroke="none" xml:space="preserve">Tree.standardHost2.tcpApp[0]</text>
<text font-size="11" x="167" y="506" clip-path="url(#clipPath3)" stroke="none" xml:space="preserve">Tree.standardHost3.tcpApp[0]</text>
<text font-size="11" x="216" y="506" clip-path="url(#clipPath3)" stroke="none" xml:space="preserve">Tree.standardHost4.tcpApp[0]</text>
<text font-size="11" x="266" y="506" clip-path="url(#clipPath3)" stroke="none" xml:space="preserve">Tree.standardHost5.tcpApp[0]</text>
<text font-size="11" x="315" y="506" clip-path="url(#clipPath3)" stroke="none" xml:space="preserve">Tree.standardHost6.tcpApp[0]</text>
<text font-size="11" x="365" y="506" clip-path="url(#clipPath3)" stroke="none" xml:space="preserve">Tree.standardHost7.tcpApp[0]</text>
<text font-size="11" x="414" y="506" clip-path="url(#clipPath3)" stroke="none" xml:space="preserve">Tree.standardHost8.tcpApp[0]</text>
<text font-size="11" x="464" y="506" clip-path="url(#clipPath3)" stroke="none" xml:space="preserve">Tree.standardHost9.tcpApp[0]</text>
<text font-size="11" x="513" y="506" clip-path="url(#clipPath3)" stroke="none" xml:space="preserve">Tree.standardHost10.tcpApp[0]</text>
<text font-size="11" x="563" y="506" clip-path="url(#clipPath3)" stroke="none" xml:space="preserve">Tree.standardHost11.tcpApp[0]</text>
<text font-size="11" x="612" y="506" clip-path="url(#clipPath3)" stroke="none" xml:space="preserve">Tree.standardHost12.tcpApp[0]</text>
<text font-size="11" x="662" y="506" clip-path="url(#clipPath3)" stroke="none" xml:space="preserve">Tree.standardHost13.tcpApp[0]</text>
<text font-size="11" x="711" y="506" clip-path="url(#clipPath3)" stroke="none" xml:space="preserve">Tree.standardHost14.tcpApp[0]</text>
<text font-size="11" x="761" y="506" clip-path="url(#clipPath3)" stroke="none" xml:space="preserve">Tree.standardHost15.tcpApp[0]</text>
<text font-size="11" x="810" y="506" clip-path="url(#clipPath3)" stroke="none" xml:space="preserve">Tree.standardHost16.tcpApp[0]</text>
<text font-size="11" x="860" y="506" clip-path="url(#clipPath3)" stroke="none" xml:space="preserve">Tree.standardHost17.tcpApp[0]</text>
<text font-size="11" x="909" y="506" clip-path="url(#clipPath3)" stroke="none" xml:space="preserve">Tree.standardHost18.tcpApp[0]</text>
<text font-size="11" x="958" y="506" clip-path="url(#clipPath3)" stroke="none" xml:space="preserve">Tree.standardHost19.tcpApp[0]</text>
<text font-size="11" x="1008" y="506" clip-path="url(#clipPath3)" stroke="none" xml:space="preserve">Tree.standardHost20.tcpApp[0]</text>
<text font-size="11" x="1057" y="506" clip-path="url(#clipPath3)" stroke="none" xml:space="preserve">Tree.standardHost21.tcpApp[0]</text>
<text font-size="11" x="1107" y="506" clip-path="url(#clipPath3)" stroke="none" xml:space="preserve">Tree.standardHost22.tcpApp[0]</text>
<text font-size="11" x="1156" y="506" clip-path="url(#clipPath3)" stroke="none" xml:space="preserve">Tree.standardHost23.tcpApp[0]</text>
</g>
</g>
</svg>
