<?xml version="1.0" encoding="UTF-8"?><svg xmlns="http://www.w3.org/2000/svg" xmlns:xlink="http://www.w3.org/1999/xlink" stroke-dasharray="none" shape-rendering="auto" font-family="'Dialog'" width="1265" text-rendering="auto" fill-opacity="1" contentScriptType="text/ecmascript" color-interpolation="auto" color-rendering="auto" preserveAspectRatio="xMidYMid meet" font-size="12" fill="black" stroke="black" image-rendering="auto" stroke-miterlimit="10" zoomAndPan="magnify" version="1.0" stroke-linecap="square" stroke-linejoin="miter" contentStyleType="text/css" font-style="normal" height="491" stroke-width="1" stroke-dashoffset="0" font-weight="normal" stroke-opacity="1">
<!--Generated by the Batik Graphics2D SVG Generator-->
<defs id="genericDefs"/>
<g>
<defs id="defs1">
<clipPath clipPathUnits="userSpaceOnUse" id="clipPath1">
<path d="M40 9 L1225 9 L1225 372 L40 372 L40 9 Z"/>
</clipPath>
<clipPath clipPathUnits="userSpaceOnUse" id="clipPath2">
<path d="M-1 -1 L1266 -1 L1266 492 L-1 492 L-1 -1 Z"/>
</clipPath>
<clipPath clipPathUnits="userSpaceOnUse" id="clipPath3">
<path d="M40 370 L1225 370 L1225 492 L40 492 L40 370 Z"/>
</clipPath>
</defs>
<g fill="white" text-rendering="geometricPrecision" font-family="'Ubuntu'" stroke-linejoin="round" stroke="white" stroke-width="0" stroke-miterlimit="0">
<rect x="41" y="10" clip-path="url(#clipPath1)" width="1183" height="361" stroke="none"/>
</g>
<g stroke-linecap="butt" fill="rgb(204,204,204)" text-rendering="geometricPrecision" font-family="'Ubuntu'" stroke-dasharray="3,3" stroke="rgb(204,204,204)">
<line clip-path="url(#clipPath1)" fill="none" x1="41" x2="1224" y1="371" y2="371"/>
<line clip-path="url(#clipPath1)" fill="none" x1="41" x2="1224" y1="317" y2="317"/>
<line clip-path="url(#clipPath1)" fill="none" x1="41" x2="1224" y1="264" y2="264"/>
<line clip-path="url(#clipPath1)" fill="none" x1="41" x2="1224" y1="211" y2="211"/>
<line clip-path="url(#clipPath1)" fill="none" x1="41" x2="1224" y1="157" y2="157"/>
<line clip-path="url(#clipPath1)" fill="none" x1="41" x2="1224" y1="104" y2="104"/>
<line clip-path="url(#clipPath1)" fill="none" x1="41" x2="1224" y1="51" y2="51"/>
<rect x="1182" y="182" clip-path="url(#clipPath1)" fill="rgb(0,0,139)" width="20" height="188" stroke="none"/>
<rect x="1182" y="182" clip-path="url(#clipPath1)" fill="none" width="20" stroke-dasharray="none" height="188"/>
<rect x="1156" y="201" clip-path="url(#clipPath1)" fill="rgb(0,0,139)" width="20" stroke-dasharray="none" height="169" stroke="none"/>
<rect x="1156" y="201" clip-path="url(#clipPath1)" fill="none" width="20" stroke-dasharray="none" height="169"/>
<rect x="1130" y="299" clip-path="url(#clipPath1)" fill="rgb(0,0,139)" width="20" stroke-dasharray="none" height="71" stroke="none"/>
<rect x="1130" y="299" clip-path="url(#clipPath1)" fill="none" width="20" stroke-dasharray="none" height="71"/>
<rect x="1104" y="336" clip-path="url(#clipPath1)" fill="rgb(0,0,139)" width="20" stroke-dasharray="none" height="34" stroke="none"/>
<rect x="1104" y="336" clip-path="url(#clipPath1)" fill="none" width="20" stroke-dasharray="none" height="34"/>
<rect x="1078" y="273" clip-path="url(#clipPath1)" fill="rgb(0,0,139)" width="20" stroke-dasharray="none" height="97" stroke="none"/>
<rect x="1078" y="273" clip-path="url(#clipPath1)" fill="none" width="20" stroke-dasharray="none" height="97"/>
<rect x="1052" y="343" clip-path="url(#clipPath1)" fill="rgb(0,0,139)" width="20" stroke-dasharray="none" height="27" stroke="none"/>
<rect x="1052" y="343" clip-path="url(#clipPath1)" fill="none" width="20" stroke-dasharray="none" height="27"/>
<rect x="1025" y="275" clip-path="url(#clipPath1)" fill="rgb(0,0,139)" width="20" stroke-dasharray="none" height="95" stroke="none"/>
<rect x="1025" y="275" clip-path="url(#clipPath1)" fill="none" width="20" stroke-dasharray="none" height="95"/>
<rect x="999" y="308" clip-path="url(#clipPath1)" fill="rgb(0,0,139)" width="20" stroke-dasharray="none" height="62" stroke="none"/>
<rect x="999" y="308" clip-path="url(#clipPath1)" fill="none" width="20" stroke-dasharray="none" height="62"/>
<rect x="973" y="320" clip-path="url(#clipPath1)" fill="rgb(0,0,139)" width="20" stroke-dasharray="none" height="50" stroke="none"/>
<rect x="973" y="320" clip-path="url(#clipPath1)" fill="none" width="20" stroke-dasharray="none" height="50"/>
<rect x="947" y="364" clip-path="url(#clipPath1)" fill="rgb(0,0,139)" width="20" stroke-dasharray="none" height="6" stroke="none"/>
<rect x="947" y="364" clip-path="url(#clipPath1)" fill="none" width="20" stroke-dasharray="none" height="6"/>
<rect x="921" y="325" clip-path="url(#clipPath1)" fill="rgb(0,0,139)" width="20" stroke-dasharray="none" height="45" stroke="none"/>
<rect x="921" y="325" clip-path="url(#clipPath1)" fill="none" width="20" stroke-dasharray="none" height="45"/>
<rect x="895" y="273" clip-path="url(#clipPath1)" fill="rgb(0,0,139)" width="20" stroke-dasharray="none" height="97" stroke="none"/>
<rect x="895" y="273" clip-path="url(#clipPath1)" fill="none" width="20" stroke-dasharray="none" height="97"/>
<rect x="869" y="257" clip-path="url(#clipPath1)" fill="rgb(0,0,139)" width="20" stroke-dasharray="none" height="113" stroke="none"/>
<rect x="869" y="257" clip-path="url(#clipPath1)" fill="none" width="20" stroke-dasharray="none" height="113"/>
<rect x="843" y="241" clip-path="url(#clipPath1)" fill="rgb(0,0,139)" width="20" stroke-dasharray="none" height="129" stroke="none"/>
<rect x="843" y="241" clip-path="url(#clipPath1)" fill="none" width="20" stroke-dasharray="none" height="129"/>
<rect x="817" y="269" clip-path="url(#clipPath1)" fill="rgb(0,0,139)" width="20" stroke-dasharray="none" height="101" stroke="none"/>
<rect x="817" y="269" clip-path="url(#clipPath1)" fill="none" width="20" stroke-dasharray="none" height="101"/>
<rect x="791" y="324" clip-path="url(#clipPath1)" fill="rgb(0,0,139)" width="20" stroke-dasharray="none" height="46" stroke="none"/>
<rect x="791" y="324" clip-path="url(#clipPath1)" fill="none" width="20" stroke-dasharray="none" height="46"/>
<rect x="765" y="335" clip-path="url(#clipPath1)" fill="rgb(0,0,139)" width="20" stroke-dasharray="none" height="35" stroke="none"/>
<rect x="765" y="335" clip-path="url(#clipPath1)" fill="none" width="20" stroke-dasharray="none" height="35"/>
<rect x="739" y="288" clip-path="url(#clipPath1)" fill="rgb(0,0,139)" width="20" stroke-dasharray="none" height="82" stroke="none"/>
<rect x="739" y="288" clip-path="url(#clipPath1)" fill="none" width="20" stroke-dasharray="none" height="82"/>
<rect x="713" y="306" clip-path="url(#clipPath1)" fill="rgb(0,0,139)" width="20" stroke-dasharray="none" height="64" stroke="none"/>
<rect x="713" y="306" clip-path="url(#clipPath1)" fill="none" width="20" stroke-dasharray="none" height="64"/>
<rect x="687" y="308" clip-path="url(#clipPath1)" fill="rgb(0,0,139)" width="20" stroke-dasharray="none" height="62" stroke="none"/>
<rect x="687" y="308" clip-path="url(#clipPath1)" fill="none" width="20" stroke-dasharray="none" height="62"/>
<rect x="661" y="238" clip-path="url(#clipPath1)" fill="rgb(0,0,139)" width="20" stroke-dasharray="none" height="132" stroke="none"/>
<rect x="661" y="238" clip-path="url(#clipPath1)" fill="none" width="20" stroke-dasharray="none" height="132"/>
<rect x="635" y="170" clip-path="url(#clipPath1)" fill="rgb(0,0,139)" width="20" stroke-dasharray="none" height="200" stroke="none"/>
<rect x="635" y="170" clip-path="url(#clipPath1)" fill="none" width="20" stroke-dasharray="none" height="200"/>
<rect x="609" y="220" clip-path="url(#clipPath1)" fill="rgb(0,0,139)" width="20" stroke-dasharray="none" height="150" stroke="none"/>
<rect x="609" y="220" clip-path="url(#clipPath1)" fill="none" width="20" stroke-dasharray="none" height="150"/>
<rect x="582" y="73" clip-path="url(#clipPath1)" fill="rgb(0,0,139)" width="20" stroke-dasharray="none" height="297" stroke="none"/>
<rect x="582" y="73" clip-path="url(#clipPath1)" fill="none" width="20" stroke-dasharray="none" height="297"/>
<rect x="556" y="165" clip-path="url(#clipPath1)" fill="rgb(0,0,139)" width="20" stroke-dasharray="none" height="205" stroke="none"/>
<rect x="556" y="165" clip-path="url(#clipPath1)" fill="none" width="20" stroke-dasharray="none" height="205"/>
<rect x="530" y="199" clip-path="url(#clipPath1)" fill="rgb(0,0,139)" width="20" stroke-dasharray="none" height="171" stroke="none"/>
<rect x="530" y="199" clip-path="url(#clipPath1)" fill="none" width="20" stroke-dasharray="none" height="171"/>
<rect x="504" y="286" clip-path="url(#clipPath1)" fill="rgb(0,0,139)" width="20" stroke-dasharray="none" height="84" stroke="none"/>
<rect x="504" y="286" clip-path="url(#clipPath1)" fill="none" width="20" stroke-dasharray="none" height="84"/>
<rect x="478" y="135" clip-path="url(#clipPath1)" fill="rgb(0,0,139)" width="20" stroke-dasharray="none" height="235" stroke="none"/>
<rect x="478" y="135" clip-path="url(#clipPath1)" fill="none" width="20" stroke-dasharray="none" height="235"/>
<rect x="452" y="305" clip-path="url(#clipPath1)" fill="rgb(0,0,139)" width="20" stroke-dasharray="none" height="65" stroke="none"/>
<rect x="452" y="305" clip-path="url(#clipPath1)" fill="none" width="20" stroke-dasharray="none" height="65"/>
<rect x="426" y="139" clip-path="url(#clipPath1)" fill="rgb(0,0,139)" width="20" stroke-dasharray="none" height="231" stroke="none"/>
<rect x="426" y="139" clip-path="url(#clipPath1)" fill="none" width="20" stroke-dasharray="none" height="231"/>
<rect x="400" y="220" clip-path="url(#clipPath1)" fill="rgb(0,0,139)" width="20" stroke-dasharray="none" height="150" stroke="none"/>
<rect x="400" y="220" clip-path="url(#clipPath1)" fill="none" width="20" stroke-dasharray="none" height="150"/>
<rect x="374" y="248" clip-path="url(#clipPath1)" fill="rgb(0,0,139)" width="20" stroke-dasharray="none" height="122" stroke="none"/>
<rect x="374" y="248" clip-path="url(#clipPath1)" fill="none" width="20" stroke-dasharray="none" height="122"/>
<rect x="348" y="354" clip-path="url(#clipPath1)" fill="rgb(0,0,139)" width="20" stroke-dasharray="none" height="16" stroke="none"/>
<rect x="348" y="354" clip-path="url(#clipPath1)" fill="none" width="20" stroke-dasharray="none" height="16"/>
<rect x="322" y="257" clip-path="url(#clipPath1)" fill="rgb(0,0,139)" width="20" stroke-dasharray="none" height="113" stroke="none"/>
<rect x="322" y="257" clip-path="url(#clipPath1)" fill="none" width="20" stroke-dasharray="none" height="113"/>
<rect x="296" y="128" clip-path="url(#clipPath1)" fill="rgb(0,0,139)" width="20" stroke-dasharray="none" height="242" stroke="none"/>
<rect x="296" y="128" clip-path="url(#clipPath1)" fill="none" width="20" stroke-dasharray="none" height="242"/>
<rect x="270" y="88" clip-path="url(#clipPath1)" fill="rgb(0,0,139)" width="20" stroke-dasharray="none" height="282" stroke="none"/>
<rect x="270" y="88" clip-path="url(#clipPath1)" fill="none" width="20" stroke-dasharray="none" height="282"/>
<rect x="244" y="49" clip-path="url(#clipPath1)" fill="rgb(0,0,139)" width="20" stroke-dasharray="none" height="321" stroke="none"/>
<rect x="244" y="49" clip-path="url(#clipPath1)" fill="none" width="20" stroke-dasharray="none" height="321"/>
<rect x="218" y="118" clip-path="url(#clipPath1)" fill="rgb(0,0,139)" width="20" stroke-dasharray="none" height="252" stroke="none"/>
<rect x="218" y="118" clip-path="url(#clipPath1)" fill="none" width="20" stroke-dasharray="none" height="252"/>
<rect x="192" y="256" clip-path="url(#clipPath1)" fill="rgb(0,0,139)" width="20" stroke-dasharray="none" height="114" stroke="none"/>
<rect x="192" y="256" clip-path="url(#clipPath1)" fill="none" width="20" stroke-dasharray="none" height="114"/>
<rect x="166" y="283" clip-path="url(#clipPath1)" fill="rgb(0,0,139)" width="20" stroke-dasharray="none" height="87" stroke="none"/>
<rect x="166" y="283" clip-path="url(#clipPath1)" fill="none" width="20" stroke-dasharray="none" height="87"/>
<rect x="140" y="160" clip-path="url(#clipPath1)" fill="rgb(0,0,139)" width="20" stroke-dasharray="none" height="210" stroke="none"/>
<rect x="140" y="160" clip-path="url(#clipPath1)" fill="none" width="20" stroke-dasharray="none" height="210"/>
<rect x="113" y="210" clip-path="url(#clipPath1)" fill="rgb(0,0,139)" width="20" stroke-dasharray="none" height="160" stroke="none"/>
<rect x="113" y="210" clip-path="url(#clipPath1)" fill="none" width="20" stroke-dasharray="none" height="160"/>
<rect x="87" y="216" clip-path="url(#clipPath1)" fill="rgb(0,0,139)" width="20" stroke-dasharray="none" height="154" stroke="none"/>
<rect x="87" y="216" clip-path="url(#clipPath1)" fill="none" width="20" stroke-dasharray="none" height="154"/>
<rect x="61" y="42" clip-path="url(#clipPath1)" fill="rgb(0,0,139)" width="20" stroke-dasharray="none" height="328" stroke="none"/>
<rect x="61" y="42" clip-path="url(#clipPath1)" fill="none" width="20" stroke-dasharray="none" height="328"/>
<rect x="41" y="10" clip-path="url(#clipPath2)" fill="none" width="1183" stroke-dasharray="none" height="361" stroke="black"/>
<line clip-path="url(#clipPath2)" fill="none" x1="42" x2="1223" y1="371" y2="371" stroke-dasharray="none"/>
</g>
<g text-rendering="geometricPrecision" font-size="13" font-family="'Arial'" stroke-linecap="butt">
<line clip-path="url(#clipPath2)" fill="none" x1="39" x2="39" y1="10" y2="371"/>
<line clip-path="url(#clipPath2)" fill="none" x1="1226" x2="1226" y1="10" y2="371"/>
<line clip-path="url(#clipPath2)" fill="none" x1="35" x2="39" y1="371" y2="371"/>
<line clip-path="url(#clipPath2)" fill="none" x1="1230" x2="1226" y1="371" y2="371"/>
<text font-size="11" x="14" y="375" clip-path="url(#clipPath2)" stroke="none" xml:space="preserve">0.00</text>
<text font-size="11" x="1233" y="375" clip-path="url(#clipPath2)" stroke="none" xml:space="preserve">0.00</text>
<line clip-path="url(#clipPath2)" fill="none" x1="37" x2="39" y1="360" y2="360"/>
<line clip-path="url(#clipPath2)" fill="none" x1="1228" x2="1226" y1="360" y2="360"/>
<line clip-path="url(#clipPath2)" fill="none" x1="37" x2="39" y1="349" y2="349"/>
<line clip-path="url(#clipPath2)" fill="none" x1="1228" x2="1226" y1="349" y2="349"/>
<line clip-path="url(#clipPath2)" fill="none" x1="37" x2="39" y1="339" y2="339"/>
<line clip-path="url(#clipPath2)" fill="none" x1="1228" x2="1226" y1="339" y2="339"/>
<line clip-path="url(#clipPath2)" fill="none" x1="37" x2="39" y1="328" y2="328"/>
<line clip-path="url(#clipPath2)" fill="none" x1="1228" x2="1226" y1="328" y2="328"/>
<line clip-path="url(#clipPath2)" fill="none" x1="35" x2="39" y1="317" y2="317"/>
<line clip-path="url(#clipPath2)" fill="none" x1="1230" x2="1226" y1="317" y2="317"/>
<text font-size="11" x="9" y="321" clip-path="url(#clipPath2)" stroke="none" xml:space="preserve">0.010</text>
<text font-size="11" x="1233" y="321" clip-path="url(#clipPath2)" stroke="none" xml:space="preserve">0.010</text>
<line clip-path="url(#clipPath2)" fill="none" x1="37" x2="39" y1="307" y2="307"/>
<line clip-path="url(#clipPath2)" fill="none" x1="1228" x2="1226" y1="307" y2="307"/>
<line clip-path="url(#clipPath2)" fill="none" x1="37" x2="39" y1="296" y2="296"/>
<line clip-path="url(#clipPath2)" fill="none" x1="1228" x2="1226" y1="296" y2="296"/>
<line clip-path="url(#clipPath2)" fill="none" x1="37" x2="39" y1="285" y2="285"/>
<line clip-path="url(#clipPath2)" fill="none" x1="1228" x2="1226" y1="285" y2="285"/>
<line clip-path="url(#clipPath2)" fill="none" x1="37" x2="39" y1="275" y2="275"/>
<line clip-path="url(#clipPath2)" fill="none" x1="1228" x2="1226" y1="275" y2="275"/>
<line clip-path="url(#clipPath2)" fill="none" x1="35" x2="39" y1="264" y2="264"/>
<line clip-path="url(#clipPath2)" fill="none" x1="1230" x2="1226" y1="264" y2="264"/>
<text font-size="11" x="9" y="268" clip-path="url(#clipPath2)" stroke="none" xml:space="preserve">0.020</text>
<text font-size="11" x="1233" y="268" clip-path="url(#clipPath2)" stroke="none" xml:space="preserve">0.020</text>
<line clip-path="url(#clipPath2)" fill="none" x1="37" x2="39" y1="253" y2="253"/>
<line clip-path="url(#clipPath2)" fill="none" x1="1228" x2="1226" y1="253" y2="253"/>
<line clip-path="url(#clipPath2)" fill="none" x1="37" x2="39" y1="243" y2="243"/>
<line clip-path="url(#clipPath2)" fill="none" x1="1228" x2="1226" y1="243" y2="243"/>
<line clip-path="url(#clipPath2)" fill="none" x1="37" x2="39" y1="232" y2="232"/>
<line clip-path="url(#clipPath2)" fill="none" x1="1228" x2="1226" y1="232" y2="232"/>
<line clip-path="url(#clipPath2)" fill="none" x1="37" x2="39" y1="221" y2="221"/>
<line clip-path="url(#clipPath2)" fill="none" x1="1228" x2="1226" y1="221" y2="221"/>
<line clip-path="url(#clipPath2)" fill="none" x1="35" x2="39" y1="211" y2="211"/>
<line clip-path="url(#clipPath2)" fill="none" x1="1230" x2="1226" y1="211" y2="211"/>
<text font-size="11" x="9" y="215" clip-path="url(#clipPath2)" stroke="none" xml:space="preserve">0.030</text>
<text font-size="11" x="1233" y="215" clip-path="url(#clipPath2)" stroke="none" xml:space="preserve">0.030</text>
<line clip-path="url(#clipPath2)" fill="none" x1="37" x2="39" y1="200" y2="200"/>
<line clip-path="url(#clipPath2)" fill="none" x1="1228" x2="1226" y1="200" y2="200"/>
<line clip-path="url(#clipPath2)" fill="none" x1="37" x2="39" y1="189" y2="189"/>
<line clip-path="url(#clipPath2)" fill="none" x1="1228" x2="1226" y1="189" y2="189"/>
<line clip-path="url(#clipPath2)" fill="none" x1="37" x2="39" y1="179" y2="179"/>
<line clip-path="url(#clipPath2)" fill="none" x1="1228" x2="1226" y1="179" y2="179"/>
<line clip-path="url(#clipPath2)" fill="none" x1="37" x2="39" y1="168" y2="168"/>
<line clip-path="url(#clipPath2)" fill="none" x1="1228" x2="1226" y1="168" y2="168"/>
<line clip-path="url(#clipPath2)" fill="none" x1="35" x2="39" y1="157" y2="157"/>
<line clip-path="url(#clipPath2)" fill="none" x1="1230" x2="1226" y1="157" y2="157"/>
<text font-size="11" x="9" y="161" clip-path="url(#clipPath2)" stroke="none" xml:space="preserve">0.040</text>
<text font-size="11" x="1233" y="161" clip-path="url(#clipPath2)" stroke="none" xml:space="preserve">0.040</text>
<line clip-path="url(#clipPath2)" fill="none" x1="37" x2="39" y1="147" y2="147"/>
<line clip-path="url(#clipPath2)" fill="none" x1="1228" x2="1226" y1="147" y2="147"/>
<line clip-path="url(#clipPath2)" fill="none" x1="37" x2="39" y1="136" y2="136"/>
<line clip-path="url(#clipPath2)" fill="none" x1="1228" x2="1226" y1="136" y2="136"/>
<line clip-path="url(#clipPath2)" fill="none" x1="37" x2="39" y1="125" y2="125"/>
<line clip-path="url(#clipPath2)" fill="none" x1="1228" x2="1226" y1="125" y2="125"/>
<line clip-path="url(#clipPath2)" fill="none" x1="37" x2="39" y1="115" y2="115"/>
<line clip-path="url(#clipPath2)" fill="none" x1="1228" x2="1226" y1="115" y2="115"/>
<line clip-path="url(#clipPath2)" fill="none" x1="35" x2="39" y1="104" y2="104"/>
<line clip-path="url(#clipPath2)" fill="none" x1="1230" x2="1226" y1="104" y2="104"/>
<text font-size="11" x="9" y="108" clip-path="url(#clipPath2)" stroke="none" xml:space="preserve">0.050</text>
<text font-size="11" x="1233" y="108" clip-path="url(#clipPath2)" stroke="none" xml:space="preserve">0.050</text>
<line clip-path="url(#clipPath2)" fill="none" x1="37" x2="39" y1="93" y2="93"/>
<line clip-path="url(#clipPath2)" fill="none" x1="1228" x2="1226" y1="93" y2="93"/>
<line clip-path="url(#clipPath2)" fill="none" x1="37" x2="39" y1="83" y2="83"/>
<line clip-path="url(#clipPath2)" fill="none" x1="1228" x2="1226" y1="83" y2="83"/>
<line clip-path="url(#clipPath2)" fill="none" x1="37" x2="39" y1="72" y2="72"/>
<line clip-path="url(#clipPath2)" fill="none" x1="1228" x2="1226" y1="72" y2="72"/>
<line clip-path="url(#clipPath2)" fill="none" x1="37" x2="39" y1="61" y2="61"/>
<line clip-path="url(#clipPath2)" fill="none" x1="1228" x2="1226" y1="61" y2="61"/>
<line clip-path="url(#clipPath2)" fill="none" x1="35" x2="39" y1="51" y2="51"/>
<line clip-path="url(#clipPath2)" fill="none" x1="1230" x2="1226" y1="51" y2="51"/>
<text font-size="11" x="9" y="55" clip-path="url(#clipPath2)" stroke="none" xml:space="preserve">0.060</text>
<text font-size="11" x="1233" y="55" clip-path="url(#clipPath2)" stroke="none" xml:space="preserve">0.060</text>
<line clip-path="url(#clipPath2)" fill="none" x1="37" x2="39" y1="40" y2="40"/>
<line clip-path="url(#clipPath2)" fill="none" x1="1228" x2="1226" y1="40" y2="40"/>
<line clip-path="url(#clipPath2)" fill="none" x1="37" x2="39" y1="29" y2="29"/>
<line clip-path="url(#clipPath2)" fill="none" x1="1228" x2="1226" y1="29" y2="29"/>
<line clip-path="url(#clipPath2)" fill="none" x1="37" x2="39" y1="19" y2="19"/>
<line clip-path="url(#clipPath2)" fill="none" x1="1228" x2="1226" y1="19" y2="19"/>
<line clip-path="url(#clipPath3)" fill="none" x1="61" x2="81" y1="375" y2="375"/>
<line clip-path="url(#clipPath3)" fill="none" x1="87" x2="107" y1="375" y2="375"/>
<line clip-path="url(#clipPath3)" fill="none" x1="113" x2="133" y1="375" y2="375"/>
<line clip-path="url(#clipPath3)" fill="none" x1="140" x2="160" y1="375" y2="375"/>
<line clip-path="url(#clipPath3)" fill="none" x1="166" x2="186" y1="375" y2="375"/>
<line clip-path="url(#clipPath3)" fill="none" x1="192" x2="212" y1="375" y2="375"/>
<line clip-path="url(#clipPath3)" fill="none" x1="218" x2="238" y1="375" y2="375"/>
<line clip-path="url(#clipPath3)" fill="none" x1="244" x2="264" y1="375" y2="375"/>
<line clip-path="url(#clipPath3)" fill="none" x1="270" x2="290" y1="375" y2="375"/>
<line clip-path="url(#clipPath3)" fill="none" x1="296" x2="316" y1="375" y2="375"/>
<line clip-path="url(#clipPath3)" fill="none" x1="322" x2="342" y1="375" y2="375"/>
<line clip-path="url(#clipPath3)" fill="none" x1="348" x2="368" y1="375" y2="375"/>
<line clip-path="url(#clipPath3)" fill="none" x1="374" x2="394" y1="375" y2="375"/>
<line clip-path="url(#clipPath3)" fill="none" x1="400" x2="420" y1="375" y2="375"/>
<line clip-path="url(#clipPath3)" fill="none" x1="426" x2="446" y1="375" y2="375"/>
<line clip-path="url(#clipPath3)" fill="none" x1="452" x2="472" y1="375" y2="375"/>
<line clip-path="url(#clipPath3)" fill="none" x1="478" x2="498" y1="375" y2="375"/>
<line clip-path="url(#clipPath3)" fill="none" x1="504" x2="524" y1="375" y2="375"/>
<line clip-path="url(#clipPath3)" fill="none" x1="530" x2="550" y1="375" y2="375"/>
<line clip-path="url(#clipPath3)" fill="none" x1="556" x2="576" y1="375" y2="375"/>
<line clip-path="url(#clipPath3)" fill="none" x1="582" x2="602" y1="375" y2="375"/>
<line clip-path="url(#clipPath3)" fill="none" x1="609" x2="629" y1="375" y2="375"/>
<line clip-path="url(#clipPath3)" fill="none" x1="635" x2="655" y1="375" y2="375"/>
<line clip-path="url(#clipPath3)" fill="none" x1="661" x2="681" y1="375" y2="375"/>
<line clip-path="url(#clipPath3)" fill="none" x1="687" x2="707" y1="375" y2="375"/>
<line clip-path="url(#clipPath3)" fill="none" x1="713" x2="733" y1="375" y2="375"/>
<line clip-path="url(#clipPath3)" fill="none" x1="739" x2="759" y1="375" y2="375"/>
<line clip-path="url(#clipPath3)" fill="none" x1="765" x2="785" y1="375" y2="375"/>
<line clip-path="url(#clipPath3)" fill="none" x1="791" x2="811" y1="375" y2="375"/>
<line clip-path="url(#clipPath3)" fill="none" x1="817" x2="837" y1="375" y2="375"/>
<line clip-path="url(#clipPath3)" fill="none" x1="843" x2="863" y1="375" y2="375"/>
<line clip-path="url(#clipPath3)" fill="none" x1="869" x2="889" y1="375" y2="375"/>
<line clip-path="url(#clipPath3)" fill="none" x1="895" x2="915" y1="375" y2="375"/>
<line clip-path="url(#clipPath3)" fill="none" x1="921" x2="941" y1="375" y2="375"/>
<line clip-path="url(#clipPath3)" fill="none" x1="947" x2="967" y1="375" y2="375"/>
<line clip-path="url(#clipPath3)" fill="none" x1="973" x2="993" y1="375" y2="375"/>
<line clip-path="url(#clipPath3)" fill="none" x1="999" x2="1019" y1="375" y2="375"/>
<line clip-path="url(#clipPath3)" fill="none" x1="1025" x2="1045" y1="375" y2="375"/>
<line clip-path="url(#clipPath3)" fill="none" x1="1052" x2="1072" y1="375" y2="375"/>
<line clip-path="url(#clipPath3)" fill="none" x1="1078" x2="1098" y1="375" y2="375"/>
<line clip-path="url(#clipPath3)" fill="none" x1="1104" x2="1124" y1="375" y2="375"/>
<line clip-path="url(#clipPath3)" fill="none" x1="1130" x2="1150" y1="375" y2="375"/>
<line clip-path="url(#clipPath3)" fill="none" x1="1156" x2="1176" y1="375" y2="375"/>
<line clip-path="url(#clipPath3)" fill="none" x1="1182" x2="1202" y1="375" y2="375"/>
<text font-size="11" x="61" y="386" clip-path="url(#clipPath3)" stroke="none" xml:space="preserve">Tree.standardHost1.tcpApp[0]</text>
<text font-size="11" x="87" y="386" clip-path="url(#clipPath3)" stroke="none" xml:space="preserve">Tree.standardHost2.tcpApp[0]</text>
<text font-size="11" x="113" y="386" clip-path="url(#clipPath3)" stroke="none" xml:space="preserve">Tree.standardHost3.tcpApp[0]</text>
<text font-size="11" x="140" y="386" clip-path="url(#clipPath3)" stroke="none" xml:space="preserve">Tree.standardHost4.tcpApp[0]</text>
<text font-size="11" x="166" y="386" clip-path="url(#clipPath3)" stroke="none" xml:space="preserve">Tree.standardHost5.tcpApp[0]</text>
<text font-size="11" x="192" y="386" clip-path="url(#clipPath3)" stroke="none" xml:space="preserve">Tree.standardHost6.tcpApp[0]</text>
<text font-size="11" x="218" y="386" clip-path="url(#clipPath3)" stroke="none" xml:space="preserve">Tree.standardHost7.tcpApp[0]</text>
<text font-size="11" x="244" y="386" clip-path="url(#clipPath3)" stroke="none" xml:space="preserve">Tree.standardHost8.tcpApp[0]</text>
<text font-size="11" x="270" y="386" clip-path="url(#clipPath3)" stroke="none" xml:space="preserve">Tree.standardHost9.tcpApp[0]</text>
<text font-size="11" x="296" y="386" clip-path="url(#clipPath3)" stroke="none" xml:space="preserve">Tree.standardHost10.tcpApp[0]</text>
<text font-size="11" x="322" y="386" clip-path="url(#clipPath3)" stroke="none" xml:space="preserve">Tree.standardHost11.tcpApp[0]</text>
<text font-size="11" x="348" y="386" clip-path="url(#clipPath3)" stroke="none" xml:space="preserve">Tree.standardHost12.tcpApp[0]</text>
<text font-size="11" x="374" y="386" clip-path="url(#clipPath3)" stroke="none" xml:space="preserve">Tree.standardHost13.tcpApp[0]</text>
<text font-size="11" x="400" y="386" clip-path="url(#clipPath3)" stroke="none" xml:space="preserve">Tree.standardHost14.tcpApp[0]</text>
<text font-size="11" x="426" y="386" clip-path="url(#clipPath3)" stroke="none" xml:space="preserve">Tree.standardHost15.tcpApp[0]</text>
<text font-size="11" x="452" y="386" clip-path="url(#clipPath3)" stroke="none" xml:space="preserve">Tree.standardHost16.tcpApp[0]</text>
<text font-size="11" x="478" y="386" clip-path="url(#clipPath3)" stroke="none" xml:space="preserve">Tree.standardHost17.tcpApp[0]</text>
<text font-size="11" x="504" y="386" clip-path="url(#clipPath3)" stroke="none" xml:space="preserve">Tree.standardHost18.tcpApp[0]</text>
<text font-size="11" x="530" y="386" clip-path="url(#clipPath3)" stroke="none" xml:space="preserve">Tree.standardHost19.tcpApp[0]</text>
<text font-size="11" x="556" y="386" clip-path="url(#clipPath3)" stroke="none" xml:space="preserve">Tree.standardHost20.tcpApp[0]</text>
<text font-size="11" x="582" y="386" clip-path="url(#clipPath3)" stroke="none" xml:space="preserve">Tree.standardHost21.tcpApp[0]</text>
<text font-size="11" x="609" y="386" clip-path="url(#clipPath3)" stroke="none" xml:space="preserve">Tree.standardHost22.tcpApp[0]</text>
<text font-size="11" x="635" y="386" clip-path="url(#clipPath3)" stroke="none" xml:space="preserve">Tree.standardHost23.tcpApp[0]</text>
<text font-size="11" x="661" y="386" clip-path="url(#clipPath3)" stroke="none" xml:space="preserve">Tree.standardHost24.tcpApp[0]</text>
<text font-size="11" x="687" y="386" clip-path="url(#clipPath3)" stroke="none" xml:space="preserve">Tree.standardHost25.tcpApp[0]</text>
<text font-size="11" x="713" y="386" clip-path="url(#clipPath3)" stroke="none" xml:space="preserve">Tree.standardHost26.tcpApp[0]</text>
<text font-size="11" x="739" y="386" clip-path="url(#clipPath3)" stroke="none" xml:space="preserve">Tree.standardHost27.tcpApp[0]</text>
<text font-size="11" x="765" y="386" clip-path="url(#clipPath3)" stroke="none" xml:space="preserve">Tree.standardHost28.tcpApp[0]</text>
<text font-size="11" x="791" y="386" clip-path="url(#clipPath3)" stroke="none" xml:space="preserve">Tree.standardHost29.tcpApp[0]</text>
<text font-size="11" x="817" y="386" clip-path="url(#clipPath3)" stroke="none" xml:space="preserve">Tree.standardHost30.tcpApp[0]</text>
<text font-size="11" x="843" y="386" clip-path="url(#clipPath3)" stroke="none" xml:space="preserve">Tree.standardHost31.tcpApp[0]</text>
<text font-size="11" x="869" y="386" clip-path="url(#clipPath3)" stroke="none" xml:space="preserve">Tree.standardHost32.tcpApp[0]</text>
<text font-size="11" x="895" y="386" clip-path="url(#clipPath3)" stroke="none" xml:space="preserve">Tree.standardHost33.tcpApp[0]</text>
<text font-size="11" x="921" y="386" clip-path="url(#clipPath3)" stroke="none" xml:space="preserve">Tree.standardHost34.tcpApp[0]</text>
<text font-size="11" x="947" y="386" clip-path="url(#clipPath3)" stroke="none" xml:space="preserve">Tree.standardHost35.tcpApp[0]</text>
<text font-size="11" x="973" y="386" clip-path="url(#clipPath3)" stroke="none" xml:space="preserve">Tree.standardHost36.tcpApp[0]</text>
<text font-size="11" x="999" y="386" clip-path="url(#clipPath3)" stroke="none" xml:space="preserve">Tree.standardHost37.tcpApp[0]</text>
<text font-size="11" x="1025" y="386" clip-path="url(#clipPath3)" stroke="none" xml:space="preserve">Tree.standardHost38.tcpApp[0]</text>
<text font-size="11" x="1052" y="386" clip-path="url(#clipPath3)" stroke="none" xml:space="preserve">Tree.standardHost39.tcpApp[0]</text>
<text font-size="11" x="1078" y="386" clip-path="url(#clipPath3)" stroke="none" xml:space="preserve">Tree.standardHost40.tcpApp[0]</text>
<text font-size="11" x="1104" y="386" clip-path="url(#clipPath3)" stroke="none" xml:space="preserve">Tree.standardHost41.tcpApp[0]</text>
<text font-size="11" x="1130" y="386" clip-path="url(#clipPath3)" stroke="none" xml:space="preserve">Tree.standardHost42.tcpApp[0]</text>
<text font-size="11" x="1156" y="386" clip-path="url(#clipPath3)" stroke="none" xml:space="preserve">Tree.standardHost43.tcpApp[0]</text>
<text font-size="11" x="1182" y="386" clip-path="url(#clipPath3)" stroke="none" xml:space="preserve">Tree.standardHost44.tcpApp[0]</text>
</g>
</g>
</svg>
