<?xml version="1.0" encoding="UTF-8"?><svg xmlns="http://www.w3.org/2000/svg" xmlns:xlink="http://www.w3.org/1999/xlink" stroke-dasharray="none" shape-rendering="auto" font-family="'Dialog'" width="1303" text-rendering="auto" fill-opacity="1" contentScriptType="text/ecmascript" color-interpolation="auto" color-rendering="auto" preserveAspectRatio="xMidYMid meet" font-size="12" fill="black" stroke="black" image-rendering="auto" stroke-miterlimit="10" zoomAndPan="magnify" version="1.0" stroke-linecap="square" stroke-linejoin="miter" contentStyleType="text/css" font-style="normal" height="476" stroke-width="1" stroke-dashoffset="0" font-weight="normal" stroke-opacity="1">
<!--Generated by the Batik Graphics2D SVG Generator-->
<defs id="genericDefs"/>
<g>
<defs id="defs1">
<clipPath clipPathUnits="userSpaceOnUse" id="clipPath1">
<path d="M28 24 L1275 24 L1275 357 L28 357 L28 24 Z"/>
</clipPath>
<clipPath clipPathUnits="userSpaceOnUse" id="clipPath2">
<path d="M-1 -1 L1304 -1 L1304 477 L-1 477 L-1 -1 Z"/>
</clipPath>
<clipPath clipPathUnits="userSpaceOnUse" id="clipPath3">
<path d="M28 355 L1275 355 L1275 477 L28 477 L28 355 Z"/>
</clipPath>
</defs>
<g fill="white" text-rendering="geometricPrecision" font-family="'Ubuntu'" stroke-linejoin="round" stroke="white" stroke-width="0" stroke-miterlimit="0">
<rect x="29" y="25" clip-path="url(#clipPath1)" width="1245" height="331" stroke="none"/>
</g>
<g stroke-linecap="butt" fill="rgb(204,204,204)" text-rendering="geometricPrecision" font-family="'Ubuntu'" stroke-dasharray="3,3" stroke="rgb(204,204,204)">
<line clip-path="url(#clipPath1)" fill="none" x1="29" x2="1274" y1="356" y2="356"/>
<line clip-path="url(#clipPath1)" fill="none" x1="29" x2="1274" y1="286" y2="286"/>
<line clip-path="url(#clipPath1)" fill="none" x1="29" x2="1274" y1="217" y2="217"/>
<line clip-path="url(#clipPath1)" fill="none" x1="29" x2="1274" y1="148" y2="148"/>
<line clip-path="url(#clipPath1)" fill="none" x1="29" x2="1274" y1="79" y2="79"/>
<rect x="1230" y="355" clip-path="url(#clipPath1)" fill="rgb(0,0,139)" width="21" height="1" stroke="none"/>
<rect x="1202" y="355" clip-path="url(#clipPath1)" fill="rgb(0,0,139)" width="21" height="1" stroke="none"/>
<rect x="1175" y="355" clip-path="url(#clipPath1)" fill="rgb(0,0,139)" width="21" height="1" stroke="none"/>
<rect x="1147" y="355" clip-path="url(#clipPath1)" fill="rgb(0,0,139)" width="21" height="1" stroke="none"/>
<rect x="1120" y="355" clip-path="url(#clipPath1)" fill="rgb(0,0,139)" width="21" height="1" stroke="none"/>
<rect x="1093" y="355" clip-path="url(#clipPath1)" fill="rgb(0,0,139)" width="21" height="1" stroke="none"/>
<rect x="1065" y="355" clip-path="url(#clipPath1)" fill="rgb(0,0,139)" width="21" height="1" stroke="none"/>
<rect x="1038" y="355" clip-path="url(#clipPath1)" fill="rgb(0,0,139)" width="21" height="1" stroke="none"/>
<rect x="1010" y="355" clip-path="url(#clipPath1)" fill="rgb(0,0,139)" width="21" height="1" stroke="none"/>
<rect x="983" y="355" clip-path="url(#clipPath1)" fill="rgb(0,0,139)" width="21" height="1" stroke="none"/>
<rect x="955" y="355" clip-path="url(#clipPath1)" fill="rgb(0,0,139)" width="21" height="1" stroke="none"/>
<rect x="928" y="355" clip-path="url(#clipPath1)" fill="rgb(0,0,139)" width="21" height="1" stroke="none"/>
<rect x="901" y="355" clip-path="url(#clipPath1)" fill="rgb(0,0,139)" width="21" height="1" stroke="none"/>
<rect x="873" y="355" clip-path="url(#clipPath1)" fill="rgb(0,0,139)" width="21" height="1" stroke="none"/>
<rect x="846" y="355" clip-path="url(#clipPath1)" fill="rgb(0,0,139)" width="21" height="1" stroke="none"/>
<rect x="818" y="355" clip-path="url(#clipPath1)" fill="rgb(0,0,139)" width="21" height="1" stroke="none"/>
<rect x="791" y="355" clip-path="url(#clipPath1)" fill="rgb(0,0,139)" width="21" height="1" stroke="none"/>
<rect x="763" y="355" clip-path="url(#clipPath1)" fill="rgb(0,0,139)" width="21" height="1" stroke="none"/>
<rect x="736" y="355" clip-path="url(#clipPath1)" fill="rgb(0,0,139)" width="21" height="1" stroke="none"/>
<rect x="709" y="355" clip-path="url(#clipPath1)" fill="rgb(0,0,139)" width="21" height="1" stroke="none"/>
<rect x="681" y="355" clip-path="url(#clipPath1)" fill="rgb(0,0,139)" width="21" height="1" stroke="none"/>
<rect x="654" y="143" clip-path="url(#clipPath1)" fill="rgb(0,0,139)" width="21" height="212" stroke="none"/>
<rect x="654" y="143" clip-path="url(#clipPath1)" fill="none" width="21" stroke-dasharray="none" height="212"/>
<rect x="626" y="169" clip-path="url(#clipPath1)" fill="rgb(0,0,139)" width="21" stroke-dasharray="none" height="186" stroke="none"/>
<rect x="626" y="169" clip-path="url(#clipPath1)" fill="none" width="21" stroke-dasharray="none" height="186"/>
<rect x="599" y="55" clip-path="url(#clipPath1)" fill="rgb(0,0,139)" width="21" stroke-dasharray="none" height="300" stroke="none"/>
<rect x="599" y="55" clip-path="url(#clipPath1)" fill="none" width="21" stroke-dasharray="none" height="300"/>
<rect x="571" y="118" clip-path="url(#clipPath1)" fill="rgb(0,0,139)" width="21" stroke-dasharray="none" height="237" stroke="none"/>
<rect x="571" y="118" clip-path="url(#clipPath1)" fill="none" width="21" stroke-dasharray="none" height="237"/>
<rect x="544" y="321" clip-path="url(#clipPath1)" fill="rgb(0,0,139)" width="21" stroke-dasharray="none" height="34" stroke="none"/>
<rect x="544" y="321" clip-path="url(#clipPath1)" fill="none" width="21" stroke-dasharray="none" height="34"/>
<rect x="517" y="321" clip-path="url(#clipPath1)" fill="rgb(0,0,139)" width="21" stroke-dasharray="none" height="34" stroke="none"/>
<rect x="517" y="321" clip-path="url(#clipPath1)" fill="none" width="21" stroke-dasharray="none" height="34"/>
<rect x="489" y="321" clip-path="url(#clipPath1)" fill="rgb(0,0,139)" width="21" stroke-dasharray="none" height="34" stroke="none"/>
<rect x="489" y="321" clip-path="url(#clipPath1)" fill="none" width="21" stroke-dasharray="none" height="34"/>
<rect x="462" y="321" clip-path="url(#clipPath1)" fill="rgb(0,0,139)" width="21" stroke-dasharray="none" height="34" stroke="none"/>
<rect x="462" y="321" clip-path="url(#clipPath1)" fill="none" width="21" stroke-dasharray="none" height="34"/>
<rect x="434" y="321" clip-path="url(#clipPath1)" fill="rgb(0,0,139)" width="21" stroke-dasharray="none" height="34" stroke="none"/>
<rect x="434" y="321" clip-path="url(#clipPath1)" fill="none" width="21" stroke-dasharray="none" height="34"/>
<rect x="407" y="321" clip-path="url(#clipPath1)" fill="rgb(0,0,139)" width="21" stroke-dasharray="none" height="34" stroke="none"/>
<rect x="407" y="321" clip-path="url(#clipPath1)" fill="none" width="21" stroke-dasharray="none" height="34"/>
<rect x="380" y="321" clip-path="url(#clipPath1)" fill="rgb(0,0,139)" width="21" stroke-dasharray="none" height="34" stroke="none"/>
<rect x="380" y="321" clip-path="url(#clipPath1)" fill="none" width="21" stroke-dasharray="none" height="34"/>
<rect x="352" y="88" clip-path="url(#clipPath1)" fill="rgb(0,0,139)" width="21" stroke-dasharray="none" height="267" stroke="none"/>
<rect x="352" y="88" clip-path="url(#clipPath1)" fill="none" width="21" stroke-dasharray="none" height="267"/>
<rect x="325" y="321" clip-path="url(#clipPath1)" fill="rgb(0,0,139)" width="21" stroke-dasharray="none" height="34" stroke="none"/>
<rect x="325" y="321" clip-path="url(#clipPath1)" fill="none" width="21" stroke-dasharray="none" height="34"/>
<rect x="297" y="321" clip-path="url(#clipPath1)" fill="rgb(0,0,139)" width="21" stroke-dasharray="none" height="34" stroke="none"/>
<rect x="297" y="321" clip-path="url(#clipPath1)" fill="none" width="21" stroke-dasharray="none" height="34"/>
<rect x="270" y="321" clip-path="url(#clipPath1)" fill="rgb(0,0,139)" width="21" stroke-dasharray="none" height="34" stroke="none"/>
<rect x="270" y="321" clip-path="url(#clipPath1)" fill="none" width="21" stroke-dasharray="none" height="34"/>
<rect x="242" y="321" clip-path="url(#clipPath1)" fill="rgb(0,0,139)" width="21" stroke-dasharray="none" height="34" stroke="none"/>
<rect x="242" y="321" clip-path="url(#clipPath1)" fill="none" width="21" stroke-dasharray="none" height="34"/>
<rect x="215" y="321" clip-path="url(#clipPath1)" fill="rgb(0,0,139)" width="21" stroke-dasharray="none" height="34" stroke="none"/>
<rect x="215" y="321" clip-path="url(#clipPath1)" fill="none" width="21" stroke-dasharray="none" height="34"/>
<rect x="188" y="321" clip-path="url(#clipPath1)" fill="rgb(0,0,139)" width="21" stroke-dasharray="none" height="34" stroke="none"/>
<rect x="188" y="321" clip-path="url(#clipPath1)" fill="none" width="21" stroke-dasharray="none" height="34"/>
<rect x="160" y="321" clip-path="url(#clipPath1)" fill="rgb(0,0,139)" width="21" stroke-dasharray="none" height="34" stroke="none"/>
<rect x="160" y="321" clip-path="url(#clipPath1)" fill="none" width="21" stroke-dasharray="none" height="34"/>
<rect x="133" y="321" clip-path="url(#clipPath1)" fill="rgb(0,0,139)" width="21" stroke-dasharray="none" height="34" stroke="none"/>
<rect x="133" y="321" clip-path="url(#clipPath1)" fill="none" width="21" stroke-dasharray="none" height="34"/>
<rect x="105" y="321" clip-path="url(#clipPath1)" fill="rgb(0,0,139)" width="21" stroke-dasharray="none" height="34" stroke="none"/>
<rect x="105" y="321" clip-path="url(#clipPath1)" fill="none" width="21" stroke-dasharray="none" height="34"/>
<rect x="78" y="321" clip-path="url(#clipPath1)" fill="rgb(0,0,139)" width="21" stroke-dasharray="none" height="34" stroke="none"/>
<rect x="78" y="321" clip-path="url(#clipPath1)" fill="none" width="21" stroke-dasharray="none" height="34"/>
<rect x="50" y="321" clip-path="url(#clipPath1)" fill="rgb(0,0,139)" width="21" stroke-dasharray="none" height="34" stroke="none"/>
<rect x="50" y="321" clip-path="url(#clipPath1)" fill="none" width="21" stroke-dasharray="none" height="34"/>
<rect x="29" y="25" clip-path="url(#clipPath2)" fill="none" width="1245" stroke-dasharray="none" height="331" stroke="black"/>
<line clip-path="url(#clipPath2)" fill="none" x1="30" x2="1273" y1="356" y2="356" stroke-dasharray="none"/>
</g>
<g text-rendering="geometricPrecision" font-size="13" font-family="'Arial'" stroke-linecap="butt">
<text xml:space="preserve" x="612" y="12" clip-path="url(#clipPath2)" stroke="none">Potovalni čas</text>
<line clip-path="url(#clipPath2)" fill="none" x1="27" x2="27" y1="25" y2="356"/>
<line clip-path="url(#clipPath2)" fill="none" x1="1276" x2="1276" y1="25" y2="356"/>
<line clip-path="url(#clipPath2)" fill="none" x1="23" x2="27" y1="356" y2="356"/>
<line clip-path="url(#clipPath2)" fill="none" x1="1280" x2="1276" y1="356" y2="356"/>
<text font-size="11" x="17" y="360" clip-path="url(#clipPath2)" stroke="none" xml:space="preserve">0</text>
<text font-size="11" x="1283" y="360" clip-path="url(#clipPath2)" stroke="none" xml:space="preserve">0</text>
<line clip-path="url(#clipPath2)" fill="none" x1="25" x2="27" y1="321" y2="321"/>
<line clip-path="url(#clipPath2)" fill="none" x1="1278" x2="1276" y1="321" y2="321"/>
<line clip-path="url(#clipPath2)" fill="none" x1="23" x2="27" y1="286" y2="286"/>
<line clip-path="url(#clipPath2)" fill="none" x1="1280" x2="1276" y1="286" y2="286"/>
<text font-size="11" x="7" y="290" clip-path="url(#clipPath2)" stroke="none" xml:space="preserve">0.2</text>
<text font-size="11" x="1283" y="290" clip-path="url(#clipPath2)" stroke="none" xml:space="preserve">0.2</text>
<line clip-path="url(#clipPath2)" fill="none" x1="25" x2="27" y1="252" y2="252"/>
<line clip-path="url(#clipPath2)" fill="none" x1="1278" x2="1276" y1="252" y2="252"/>
<line clip-path="url(#clipPath2)" fill="none" x1="23" x2="27" y1="217" y2="217"/>
<line clip-path="url(#clipPath2)" fill="none" x1="1280" x2="1276" y1="217" y2="217"/>
<text font-size="11" x="7" y="221" clip-path="url(#clipPath2)" stroke="none" xml:space="preserve">0.4</text>
<text font-size="11" x="1283" y="221" clip-path="url(#clipPath2)" stroke="none" xml:space="preserve">0.4</text>
<line clip-path="url(#clipPath2)" fill="none" x1="25" x2="27" y1="183" y2="183"/>
<line clip-path="url(#clipPath2)" fill="none" x1="1278" x2="1276" y1="183" y2="183"/>
<line clip-path="url(#clipPath2)" fill="none" x1="23" x2="27" y1="148" y2="148"/>
<line clip-path="url(#clipPath2)" fill="none" x1="1280" x2="1276" y1="148" y2="148"/>
<text font-size="11" x="7" y="152" clip-path="url(#clipPath2)" stroke="none" xml:space="preserve">0.6</text>
<text font-size="11" x="1283" y="152" clip-path="url(#clipPath2)" stroke="none" xml:space="preserve">0.6</text>
<line clip-path="url(#clipPath2)" fill="none" x1="25" x2="27" y1="113" y2="113"/>
<line clip-path="url(#clipPath2)" fill="none" x1="1278" x2="1276" y1="113" y2="113"/>
<line clip-path="url(#clipPath2)" fill="none" x1="23" x2="27" y1="79" y2="79"/>
<line clip-path="url(#clipPath2)" fill="none" x1="1280" x2="1276" y1="79" y2="79"/>
<text font-size="11" x="7" y="83" clip-path="url(#clipPath2)" stroke="none" xml:space="preserve">0.8</text>
<text font-size="11" x="1283" y="83" clip-path="url(#clipPath2)" stroke="none" xml:space="preserve">0.8</text>
<line clip-path="url(#clipPath2)" fill="none" x1="25" x2="27" y1="44" y2="44"/>
<line clip-path="url(#clipPath2)" fill="none" x1="1278" x2="1276" y1="44" y2="44"/>
<line clip-path="url(#clipPath3)" fill="none" x1="50" x2="71" y1="360" y2="360"/>
<line clip-path="url(#clipPath3)" fill="none" x1="78" x2="99" y1="360" y2="360"/>
<line clip-path="url(#clipPath3)" fill="none" x1="105" x2="126" y1="360" y2="360"/>
<line clip-path="url(#clipPath3)" fill="none" x1="133" x2="154" y1="360" y2="360"/>
<line clip-path="url(#clipPath3)" fill="none" x1="160" x2="181" y1="360" y2="360"/>
<line clip-path="url(#clipPath3)" fill="none" x1="188" x2="209" y1="360" y2="360"/>
<line clip-path="url(#clipPath3)" fill="none" x1="215" x2="236" y1="360" y2="360"/>
<line clip-path="url(#clipPath3)" fill="none" x1="242" x2="263" y1="360" y2="360"/>
<line clip-path="url(#clipPath3)" fill="none" x1="270" x2="291" y1="360" y2="360"/>
<line clip-path="url(#clipPath3)" fill="none" x1="297" x2="318" y1="360" y2="360"/>
<line clip-path="url(#clipPath3)" fill="none" x1="325" x2="346" y1="360" y2="360"/>
<line clip-path="url(#clipPath3)" fill="none" x1="352" x2="373" y1="360" y2="360"/>
<line clip-path="url(#clipPath3)" fill="none" x1="380" x2="401" y1="360" y2="360"/>
<line clip-path="url(#clipPath3)" fill="none" x1="407" x2="428" y1="360" y2="360"/>
<line clip-path="url(#clipPath3)" fill="none" x1="434" x2="455" y1="360" y2="360"/>
<line clip-path="url(#clipPath3)" fill="none" x1="462" x2="483" y1="360" y2="360"/>
<line clip-path="url(#clipPath3)" fill="none" x1="489" x2="510" y1="360" y2="360"/>
<line clip-path="url(#clipPath3)" fill="none" x1="517" x2="538" y1="360" y2="360"/>
<line clip-path="url(#clipPath3)" fill="none" x1="544" x2="565" y1="360" y2="360"/>
<line clip-path="url(#clipPath3)" fill="none" x1="571" x2="592" y1="360" y2="360"/>
<line clip-path="url(#clipPath3)" fill="none" x1="599" x2="620" y1="360" y2="360"/>
<line clip-path="url(#clipPath3)" fill="none" x1="626" x2="647" y1="360" y2="360"/>
<line clip-path="url(#clipPath3)" fill="none" x1="654" x2="675" y1="360" y2="360"/>
<line clip-path="url(#clipPath3)" fill="none" x1="681" x2="702" y1="360" y2="360"/>
<line clip-path="url(#clipPath3)" fill="none" x1="709" x2="730" y1="360" y2="360"/>
<line clip-path="url(#clipPath3)" fill="none" x1="736" x2="757" y1="360" y2="360"/>
<line clip-path="url(#clipPath3)" fill="none" x1="763" x2="784" y1="360" y2="360"/>
<line clip-path="url(#clipPath3)" fill="none" x1="791" x2="812" y1="360" y2="360"/>
<line clip-path="url(#clipPath3)" fill="none" x1="818" x2="839" y1="360" y2="360"/>
<line clip-path="url(#clipPath3)" fill="none" x1="846" x2="867" y1="360" y2="360"/>
<line clip-path="url(#clipPath3)" fill="none" x1="873" x2="894" y1="360" y2="360"/>
<line clip-path="url(#clipPath3)" fill="none" x1="901" x2="922" y1="360" y2="360"/>
<line clip-path="url(#clipPath3)" fill="none" x1="928" x2="949" y1="360" y2="360"/>
<line clip-path="url(#clipPath3)" fill="none" x1="955" x2="976" y1="360" y2="360"/>
<line clip-path="url(#clipPath3)" fill="none" x1="983" x2="1004" y1="360" y2="360"/>
<line clip-path="url(#clipPath3)" fill="none" x1="1010" x2="1031" y1="360" y2="360"/>
<line clip-path="url(#clipPath3)" fill="none" x1="1038" x2="1059" y1="360" y2="360"/>
<line clip-path="url(#clipPath3)" fill="none" x1="1065" x2="1086" y1="360" y2="360"/>
<line clip-path="url(#clipPath3)" fill="none" x1="1093" x2="1114" y1="360" y2="360"/>
<line clip-path="url(#clipPath3)" fill="none" x1="1120" x2="1141" y1="360" y2="360"/>
<line clip-path="url(#clipPath3)" fill="none" x1="1147" x2="1168" y1="360" y2="360"/>
<line clip-path="url(#clipPath3)" fill="none" x1="1175" x2="1196" y1="360" y2="360"/>
<line clip-path="url(#clipPath3)" fill="none" x1="1202" x2="1223" y1="360" y2="360"/>
<line clip-path="url(#clipPath3)" fill="none" x1="1230" x2="1251" y1="360" y2="360"/>
<text font-size="11" x="50" y="377" clip-path="url(#clipPath3)" stroke="none" xml:space="preserve">Tree.standardHost1.tcpApp[0]</text>
<text font-size="11" x="78" y="377" clip-path="url(#clipPath3)" stroke="none" xml:space="preserve">Tree.standardHost2.tcpApp[0]</text>
<text font-size="11" x="105" y="377" clip-path="url(#clipPath3)" stroke="none" xml:space="preserve">Tree.standardHost3.tcpApp[0]</text>
<text font-size="11" x="133" y="377" clip-path="url(#clipPath3)" stroke="none" xml:space="preserve">Tree.standardHost4.tcpApp[0]</text>
<text font-size="11" x="160" y="377" clip-path="url(#clipPath3)" stroke="none" xml:space="preserve">Tree.standardHost5.tcpApp[0]</text>
<text font-size="11" x="188" y="377" clip-path="url(#clipPath3)" stroke="none" xml:space="preserve">Tree.standardHost6.tcpApp[0]</text>
<text font-size="11" x="215" y="377" clip-path="url(#clipPath3)" stroke="none" xml:space="preserve">Tree.standardHost7.tcpApp[0]</text>
<text font-size="11" x="242" y="377" clip-path="url(#clipPath3)" stroke="none" xml:space="preserve">Tree.standardHost8.tcpApp[0]</text>
<text font-size="11" x="270" y="377" clip-path="url(#clipPath3)" stroke="none" xml:space="preserve">Tree.standardHost9.tcpApp[0]</text>
<text font-size="11" x="297" y="371" clip-path="url(#clipPath3)" stroke="none" xml:space="preserve">Tree.standardHost10.tcpApp[0]</text>
<text font-size="11" x="325" y="371" clip-path="url(#clipPath3)" stroke="none" xml:space="preserve">Tree.standardHost11.tcpApp[0]</text>
<text font-size="11" x="352" y="371" clip-path="url(#clipPath3)" stroke="none" xml:space="preserve">Tree.standardHost12.tcpApp[0]</text>
<text font-size="11" x="380" y="371" clip-path="url(#clipPath3)" stroke="none" xml:space="preserve">Tree.standardHost13.tcpApp[0]</text>
<text font-size="11" x="407" y="371" clip-path="url(#clipPath3)" stroke="none" xml:space="preserve">Tree.standardHost14.tcpApp[0]</text>
<text font-size="11" x="434" y="371" clip-path="url(#clipPath3)" stroke="none" xml:space="preserve">Tree.standardHost15.tcpApp[0]</text>
<text font-size="11" x="462" y="371" clip-path="url(#clipPath3)" stroke="none" xml:space="preserve">Tree.standardHost16.tcpApp[0]</text>
<text font-size="11" x="489" y="371" clip-path="url(#clipPath3)" stroke="none" xml:space="preserve">Tree.standardHost17.tcpApp[0]</text>
<text font-size="11" x="517" y="371" clip-path="url(#clipPath3)" stroke="none" xml:space="preserve">Tree.standardHost18.tcpApp[0]</text>
<text font-size="11" x="544" y="371" clip-path="url(#clipPath3)" stroke="none" xml:space="preserve">Tree.standardHost19.tcpApp[0]</text>
<text font-size="11" x="571" y="371" clip-path="url(#clipPath3)" stroke="none" xml:space="preserve">Tree.standardHost20.tcpApp[0]</text>
<text font-size="11" x="599" y="371" clip-path="url(#clipPath3)" stroke="none" xml:space="preserve">Tree.standardHost21.tcpApp[0]</text>
<text font-size="11" x="626" y="371" clip-path="url(#clipPath3)" stroke="none" xml:space="preserve">Tree.standardHost22.tcpApp[0]</text>
<text font-size="11" x="654" y="371" clip-path="url(#clipPath3)" stroke="none" xml:space="preserve">Tree.standardHost23.tcpApp[0]</text>
<text font-size="11" x="681" y="371" clip-path="url(#clipPath3)" stroke="none" xml:space="preserve">Tree.standardHost24.tcpApp[0]</text>
<text font-size="11" x="709" y="371" clip-path="url(#clipPath3)" stroke="none" xml:space="preserve">Tree.standardHost25.tcpApp[0]</text>
<text font-size="11" x="736" y="371" clip-path="url(#clipPath3)" stroke="none" xml:space="preserve">Tree.standardHost26.tcpApp[0]</text>
<text font-size="11" x="763" y="371" clip-path="url(#clipPath3)" stroke="none" xml:space="preserve">Tree.standardHost27.tcpApp[0]</text>
<text font-size="11" x="791" y="371" clip-path="url(#clipPath3)" stroke="none" xml:space="preserve">Tree.standardHost28.tcpApp[0]</text>
<text font-size="11" x="818" y="371" clip-path="url(#clipPath3)" stroke="none" xml:space="preserve">Tree.standardHost29.tcpApp[0]</text>
<text font-size="11" x="846" y="371" clip-path="url(#clipPath3)" stroke="none" xml:space="preserve">Tree.standardHost30.tcpApp[0]</text>
<text font-size="11" x="873" y="371" clip-path="url(#clipPath3)" stroke="none" xml:space="preserve">Tree.standardHost31.tcpApp[0]</text>
<text font-size="11" x="901" y="371" clip-path="url(#clipPath3)" stroke="none" xml:space="preserve">Tree.standardHost32.tcpApp[0]</text>
<text font-size="11" x="928" y="371" clip-path="url(#clipPath3)" stroke="none" xml:space="preserve">Tree.standardHost33.tcpApp[0]</text>
<text font-size="11" x="955" y="371" clip-path="url(#clipPath3)" stroke="none" xml:space="preserve">Tree.standardHost34.tcpApp[0]</text>
<text font-size="11" x="983" y="371" clip-path="url(#clipPath3)" stroke="none" xml:space="preserve">Tree.standardHost35.tcpApp[0]</text>
<text font-size="11" x="1010" y="371" clip-path="url(#clipPath3)" stroke="none" xml:space="preserve">Tree.standardHost36.tcpApp[0]</text>
<text font-size="11" x="1038" y="371" clip-path="url(#clipPath3)" stroke="none" xml:space="preserve">Tree.standardHost37.tcpApp[0]</text>
<text font-size="11" x="1065" y="371" clip-path="url(#clipPath3)" stroke="none" xml:space="preserve">Tree.standardHost38.tcpApp[0]</text>
<text font-size="11" x="1093" y="371" clip-path="url(#clipPath3)" stroke="none" xml:space="preserve">Tree.standardHost39.tcpApp[0]</text>
<text font-size="11" x="1120" y="371" clip-path="url(#clipPath3)" stroke="none" xml:space="preserve">Tree.standardHost40.tcpApp[0]</text>
<text font-size="11" x="1147" y="371" clip-path="url(#clipPath3)" stroke="none" xml:space="preserve">Tree.standardHost41.tcpApp[0]</text>
<text font-size="11" x="1175" y="371" clip-path="url(#clipPath3)" stroke="none" xml:space="preserve">Tree.standardHost42.tcpApp[0]</text>
<text font-size="11" x="1202" y="371" clip-path="url(#clipPath3)" stroke="none" xml:space="preserve">Tree.standardHost43.tcpApp[0]</text>
<text font-size="11" x="1230" y="371" clip-path="url(#clipPath3)" stroke="none" xml:space="preserve">Tree.standardHost44.tcpApp[0]</text>
</g>
</g>
</svg>
