<?xml version="1.0" encoding="UTF-8"?><svg xmlns="http://www.w3.org/2000/svg" xmlns:xlink="http://www.w3.org/1999/xlink" stroke-dasharray="none" shape-rendering="auto" font-family="'Dialog'" width="1184" text-rendering="auto" fill-opacity="1" contentScriptType="text/ecmascript" color-interpolation="auto" color-rendering="auto" preserveAspectRatio="xMidYMid meet" font-size="12" fill="black" stroke="black" image-rendering="auto" stroke-miterlimit="10" zoomAndPan="magnify" version="1.0" stroke-linecap="square" stroke-linejoin="miter" contentStyleType="text/css" font-style="normal" height="814" stroke-width="1" stroke-dashoffset="0" font-weight="normal" stroke-opacity="1">
<!--Generated by the Batik Graphics2D SVG Generator-->
<defs id="genericDefs"/>
<g>
<defs id="defs1">
<clipPath clipPathUnits="userSpaceOnUse" id="clipPath1">
<path d="M40 25 L1144 25 L1144 677 L40 677 L40 25 Z"/>
</clipPath>
<clipPath clipPathUnits="userSpaceOnUse" id="clipPath2">
<path d="M-1 -1 L1185 -1 L1185 815 L-1 815 L-1 -1 Z"/>
</clipPath>
<clipPath clipPathUnits="userSpaceOnUse" id="clipPath3">
<path d="M40 675 L1144 675 L1144 815 L40 815 L40 675 Z"/>
</clipPath>
</defs>
<g fill="white" text-rendering="geometricPrecision" font-family="'Segoe UI'" stroke-linejoin="round" stroke="white" stroke-width="0" stroke-miterlimit="0">
<rect x="41" y="26" clip-path="url(#clipPath1)" width="1102" height="650" stroke="none"/>
</g>
<g stroke-linecap="butt" fill="rgb(204,204,204)" text-rendering="geometricPrecision" font-family="'Segoe UI'" stroke-dasharray="3,3" stroke="rgb(204,204,204)">
<line clip-path="url(#clipPath1)" fill="none" x1="41" x2="1143" y1="676" y2="676"/>
<line clip-path="url(#clipPath1)" fill="none" x1="41" x2="1143" y1="621" y2="621"/>
<line clip-path="url(#clipPath1)" fill="none" x1="41" x2="1143" y1="566" y2="566"/>
<line clip-path="url(#clipPath1)" fill="none" x1="41" x2="1143" y1="511" y2="511"/>
<line clip-path="url(#clipPath1)" fill="none" x1="41" x2="1143" y1="457" y2="457"/>
<line clip-path="url(#clipPath1)" fill="none" x1="41" x2="1143" y1="402" y2="402"/>
<line clip-path="url(#clipPath1)" fill="none" x1="41" x2="1143" y1="347" y2="347"/>
<line clip-path="url(#clipPath1)" fill="none" x1="41" x2="1143" y1="293" y2="293"/>
<line clip-path="url(#clipPath1)" fill="none" x1="41" x2="1143" y1="238" y2="238"/>
<line clip-path="url(#clipPath1)" fill="none" x1="41" x2="1143" y1="183" y2="183"/>
<line clip-path="url(#clipPath1)" fill="none" x1="41" x2="1143" y1="128" y2="128"/>
<line clip-path="url(#clipPath1)" fill="none" x1="41" x2="1143" y1="74" y2="74"/>
<rect x="1104" y="675" clip-path="url(#clipPath1)" fill="rgb(0,0,139)" width="19" height="1" stroke="none"/>
<rect x="1079" y="675" clip-path="url(#clipPath1)" fill="rgb(0,0,139)" width="19" height="1" stroke="none"/>
<rect x="1055" y="675" clip-path="url(#clipPath1)" fill="rgb(0,0,139)" width="19" height="1" stroke="none"/>
<rect x="1031" y="675" clip-path="url(#clipPath1)" fill="rgb(0,0,139)" width="19" height="1" stroke="none"/>
<rect x="1007" y="675" clip-path="url(#clipPath1)" fill="rgb(0,0,139)" width="19" height="1" stroke="none"/>
<rect x="982" y="675" clip-path="url(#clipPath1)" fill="rgb(0,0,139)" width="19" height="1" stroke="none"/>
<rect x="958" y="675" clip-path="url(#clipPath1)" fill="rgb(0,0,139)" width="19" height="1" stroke="none"/>
<rect x="934" y="675" clip-path="url(#clipPath1)" fill="rgb(0,0,139)" width="19" height="1" stroke="none"/>
<rect x="909" y="675" clip-path="url(#clipPath1)" fill="rgb(0,0,139)" width="19" height="1" stroke="none"/>
<rect x="885" y="675" clip-path="url(#clipPath1)" fill="rgb(0,0,139)" width="19" height="1" stroke="none"/>
<rect x="861" y="675" clip-path="url(#clipPath1)" fill="rgb(0,0,139)" width="19" height="1" stroke="none"/>
<rect x="837" y="675" clip-path="url(#clipPath1)" fill="rgb(0,0,139)" width="19" height="1" stroke="none"/>
<rect x="812" y="675" clip-path="url(#clipPath1)" fill="rgb(0,0,139)" width="19" height="1" stroke="none"/>
<rect x="788" y="675" clip-path="url(#clipPath1)" fill="rgb(0,0,139)" width="19" height="1" stroke="none"/>
<rect x="764" y="675" clip-path="url(#clipPath1)" fill="rgb(0,0,139)" width="19" height="1" stroke="none"/>
<rect x="740" y="675" clip-path="url(#clipPath1)" fill="rgb(0,0,139)" width="19" height="1" stroke="none"/>
<rect x="715" y="675" clip-path="url(#clipPath1)" fill="rgb(0,0,139)" width="19" height="1" stroke="none"/>
<rect x="691" y="675" clip-path="url(#clipPath1)" fill="rgb(0,0,139)" width="19" height="1" stroke="none"/>
<rect x="667" y="675" clip-path="url(#clipPath1)" fill="rgb(0,0,139)" width="19" height="1" stroke="none"/>
<rect x="642" y="675" clip-path="url(#clipPath1)" fill="rgb(0,0,139)" width="19" height="1" stroke="none"/>
<rect x="618" y="675" clip-path="url(#clipPath1)" fill="rgb(0,0,139)" width="19" height="1" stroke="none"/>
<rect x="594" y="101" clip-path="url(#clipPath1)" fill="rgb(0,0,139)" width="19" height="574" stroke="none"/>
<rect x="594" y="101" clip-path="url(#clipPath1)" fill="none" width="19" stroke-dasharray="none" height="574"/>
<rect x="570" y="85" clip-path="url(#clipPath1)" fill="rgb(0,0,139)" width="19" stroke-dasharray="none" height="590" stroke="none"/>
<rect x="570" y="85" clip-path="url(#clipPath1)" fill="none" width="19" stroke-dasharray="none" height="590"/>
<rect x="545" y="91" clip-path="url(#clipPath1)" fill="rgb(0,0,139)" width="19" stroke-dasharray="none" height="584" stroke="none"/>
<rect x="545" y="91" clip-path="url(#clipPath1)" fill="none" width="19" stroke-dasharray="none" height="584"/>
<rect x="521" y="93" clip-path="url(#clipPath1)" fill="rgb(0,0,139)" width="19" stroke-dasharray="none" height="582" stroke="none"/>
<rect x="521" y="93" clip-path="url(#clipPath1)" fill="none" width="19" stroke-dasharray="none" height="582"/>
<rect x="497" y="132" clip-path="url(#clipPath1)" fill="rgb(0,0,139)" width="19" stroke-dasharray="none" height="543" stroke="none"/>
<rect x="497" y="132" clip-path="url(#clipPath1)" fill="none" width="19" stroke-dasharray="none" height="543"/>
<rect x="473" y="132" clip-path="url(#clipPath1)" fill="rgb(0,0,139)" width="19" stroke-dasharray="none" height="543" stroke="none"/>
<rect x="473" y="132" clip-path="url(#clipPath1)" fill="none" width="19" stroke-dasharray="none" height="543"/>
<rect x="448" y="132" clip-path="url(#clipPath1)" fill="rgb(0,0,139)" width="19" stroke-dasharray="none" height="543" stroke="none"/>
<rect x="448" y="132" clip-path="url(#clipPath1)" fill="none" width="19" stroke-dasharray="none" height="543"/>
<rect x="424" y="132" clip-path="url(#clipPath1)" fill="rgb(0,0,139)" width="19" stroke-dasharray="none" height="543" stroke="none"/>
<rect x="424" y="132" clip-path="url(#clipPath1)" fill="none" width="19" stroke-dasharray="none" height="543"/>
<rect x="400" y="132" clip-path="url(#clipPath1)" fill="rgb(0,0,139)" width="19" stroke-dasharray="none" height="543" stroke="none"/>
<rect x="400" y="132" clip-path="url(#clipPath1)" fill="none" width="19" stroke-dasharray="none" height="543"/>
<rect x="375" y="132" clip-path="url(#clipPath1)" fill="rgb(0,0,139)" width="19" stroke-dasharray="none" height="543" stroke="none"/>
<rect x="375" y="132" clip-path="url(#clipPath1)" fill="none" width="19" stroke-dasharray="none" height="543"/>
<rect x="351" y="132" clip-path="url(#clipPath1)" fill="rgb(0,0,139)" width="19" stroke-dasharray="none" height="543" stroke="none"/>
<rect x="351" y="132" clip-path="url(#clipPath1)" fill="none" width="19" stroke-dasharray="none" height="543"/>
<rect x="327" y="132" clip-path="url(#clipPath1)" fill="rgb(0,0,139)" width="19" stroke-dasharray="none" height="543" stroke="none"/>
<rect x="327" y="132" clip-path="url(#clipPath1)" fill="none" width="19" stroke-dasharray="none" height="543"/>
<rect x="303" y="132" clip-path="url(#clipPath1)" fill="rgb(0,0,139)" width="19" stroke-dasharray="none" height="543" stroke="none"/>
<rect x="303" y="132" clip-path="url(#clipPath1)" fill="none" width="19" stroke-dasharray="none" height="543"/>
<rect x="278" y="132" clip-path="url(#clipPath1)" fill="rgb(0,0,139)" width="19" stroke-dasharray="none" height="543" stroke="none"/>
<rect x="278" y="132" clip-path="url(#clipPath1)" fill="none" width="19" stroke-dasharray="none" height="543"/>
<rect x="254" y="132" clip-path="url(#clipPath1)" fill="rgb(0,0,139)" width="19" stroke-dasharray="none" height="543" stroke="none"/>
<rect x="254" y="132" clip-path="url(#clipPath1)" fill="none" width="19" stroke-dasharray="none" height="543"/>
<rect x="230" y="132" clip-path="url(#clipPath1)" fill="rgb(0,0,139)" width="19" stroke-dasharray="none" height="543" stroke="none"/>
<rect x="230" y="132" clip-path="url(#clipPath1)" fill="none" width="19" stroke-dasharray="none" height="543"/>
<rect x="206" y="132" clip-path="url(#clipPath1)" fill="rgb(0,0,139)" width="19" stroke-dasharray="none" height="543" stroke="none"/>
<rect x="206" y="132" clip-path="url(#clipPath1)" fill="none" width="19" stroke-dasharray="none" height="543"/>
<rect x="181" y="132" clip-path="url(#clipPath1)" fill="rgb(0,0,139)" width="19" stroke-dasharray="none" height="543" stroke="none"/>
<rect x="181" y="132" clip-path="url(#clipPath1)" fill="none" width="19" stroke-dasharray="none" height="543"/>
<rect x="157" y="132" clip-path="url(#clipPath1)" fill="rgb(0,0,139)" width="19" stroke-dasharray="none" height="543" stroke="none"/>
<rect x="157" y="132" clip-path="url(#clipPath1)" fill="none" width="19" stroke-dasharray="none" height="543"/>
<rect x="133" y="132" clip-path="url(#clipPath1)" fill="rgb(0,0,139)" width="19" stroke-dasharray="none" height="543" stroke="none"/>
<rect x="133" y="132" clip-path="url(#clipPath1)" fill="none" width="19" stroke-dasharray="none" height="543"/>
<rect x="108" y="132" clip-path="url(#clipPath1)" fill="rgb(0,0,139)" width="19" stroke-dasharray="none" height="543" stroke="none"/>
<rect x="108" y="132" clip-path="url(#clipPath1)" fill="none" width="19" stroke-dasharray="none" height="543"/>
<rect x="84" y="132" clip-path="url(#clipPath1)" fill="rgb(0,0,139)" width="19" stroke-dasharray="none" height="543" stroke="none"/>
<rect x="84" y="132" clip-path="url(#clipPath1)" fill="none" width="19" stroke-dasharray="none" height="543"/>
<rect x="60" y="132" clip-path="url(#clipPath1)" fill="rgb(0,0,139)" width="19" stroke-dasharray="none" height="543" stroke="none"/>
<rect x="60" y="132" clip-path="url(#clipPath1)" fill="none" width="19" stroke-dasharray="none" height="543"/>
<rect x="41" y="26" clip-path="url(#clipPath2)" fill="none" width="1102" stroke-dasharray="none" height="650" stroke="black"/>
<line clip-path="url(#clipPath2)" fill="none" x1="42" x2="1142" y1="676" y2="676" stroke-dasharray="none"/>
</g>
<g text-rendering="geometricPrecision" font-size="13" font-family="'Arial'" stroke-linecap="butt">
<text xml:space="preserve" x="553" y="12" clip-path="url(#clipPath2)" stroke="none">Potovalni čas</text>
<line clip-path="url(#clipPath2)" fill="none" x1="39" x2="39" y1="26" y2="676"/>
<line clip-path="url(#clipPath2)" fill="none" x1="1145" x2="1145" y1="26" y2="676"/>
<line clip-path="url(#clipPath2)" fill="none" x1="35" x2="39" y1="676" y2="676"/>
<line clip-path="url(#clipPath2)" fill="none" x1="1149" x2="1145" y1="676" y2="676"/>
<text font-size="11" x="14" y="680" clip-path="url(#clipPath2)" stroke="none" xml:space="preserve">0.00</text>
<text font-size="11" x="1152" y="680" clip-path="url(#clipPath2)" stroke="none" xml:space="preserve">0.00</text>
<line clip-path="url(#clipPath2)" fill="none" x1="37" x2="39" y1="665" y2="665"/>
<line clip-path="url(#clipPath2)" fill="none" x1="1147" x2="1145" y1="665" y2="665"/>
<line clip-path="url(#clipPath2)" fill="none" x1="37" x2="39" y1="654" y2="654"/>
<line clip-path="url(#clipPath2)" fill="none" x1="1147" x2="1145" y1="654" y2="654"/>
<line clip-path="url(#clipPath2)" fill="none" x1="37" x2="39" y1="643" y2="643"/>
<line clip-path="url(#clipPath2)" fill="none" x1="1147" x2="1145" y1="643" y2="643"/>
<line clip-path="url(#clipPath2)" fill="none" x1="37" x2="39" y1="632" y2="632"/>
<line clip-path="url(#clipPath2)" fill="none" x1="1147" x2="1145" y1="632" y2="632"/>
<line clip-path="url(#clipPath2)" fill="none" x1="35" x2="39" y1="621" y2="621"/>
<line clip-path="url(#clipPath2)" fill="none" x1="1149" x2="1145" y1="621" y2="621"/>
<text font-size="11" x="9" y="625" clip-path="url(#clipPath2)" stroke="none" xml:space="preserve">0.010</text>
<text font-size="11" x="1152" y="625" clip-path="url(#clipPath2)" stroke="none" xml:space="preserve">0.010</text>
<line clip-path="url(#clipPath2)" fill="none" x1="37" x2="39" y1="610" y2="610"/>
<line clip-path="url(#clipPath2)" fill="none" x1="1147" x2="1145" y1="610" y2="610"/>
<line clip-path="url(#clipPath2)" fill="none" x1="37" x2="39" y1="599" y2="599"/>
<line clip-path="url(#clipPath2)" fill="none" x1="1147" x2="1145" y1="599" y2="599"/>
<line clip-path="url(#clipPath2)" fill="none" x1="37" x2="39" y1="588" y2="588"/>
<line clip-path="url(#clipPath2)" fill="none" x1="1147" x2="1145" y1="588" y2="588"/>
<line clip-path="url(#clipPath2)" fill="none" x1="37" x2="39" y1="577" y2="577"/>
<line clip-path="url(#clipPath2)" fill="none" x1="1147" x2="1145" y1="577" y2="577"/>
<line clip-path="url(#clipPath2)" fill="none" x1="35" x2="39" y1="566" y2="566"/>
<line clip-path="url(#clipPath2)" fill="none" x1="1149" x2="1145" y1="566" y2="566"/>
<text font-size="11" x="9" y="570" clip-path="url(#clipPath2)" stroke="none" xml:space="preserve">0.020</text>
<text font-size="11" x="1152" y="570" clip-path="url(#clipPath2)" stroke="none" xml:space="preserve">0.020</text>
<line clip-path="url(#clipPath2)" fill="none" x1="37" x2="39" y1="555" y2="555"/>
<line clip-path="url(#clipPath2)" fill="none" x1="1147" x2="1145" y1="555" y2="555"/>
<line clip-path="url(#clipPath2)" fill="none" x1="37" x2="39" y1="544" y2="544"/>
<line clip-path="url(#clipPath2)" fill="none" x1="1147" x2="1145" y1="544" y2="544"/>
<line clip-path="url(#clipPath2)" fill="none" x1="37" x2="39" y1="533" y2="533"/>
<line clip-path="url(#clipPath2)" fill="none" x1="1147" x2="1145" y1="533" y2="533"/>
<line clip-path="url(#clipPath2)" fill="none" x1="37" x2="39" y1="522" y2="522"/>
<line clip-path="url(#clipPath2)" fill="none" x1="1147" x2="1145" y1="522" y2="522"/>
<line clip-path="url(#clipPath2)" fill="none" x1="35" x2="39" y1="511" y2="511"/>
<line clip-path="url(#clipPath2)" fill="none" x1="1149" x2="1145" y1="511" y2="511"/>
<text font-size="11" x="9" y="515" clip-path="url(#clipPath2)" stroke="none" xml:space="preserve">0.030</text>
<text font-size="11" x="1152" y="515" clip-path="url(#clipPath2)" stroke="none" xml:space="preserve">0.030</text>
<line clip-path="url(#clipPath2)" fill="none" x1="37" x2="39" y1="500" y2="500"/>
<line clip-path="url(#clipPath2)" fill="none" x1="1147" x2="1145" y1="500" y2="500"/>
<line clip-path="url(#clipPath2)" fill="none" x1="37" x2="39" y1="489" y2="489"/>
<line clip-path="url(#clipPath2)" fill="none" x1="1147" x2="1145" y1="489" y2="489"/>
<line clip-path="url(#clipPath2)" fill="none" x1="37" x2="39" y1="479" y2="479"/>
<line clip-path="url(#clipPath2)" fill="none" x1="1147" x2="1145" y1="479" y2="479"/>
<line clip-path="url(#clipPath2)" fill="none" x1="37" x2="39" y1="468" y2="468"/>
<line clip-path="url(#clipPath2)" fill="none" x1="1147" x2="1145" y1="468" y2="468"/>
<line clip-path="url(#clipPath2)" fill="none" x1="35" x2="39" y1="457" y2="457"/>
<line clip-path="url(#clipPath2)" fill="none" x1="1149" x2="1145" y1="457" y2="457"/>
<text font-size="11" x="9" y="461" clip-path="url(#clipPath2)" stroke="none" xml:space="preserve">0.040</text>
<text font-size="11" x="1152" y="461" clip-path="url(#clipPath2)" stroke="none" xml:space="preserve">0.040</text>
<line clip-path="url(#clipPath2)" fill="none" x1="37" x2="39" y1="446" y2="446"/>
<line clip-path="url(#clipPath2)" fill="none" x1="1147" x2="1145" y1="446" y2="446"/>
<line clip-path="url(#clipPath2)" fill="none" x1="37" x2="39" y1="435" y2="435"/>
<line clip-path="url(#clipPath2)" fill="none" x1="1147" x2="1145" y1="435" y2="435"/>
<line clip-path="url(#clipPath2)" fill="none" x1="37" x2="39" y1="424" y2="424"/>
<line clip-path="url(#clipPath2)" fill="none" x1="1147" x2="1145" y1="424" y2="424"/>
<line clip-path="url(#clipPath2)" fill="none" x1="37" x2="39" y1="413" y2="413"/>
<line clip-path="url(#clipPath2)" fill="none" x1="1147" x2="1145" y1="413" y2="413"/>
<line clip-path="url(#clipPath2)" fill="none" x1="35" x2="39" y1="402" y2="402"/>
<line clip-path="url(#clipPath2)" fill="none" x1="1149" x2="1145" y1="402" y2="402"/>
<text font-size="11" x="9" y="406" clip-path="url(#clipPath2)" stroke="none" xml:space="preserve">0.050</text>
<text font-size="11" x="1152" y="406" clip-path="url(#clipPath2)" stroke="none" xml:space="preserve">0.050</text>
<line clip-path="url(#clipPath2)" fill="none" x1="37" x2="39" y1="391" y2="391"/>
<line clip-path="url(#clipPath2)" fill="none" x1="1147" x2="1145" y1="391" y2="391"/>
<line clip-path="url(#clipPath2)" fill="none" x1="37" x2="39" y1="380" y2="380"/>
<line clip-path="url(#clipPath2)" fill="none" x1="1147" x2="1145" y1="380" y2="380"/>
<line clip-path="url(#clipPath2)" fill="none" x1="37" x2="39" y1="369" y2="369"/>
<line clip-path="url(#clipPath2)" fill="none" x1="1147" x2="1145" y1="369" y2="369"/>
<line clip-path="url(#clipPath2)" fill="none" x1="37" x2="39" y1="358" y2="358"/>
<line clip-path="url(#clipPath2)" fill="none" x1="1147" x2="1145" y1="358" y2="358"/>
<line clip-path="url(#clipPath2)" fill="none" x1="35" x2="39" y1="347" y2="347"/>
<line clip-path="url(#clipPath2)" fill="none" x1="1149" x2="1145" y1="347" y2="347"/>
<text font-size="11" x="9" y="351" clip-path="url(#clipPath2)" stroke="none" xml:space="preserve">0.060</text>
<text font-size="11" x="1152" y="351" clip-path="url(#clipPath2)" stroke="none" xml:space="preserve">0.060</text>
<line clip-path="url(#clipPath2)" fill="none" x1="37" x2="39" y1="336" y2="336"/>
<line clip-path="url(#clipPath2)" fill="none" x1="1147" x2="1145" y1="336" y2="336"/>
<line clip-path="url(#clipPath2)" fill="none" x1="37" x2="39" y1="325" y2="325"/>
<line clip-path="url(#clipPath2)" fill="none" x1="1147" x2="1145" y1="325" y2="325"/>
<line clip-path="url(#clipPath2)" fill="none" x1="37" x2="39" y1="314" y2="314"/>
<line clip-path="url(#clipPath2)" fill="none" x1="1147" x2="1145" y1="314" y2="314"/>
<line clip-path="url(#clipPath2)" fill="none" x1="37" x2="39" y1="303" y2="303"/>
<line clip-path="url(#clipPath2)" fill="none" x1="1147" x2="1145" y1="303" y2="303"/>
<line clip-path="url(#clipPath2)" fill="none" x1="35" x2="39" y1="293" y2="293"/>
<line clip-path="url(#clipPath2)" fill="none" x1="1149" x2="1145" y1="293" y2="293"/>
<text font-size="11" x="9" y="297" clip-path="url(#clipPath2)" stroke="none" xml:space="preserve">0.070</text>
<text font-size="11" x="1152" y="297" clip-path="url(#clipPath2)" stroke="none" xml:space="preserve">0.070</text>
<line clip-path="url(#clipPath2)" fill="none" x1="37" x2="39" y1="282" y2="282"/>
<line clip-path="url(#clipPath2)" fill="none" x1="1147" x2="1145" y1="282" y2="282"/>
<line clip-path="url(#clipPath2)" fill="none" x1="37" x2="39" y1="271" y2="271"/>
<line clip-path="url(#clipPath2)" fill="none" x1="1147" x2="1145" y1="271" y2="271"/>
<line clip-path="url(#clipPath2)" fill="none" x1="37" x2="39" y1="260" y2="260"/>
<line clip-path="url(#clipPath2)" fill="none" x1="1147" x2="1145" y1="260" y2="260"/>
<line clip-path="url(#clipPath2)" fill="none" x1="37" x2="39" y1="249" y2="249"/>
<line clip-path="url(#clipPath2)" fill="none" x1="1147" x2="1145" y1="249" y2="249"/>
<line clip-path="url(#clipPath2)" fill="none" x1="35" x2="39" y1="238" y2="238"/>
<line clip-path="url(#clipPath2)" fill="none" x1="1149" x2="1145" y1="238" y2="238"/>
<text font-size="11" x="9" y="242" clip-path="url(#clipPath2)" stroke="none" xml:space="preserve">0.080</text>
<text font-size="11" x="1152" y="242" clip-path="url(#clipPath2)" stroke="none" xml:space="preserve">0.080</text>
<line clip-path="url(#clipPath2)" fill="none" x1="37" x2="39" y1="227" y2="227"/>
<line clip-path="url(#clipPath2)" fill="none" x1="1147" x2="1145" y1="227" y2="227"/>
<line clip-path="url(#clipPath2)" fill="none" x1="37" x2="39" y1="216" y2="216"/>
<line clip-path="url(#clipPath2)" fill="none" x1="1147" x2="1145" y1="216" y2="216"/>
<line clip-path="url(#clipPath2)" fill="none" x1="37" x2="39" y1="205" y2="205"/>
<line clip-path="url(#clipPath2)" fill="none" x1="1147" x2="1145" y1="205" y2="205"/>
<line clip-path="url(#clipPath2)" fill="none" x1="37" x2="39" y1="194" y2="194"/>
<line clip-path="url(#clipPath2)" fill="none" x1="1147" x2="1145" y1="194" y2="194"/>
<line clip-path="url(#clipPath2)" fill="none" x1="35" x2="39" y1="183" y2="183"/>
<line clip-path="url(#clipPath2)" fill="none" x1="1149" x2="1145" y1="183" y2="183"/>
<text font-size="11" x="9" y="187" clip-path="url(#clipPath2)" stroke="none" xml:space="preserve">0.090</text>
<text font-size="11" x="1152" y="187" clip-path="url(#clipPath2)" stroke="none" xml:space="preserve">0.090</text>
<line clip-path="url(#clipPath2)" fill="none" x1="37" x2="39" y1="172" y2="172"/>
<line clip-path="url(#clipPath2)" fill="none" x1="1147" x2="1145" y1="172" y2="172"/>
<line clip-path="url(#clipPath2)" fill="none" x1="37" x2="39" y1="161" y2="161"/>
<line clip-path="url(#clipPath2)" fill="none" x1="1147" x2="1145" y1="161" y2="161"/>
<line clip-path="url(#clipPath2)" fill="none" x1="37" x2="39" y1="150" y2="150"/>
<line clip-path="url(#clipPath2)" fill="none" x1="1147" x2="1145" y1="150" y2="150"/>
<line clip-path="url(#clipPath2)" fill="none" x1="37" x2="39" y1="139" y2="139"/>
<line clip-path="url(#clipPath2)" fill="none" x1="1147" x2="1145" y1="139" y2="139"/>
<line clip-path="url(#clipPath2)" fill="none" x1="35" x2="39" y1="128" y2="128"/>
<line clip-path="url(#clipPath2)" fill="none" x1="1149" x2="1145" y1="128" y2="128"/>
<text font-size="11" x="9" y="132" clip-path="url(#clipPath2)" stroke="none" xml:space="preserve">0.100</text>
<text font-size="11" x="1152" y="132" clip-path="url(#clipPath2)" stroke="none" xml:space="preserve">0.100</text>
<line clip-path="url(#clipPath2)" fill="none" x1="37" x2="39" y1="117" y2="117"/>
<line clip-path="url(#clipPath2)" fill="none" x1="1147" x2="1145" y1="117" y2="117"/>
<line clip-path="url(#clipPath2)" fill="none" x1="37" x2="39" y1="106" y2="106"/>
<line clip-path="url(#clipPath2)" fill="none" x1="1147" x2="1145" y1="106" y2="106"/>
<line clip-path="url(#clipPath2)" fill="none" x1="37" x2="39" y1="96" y2="96"/>
<line clip-path="url(#clipPath2)" fill="none" x1="1147" x2="1145" y1="96" y2="96"/>
<line clip-path="url(#clipPath2)" fill="none" x1="37" x2="39" y1="85" y2="85"/>
<line clip-path="url(#clipPath2)" fill="none" x1="1147" x2="1145" y1="85" y2="85"/>
<line clip-path="url(#clipPath2)" fill="none" x1="35" x2="39" y1="74" y2="74"/>
<line clip-path="url(#clipPath2)" fill="none" x1="1149" x2="1145" y1="74" y2="74"/>
<text font-size="11" x="9" y="78" clip-path="url(#clipPath2)" stroke="none" xml:space="preserve">0.110</text>
<text font-size="11" x="1152" y="78" clip-path="url(#clipPath2)" stroke="none" xml:space="preserve">0.110</text>
<line clip-path="url(#clipPath2)" fill="none" x1="37" x2="39" y1="63" y2="63"/>
<line clip-path="url(#clipPath2)" fill="none" x1="1147" x2="1145" y1="63" y2="63"/>
<line clip-path="url(#clipPath2)" fill="none" x1="37" x2="39" y1="52" y2="52"/>
<line clip-path="url(#clipPath2)" fill="none" x1="1147" x2="1145" y1="52" y2="52"/>
<line clip-path="url(#clipPath2)" fill="none" x1="37" x2="39" y1="41" y2="41"/>
<line clip-path="url(#clipPath2)" fill="none" x1="1147" x2="1145" y1="41" y2="41"/>
<line clip-path="url(#clipPath2)" fill="none" x1="37" x2="39" y1="30" y2="30"/>
<line clip-path="url(#clipPath2)" fill="none" x1="1147" x2="1145" y1="30" y2="30"/>
<line clip-path="url(#clipPath3)" fill="none" x1="60" x2="79" y1="680" y2="680"/>
<line clip-path="url(#clipPath3)" fill="none" x1="84" x2="103" y1="680" y2="680"/>
<line clip-path="url(#clipPath3)" fill="none" x1="108" x2="127" y1="680" y2="680"/>
<line clip-path="url(#clipPath3)" fill="none" x1="133" x2="152" y1="680" y2="680"/>
<line clip-path="url(#clipPath3)" fill="none" x1="157" x2="176" y1="680" y2="680"/>
<line clip-path="url(#clipPath3)" fill="none" x1="181" x2="200" y1="680" y2="680"/>
<line clip-path="url(#clipPath3)" fill="none" x1="206" x2="225" y1="680" y2="680"/>
<line clip-path="url(#clipPath3)" fill="none" x1="230" x2="249" y1="680" y2="680"/>
<line clip-path="url(#clipPath3)" fill="none" x1="254" x2="273" y1="680" y2="680"/>
<line clip-path="url(#clipPath3)" fill="none" x1="278" x2="297" y1="680" y2="680"/>
<line clip-path="url(#clipPath3)" fill="none" x1="303" x2="322" y1="680" y2="680"/>
<line clip-path="url(#clipPath3)" fill="none" x1="327" x2="346" y1="680" y2="680"/>
<line clip-path="url(#clipPath3)" fill="none" x1="351" x2="370" y1="680" y2="680"/>
<line clip-path="url(#clipPath3)" fill="none" x1="375" x2="394" y1="680" y2="680"/>
<line clip-path="url(#clipPath3)" fill="none" x1="400" x2="419" y1="680" y2="680"/>
<line clip-path="url(#clipPath3)" fill="none" x1="424" x2="443" y1="680" y2="680"/>
<line clip-path="url(#clipPath3)" fill="none" x1="448" x2="467" y1="680" y2="680"/>
<line clip-path="url(#clipPath3)" fill="none" x1="473" x2="492" y1="680" y2="680"/>
<line clip-path="url(#clipPath3)" fill="none" x1="497" x2="516" y1="680" y2="680"/>
<line clip-path="url(#clipPath3)" fill="none" x1="521" x2="540" y1="680" y2="680"/>
<line clip-path="url(#clipPath3)" fill="none" x1="545" x2="564" y1="680" y2="680"/>
<line clip-path="url(#clipPath3)" fill="none" x1="570" x2="589" y1="680" y2="680"/>
<line clip-path="url(#clipPath3)" fill="none" x1="594" x2="613" y1="680" y2="680"/>
<line clip-path="url(#clipPath3)" fill="none" x1="618" x2="637" y1="680" y2="680"/>
<line clip-path="url(#clipPath3)" fill="none" x1="642" x2="661" y1="680" y2="680"/>
<line clip-path="url(#clipPath3)" fill="none" x1="667" x2="686" y1="680" y2="680"/>
<line clip-path="url(#clipPath3)" fill="none" x1="691" x2="710" y1="680" y2="680"/>
<line clip-path="url(#clipPath3)" fill="none" x1="715" x2="734" y1="680" y2="680"/>
<line clip-path="url(#clipPath3)" fill="none" x1="740" x2="759" y1="680" y2="680"/>
<line clip-path="url(#clipPath3)" fill="none" x1="764" x2="783" y1="680" y2="680"/>
<line clip-path="url(#clipPath3)" fill="none" x1="788" x2="807" y1="680" y2="680"/>
<line clip-path="url(#clipPath3)" fill="none" x1="812" x2="831" y1="680" y2="680"/>
<line clip-path="url(#clipPath3)" fill="none" x1="837" x2="856" y1="680" y2="680"/>
<line clip-path="url(#clipPath3)" fill="none" x1="861" x2="880" y1="680" y2="680"/>
<line clip-path="url(#clipPath3)" fill="none" x1="885" x2="904" y1="680" y2="680"/>
<line clip-path="url(#clipPath3)" fill="none" x1="909" x2="928" y1="680" y2="680"/>
<line clip-path="url(#clipPath3)" fill="none" x1="934" x2="953" y1="680" y2="680"/>
<line clip-path="url(#clipPath3)" fill="none" x1="958" x2="977" y1="680" y2="680"/>
<line clip-path="url(#clipPath3)" fill="none" x1="982" x2="1001" y1="680" y2="680"/>
<line clip-path="url(#clipPath3)" fill="none" x1="1007" x2="1026" y1="680" y2="680"/>
<line clip-path="url(#clipPath3)" fill="none" x1="1031" x2="1050" y1="680" y2="680"/>
<line clip-path="url(#clipPath3)" fill="none" x1="1055" x2="1074" y1="680" y2="680"/>
<line clip-path="url(#clipPath3)" fill="none" x1="1079" x2="1098" y1="680" y2="680"/>
<line clip-path="url(#clipPath3)" fill="none" x1="1104" x2="1123" y1="680" y2="680"/>
<text font-size="11" x="60" y="699" clip-path="url(#clipPath3)" stroke="none" xml:space="preserve">Bus.standardHost1.tcpApp[0]</text>
<text font-size="11" x="84" y="699" clip-path="url(#clipPath3)" stroke="none" xml:space="preserve">Bus.standardHost2.tcpApp[0]</text>
<text font-size="11" x="108" y="699" clip-path="url(#clipPath3)" stroke="none" xml:space="preserve">Bus.standardHost3.tcpApp[0]</text>
<text font-size="11" x="133" y="699" clip-path="url(#clipPath3)" stroke="none" xml:space="preserve">Bus.standardHost4.tcpApp[0]</text>
<text font-size="11" x="157" y="699" clip-path="url(#clipPath3)" stroke="none" xml:space="preserve">Bus.standardHost5.tcpApp[0]</text>
<text font-size="11" x="181" y="699" clip-path="url(#clipPath3)" stroke="none" xml:space="preserve">Bus.standardHost6.tcpApp[0]</text>
<text font-size="11" x="206" y="699" clip-path="url(#clipPath3)" stroke="none" xml:space="preserve">Bus.standardHost7.tcpApp[0]</text>
<text font-size="11" x="230" y="699" clip-path="url(#clipPath3)" stroke="none" xml:space="preserve">Bus.standardHost8.tcpApp[0]</text>
<text font-size="11" x="254" y="699" clip-path="url(#clipPath3)" stroke="none" xml:space="preserve">Bus.standardHost9.tcpApp[0]</text>
<text font-size="11" x="278" y="692" clip-path="url(#clipPath3)" stroke="none" xml:space="preserve">Bus.standardHost10.tcpApp[0]</text>
<text font-size="11" x="303" y="692" clip-path="url(#clipPath3)" stroke="none" xml:space="preserve">Bus.standardHost11.tcpApp[0]</text>
<text font-size="11" x="327" y="692" clip-path="url(#clipPath3)" stroke="none" xml:space="preserve">Bus.standardHost12.tcpApp[0]</text>
<text font-size="11" x="351" y="692" clip-path="url(#clipPath3)" stroke="none" xml:space="preserve">Bus.standardHost13.tcpApp[0]</text>
<text font-size="11" x="375" y="692" clip-path="url(#clipPath3)" stroke="none" xml:space="preserve">Bus.standardHost14.tcpApp[0]</text>
<text font-size="11" x="400" y="692" clip-path="url(#clipPath3)" stroke="none" xml:space="preserve">Bus.standardHost15.tcpApp[0]</text>
<text font-size="11" x="424" y="692" clip-path="url(#clipPath3)" stroke="none" xml:space="preserve">Bus.standardHost16.tcpApp[0]</text>
<text font-size="11" x="448" y="692" clip-path="url(#clipPath3)" stroke="none" xml:space="preserve">Bus.standardHost17.tcpApp[0]</text>
<text font-size="11" x="473" y="692" clip-path="url(#clipPath3)" stroke="none" xml:space="preserve">Bus.standardHost18.tcpApp[0]</text>
<text font-size="11" x="497" y="692" clip-path="url(#clipPath3)" stroke="none" xml:space="preserve">Bus.standardHost19.tcpApp[0]</text>
<text font-size="11" x="521" y="692" clip-path="url(#clipPath3)" stroke="none" xml:space="preserve">Bus.standardHost20.tcpApp[0]</text>
<text font-size="11" x="545" y="692" clip-path="url(#clipPath3)" stroke="none" xml:space="preserve">Bus.standardHost21.tcpApp[0]</text>
<text font-size="11" x="570" y="692" clip-path="url(#clipPath3)" stroke="none" xml:space="preserve">Bus.standardHost22.tcpApp[0]</text>
<text font-size="11" x="594" y="692" clip-path="url(#clipPath3)" stroke="none" xml:space="preserve">Bus.standardHost23.tcpApp[0]</text>
<text font-size="11" x="618" y="692" clip-path="url(#clipPath3)" stroke="none" xml:space="preserve">Bus.standardHost24.tcpApp[0]</text>
<text font-size="11" x="642" y="692" clip-path="url(#clipPath3)" stroke="none" xml:space="preserve">Bus.standardHost25.tcpApp[0]</text>
<text font-size="11" x="667" y="692" clip-path="url(#clipPath3)" stroke="none" xml:space="preserve">Bus.standardHost26.tcpApp[0]</text>
<text font-size="11" x="691" y="692" clip-path="url(#clipPath3)" stroke="none" xml:space="preserve">Bus.standardHost27.tcpApp[0]</text>
<text font-size="11" x="715" y="692" clip-path="url(#clipPath3)" stroke="none" xml:space="preserve">Bus.standardHost28.tcpApp[0]</text>
<text font-size="11" x="740" y="692" clip-path="url(#clipPath3)" stroke="none" xml:space="preserve">Bus.standardHost29.tcpApp[0]</text>
<text font-size="11" x="764" y="692" clip-path="url(#clipPath3)" stroke="none" xml:space="preserve">Bus.standardHost30.tcpApp[0]</text>
<text font-size="11" x="788" y="692" clip-path="url(#clipPath3)" stroke="none" xml:space="preserve">Bus.standardHost31.tcpApp[0]</text>
<text font-size="11" x="812" y="692" clip-path="url(#clipPath3)" stroke="none" xml:space="preserve">Bus.standardHost32.tcpApp[0]</text>
<text font-size="11" x="837" y="692" clip-path="url(#clipPath3)" stroke="none" xml:space="preserve">Bus.standardHost33.tcpApp[0]</text>
<text font-size="11" x="861" y="692" clip-path="url(#clipPath3)" stroke="none" xml:space="preserve">Bus.standardHost34.tcpApp[0]</text>
<text font-size="11" x="885" y="692" clip-path="url(#clipPath3)" stroke="none" xml:space="preserve">Bus.standardHost35.tcpApp[0]</text>
<text font-size="11" x="909" y="692" clip-path="url(#clipPath3)" stroke="none" xml:space="preserve">Bus.standardHost36.tcpApp[0]</text>
<text font-size="11" x="934" y="692" clip-path="url(#clipPath3)" stroke="none" xml:space="preserve">Bus.standardHost37.tcpApp[0]</text>
<text font-size="11" x="958" y="692" clip-path="url(#clipPath3)" stroke="none" xml:space="preserve">Bus.standardHost38.tcpApp[0]</text>
<text font-size="11" x="982" y="692" clip-path="url(#clipPath3)" stroke="none" xml:space="preserve">Bus.standardHost39.tcpApp[0]</text>
<text font-size="11" x="1007" y="692" clip-path="url(#clipPath3)" stroke="none" xml:space="preserve">Bus.standardHost40.tcpApp[0]</text>
<text font-size="11" x="1031" y="692" clip-path="url(#clipPath3)" stroke="none" xml:space="preserve">Bus.standardHost41.tcpApp[0]</text>
<text font-size="11" x="1055" y="692" clip-path="url(#clipPath3)" stroke="none" xml:space="preserve">Bus.standardHost42.tcpApp[0]</text>
<text font-size="11" x="1079" y="692" clip-path="url(#clipPath3)" stroke="none" xml:space="preserve">Bus.standardHost43.tcpApp[0]</text>
<text font-size="11" x="1104" y="692" clip-path="url(#clipPath3)" stroke="none" xml:space="preserve">Bus.standardHost44.tcpApp[0]</text>
</g>
</g>
</svg>
