<?xml version="1.0" encoding="UTF-8"?><svg xmlns="http://www.w3.org/2000/svg" xmlns:xlink="http://www.w3.org/1999/xlink" stroke-dasharray="none" shape-rendering="auto" font-family="'Dialog'" width="1184" text-rendering="auto" fill-opacity="1" contentScriptType="text/ecmascript" color-interpolation="auto" color-rendering="auto" preserveAspectRatio="xMidYMid meet" font-size="12" fill="black" stroke="black" image-rendering="auto" stroke-miterlimit="10" zoomAndPan="magnify" version="1.0" stroke-linecap="square" stroke-linejoin="miter" contentStyleType="text/css" font-style="normal" height="814" stroke-width="1" stroke-dashoffset="0" font-weight="normal" stroke-opacity="1">
<!--Generated by the Batik Graphics2D SVG Generator-->
<defs id="genericDefs"/>
<g>
<defs id="defs1">
<clipPath clipPathUnits="userSpaceOnUse" id="clipPath1">
<path d="M28 25 L1156 25 L1156 404 L28 404 L28 25 Z"/>
</clipPath>
<clipPath clipPathUnits="userSpaceOnUse" id="clipPath2">
<path d="M-1 -1 L1185 -1 L1185 815 L-1 815 L-1 -1 Z"/>
</clipPath>
<clipPath clipPathUnits="userSpaceOnUse" id="clipPath3">
<path d="M28 402 L1156 402 L1156 815 L28 815 L28 402 Z"/>
</clipPath>
</defs>
<g fill="white" text-rendering="geometricPrecision" font-family="'Segoe UI'" stroke-linejoin="round" stroke="white" stroke-width="0" stroke-miterlimit="0">
<rect x="29" y="26" clip-path="url(#clipPath1)" width="1126" height="377" stroke="none"/>
</g>
<g stroke-linecap="butt" fill="rgb(204,204,204)" text-rendering="geometricPrecision" font-family="'Segoe UI'" stroke-dasharray="3,3" stroke="rgb(204,204,204)">
<line clip-path="url(#clipPath1)" fill="none" x1="29" x2="1155" y1="403" y2="403"/>
<line clip-path="url(#clipPath1)" fill="none" x1="29" x2="1155" y1="340" y2="340"/>
<line clip-path="url(#clipPath1)" fill="none" x1="29" x2="1155" y1="277" y2="277"/>
<line clip-path="url(#clipPath1)" fill="none" x1="29" x2="1155" y1="214" y2="214"/>
<line clip-path="url(#clipPath1)" fill="none" x1="29" x2="1155" y1="151" y2="151"/>
<line clip-path="url(#clipPath1)" fill="none" x1="29" x2="1155" y1="88" y2="88"/>
<line clip-path="url(#clipPath1)" fill="none" x1="29" x2="1155" y1="26" y2="26"/>
<rect x="1134" y="214" clip-path="url(#clipPath1)" fill="rgb(0,0,139)" width="10" height="1" stroke="none"/>
<rect x="1122" y="214" clip-path="url(#clipPath1)" fill="rgb(0,0,139)" width="10" height="1" stroke="none"/>
<rect x="1109" y="214" clip-path="url(#clipPath1)" fill="rgb(0,0,139)" width="10" height="1" stroke="none"/>
<rect x="1097" y="214" clip-path="url(#clipPath1)" fill="rgb(0,0,139)" width="10" height="1" stroke="none"/>
<rect x="1084" y="214" clip-path="url(#clipPath1)" fill="rgb(0,0,139)" width="10" height="1" stroke="none"/>
<rect x="1071" y="214" clip-path="url(#clipPath1)" fill="rgb(0,0,139)" width="10" height="1" stroke="none"/>
<rect x="1059" y="214" clip-path="url(#clipPath1)" fill="rgb(0,0,139)" width="10" height="1" stroke="none"/>
<rect x="1046" y="214" clip-path="url(#clipPath1)" fill="rgb(0,0,139)" width="10" height="1" stroke="none"/>
<rect x="1034" y="214" clip-path="url(#clipPath1)" fill="rgb(0,0,139)" width="10" height="1" stroke="none"/>
<rect x="1021" y="214" clip-path="url(#clipPath1)" fill="rgb(0,0,139)" width="10" height="1" stroke="none"/>
<rect x="1008" y="214" clip-path="url(#clipPath1)" fill="rgb(0,0,139)" width="10" height="1" stroke="none"/>
<rect x="996" y="214" clip-path="url(#clipPath1)" fill="rgb(0,0,139)" width="10" height="1" stroke="none"/>
<rect x="983" y="214" clip-path="url(#clipPath1)" fill="rgb(0,0,139)" width="10" height="1" stroke="none"/>
<rect x="971" y="214" clip-path="url(#clipPath1)" fill="rgb(0,0,139)" width="10" height="1" stroke="none"/>
<rect x="958" y="214" clip-path="url(#clipPath1)" fill="rgb(0,0,139)" width="10" height="1" stroke="none"/>
<rect x="945" y="214" clip-path="url(#clipPath1)" fill="rgb(0,0,139)" width="10" height="1" stroke="none"/>
<rect x="933" y="214" clip-path="url(#clipPath1)" fill="rgb(0,0,139)" width="10" height="1" stroke="none"/>
<rect x="920" y="214" clip-path="url(#clipPath1)" fill="rgb(0,0,139)" width="10" height="1" stroke="none"/>
<rect x="908" y="214" clip-path="url(#clipPath1)" fill="rgb(0,0,139)" width="10" height="1" stroke="none"/>
<rect x="895" y="214" clip-path="url(#clipPath1)" fill="rgb(0,0,139)" width="10" height="1" stroke="none"/>
<rect x="882" y="214" clip-path="url(#clipPath1)" fill="rgb(0,0,139)" width="10" height="1" stroke="none"/>
<rect x="870" y="214" clip-path="url(#clipPath1)" fill="rgb(0,0,139)" width="10" height="1" stroke="none"/>
<rect x="857" y="214" clip-path="url(#clipPath1)" fill="rgb(0,0,139)" width="10" height="1" stroke="none"/>
<rect x="845" y="214" clip-path="url(#clipPath1)" fill="rgb(0,0,139)" width="10" height="1" stroke="none"/>
<rect x="832" y="214" clip-path="url(#clipPath1)" fill="rgb(0,0,139)" width="10" height="1" stroke="none"/>
<rect x="819" y="214" clip-path="url(#clipPath1)" fill="rgb(0,0,139)" width="10" height="1" stroke="none"/>
<rect x="807" y="214" clip-path="url(#clipPath1)" fill="rgb(0,0,139)" width="10" height="1" stroke="none"/>
<rect x="794" y="214" clip-path="url(#clipPath1)" fill="rgb(0,0,139)" width="10" height="1" stroke="none"/>
<rect x="782" y="214" clip-path="url(#clipPath1)" fill="rgb(0,0,139)" width="10" height="1" stroke="none"/>
<rect x="769" y="214" clip-path="url(#clipPath1)" fill="rgb(0,0,139)" width="10" height="1" stroke="none"/>
<rect x="756" y="214" clip-path="url(#clipPath1)" fill="rgb(0,0,139)" width="10" height="1" stroke="none"/>
<rect x="744" y="214" clip-path="url(#clipPath1)" fill="rgb(0,0,139)" width="10" height="1" stroke="none"/>
<rect x="731" y="214" clip-path="url(#clipPath1)" fill="rgb(0,0,139)" width="10" height="1" stroke="none"/>
<rect x="719" y="214" clip-path="url(#clipPath1)" fill="rgb(0,0,139)" width="10" height="1" stroke="none"/>
<rect x="706" y="214" clip-path="url(#clipPath1)" fill="rgb(0,0,139)" width="10" height="1" stroke="none"/>
<rect x="694" y="214" clip-path="url(#clipPath1)" fill="rgb(0,0,139)" width="10" height="1" stroke="none"/>
<rect x="681" y="214" clip-path="url(#clipPath1)" fill="rgb(0,0,139)" width="10" height="1" stroke="none"/>
<rect x="668" y="214" clip-path="url(#clipPath1)" fill="rgb(0,0,139)" width="10" height="1" stroke="none"/>
<rect x="656" y="214" clip-path="url(#clipPath1)" fill="rgb(0,0,139)" width="10" height="1" stroke="none"/>
<rect x="643" y="214" clip-path="url(#clipPath1)" fill="rgb(0,0,139)" width="10" height="1" stroke="none"/>
<rect x="631" y="214" clip-path="url(#clipPath1)" fill="rgb(0,0,139)" width="10" height="1" stroke="none"/>
<rect x="618" y="214" clip-path="url(#clipPath1)" fill="rgb(0,0,139)" width="10" height="1" stroke="none"/>
<rect x="605" y="214" clip-path="url(#clipPath1)" fill="rgb(0,0,139)" width="10" height="1" stroke="none"/>
<rect x="593" y="214" clip-path="url(#clipPath1)" fill="rgb(0,0,139)" width="10" height="1" stroke="none"/>
<rect x="580" y="214" clip-path="url(#clipPath1)" fill="rgb(0,0,139)" width="10" height="1" stroke="none"/>
<rect x="568" y="214" clip-path="url(#clipPath1)" fill="rgb(0,0,139)" width="10" height="1" stroke="none"/>
<rect x="555" y="214" clip-path="url(#clipPath1)" fill="rgb(0,0,139)" width="10" height="1" stroke="none"/>
<rect x="542" y="214" clip-path="url(#clipPath1)" fill="rgb(0,0,139)" width="10" height="1" stroke="none"/>
<rect x="530" y="214" clip-path="url(#clipPath1)" fill="rgb(0,0,139)" width="10" height="1" stroke="none"/>
<rect x="517" y="214" clip-path="url(#clipPath1)" fill="rgb(0,0,139)" width="10" height="1" stroke="none"/>
<rect x="505" y="214" clip-path="url(#clipPath1)" fill="rgb(0,0,139)" width="10" height="1" stroke="none"/>
<rect x="492" y="214" clip-path="url(#clipPath1)" fill="rgb(0,0,139)" width="10" height="1" stroke="none"/>
<rect x="479" y="214" clip-path="url(#clipPath1)" fill="rgb(0,0,139)" width="10" height="1" stroke="none"/>
<rect x="467" y="214" clip-path="url(#clipPath1)" fill="rgb(0,0,139)" width="10" height="1" stroke="none"/>
<rect x="454" y="214" clip-path="url(#clipPath1)" fill="rgb(0,0,139)" width="10" height="1" stroke="none"/>
<rect x="442" y="214" clip-path="url(#clipPath1)" fill="rgb(0,0,139)" width="10" height="1" stroke="none"/>
<rect x="429" y="214" clip-path="url(#clipPath1)" fill="rgb(0,0,139)" width="10" height="1" stroke="none"/>
<rect x="416" y="214" clip-path="url(#clipPath1)" fill="rgb(0,0,139)" width="10" height="1" stroke="none"/>
<rect x="404" y="214" clip-path="url(#clipPath1)" fill="rgb(0,0,139)" width="10" height="1" stroke="none"/>
<rect x="391" y="214" clip-path="url(#clipPath1)" fill="rgb(0,0,139)" width="10" height="1" stroke="none"/>
<rect x="379" y="214" clip-path="url(#clipPath1)" fill="rgb(0,0,139)" width="10" height="1" stroke="none"/>
<rect x="366" y="214" clip-path="url(#clipPath1)" fill="rgb(0,0,139)" width="10" height="1" stroke="none"/>
<rect x="353" y="214" clip-path="url(#clipPath1)" fill="rgb(0,0,139)" width="10" height="1" stroke="none"/>
<rect x="341" y="214" clip-path="url(#clipPath1)" fill="rgb(0,0,139)" width="10" height="1" stroke="none"/>
<rect x="328" y="214" clip-path="url(#clipPath1)" fill="rgb(0,0,139)" width="10" height="1" stroke="none"/>
<rect x="316" y="214" clip-path="url(#clipPath1)" fill="rgb(0,0,139)" width="10" height="1" stroke="none"/>
<rect x="303" y="214" clip-path="url(#clipPath1)" fill="rgb(0,0,139)" width="10" height="1" stroke="none"/>
<rect x="290" y="214" clip-path="url(#clipPath1)" fill="rgb(0,0,139)" width="10" height="1" stroke="none"/>
<rect x="278" y="214" clip-path="url(#clipPath1)" fill="rgb(0,0,139)" width="10" height="1" stroke="none"/>
<rect x="265" y="214" clip-path="url(#clipPath1)" fill="rgb(0,0,139)" width="10" height="1" stroke="none"/>
<rect x="253" y="214" clip-path="url(#clipPath1)" fill="rgb(0,0,139)" width="10" height="1" stroke="none"/>
<rect x="240" y="214" clip-path="url(#clipPath1)" fill="rgb(0,0,139)" width="10" height="1" stroke="none"/>
<rect x="228" y="214" clip-path="url(#clipPath1)" fill="rgb(0,0,139)" width="10" height="1" stroke="none"/>
<rect x="215" y="214" clip-path="url(#clipPath1)" fill="rgb(0,0,139)" width="10" height="1" stroke="none"/>
<rect x="202" y="214" clip-path="url(#clipPath1)" fill="rgb(0,0,139)" width="10" height="1" stroke="none"/>
<rect x="190" y="214" clip-path="url(#clipPath1)" fill="rgb(0,0,139)" width="10" height="1" stroke="none"/>
<rect x="177" y="214" clip-path="url(#clipPath1)" fill="rgb(0,0,139)" width="10" height="1" stroke="none"/>
<rect x="165" y="214" clip-path="url(#clipPath1)" fill="rgb(0,0,139)" width="10" height="1" stroke="none"/>
<rect x="152" y="214" clip-path="url(#clipPath1)" fill="rgb(0,0,139)" width="10" height="1" stroke="none"/>
<rect x="139" y="214" clip-path="url(#clipPath1)" fill="rgb(0,0,139)" width="10" height="1" stroke="none"/>
<rect x="127" y="214" clip-path="url(#clipPath1)" fill="rgb(0,0,139)" width="10" height="1" stroke="none"/>
<rect x="114" y="214" clip-path="url(#clipPath1)" fill="rgb(0,0,139)" width="10" height="1" stroke="none"/>
<rect x="102" y="214" clip-path="url(#clipPath1)" fill="rgb(0,0,139)" width="10" height="1" stroke="none"/>
<rect x="89" y="214" clip-path="url(#clipPath1)" fill="rgb(0,0,139)" width="10" height="1" stroke="none"/>
<rect x="76" y="214" clip-path="url(#clipPath1)" fill="rgb(0,0,139)" width="10" height="1" stroke="none"/>
<rect x="64" y="214" clip-path="url(#clipPath1)" fill="rgb(0,0,139)" width="10" height="1" stroke="none"/>
<rect x="51" y="214" clip-path="url(#clipPath1)" fill="rgb(0,0,139)" width="10" height="1" stroke="none"/>
<rect x="39" y="214" clip-path="url(#clipPath1)" fill="rgb(0,0,139)" width="10" height="1" stroke="none"/>
<rect x="29" y="26" clip-path="url(#clipPath2)" fill="none" width="1126" stroke-dasharray="none" height="377" stroke="black"/>
<line clip-path="url(#clipPath2)" fill="none" x1="30" x2="1154" y1="214" y2="214" stroke-dasharray="none"/>
</g>
<g text-rendering="geometricPrecision" font-size="13" font-family="'Arial'" stroke-linecap="butt">
<text xml:space="preserve" x="516" y="12" clip-path="url(#clipPath2)" stroke="none">Število izgubljenih paketov</text>
<line clip-path="url(#clipPath2)" fill="none" x1="27" x2="27" y1="26" y2="403"/>
<line clip-path="url(#clipPath2)" fill="none" x1="1157" x2="1157" y1="26" y2="403"/>
<line clip-path="url(#clipPath2)" fill="none" x1="23" x2="27" y1="403" y2="403"/>
<line clip-path="url(#clipPath2)" fill="none" x1="1161" x2="1157" y1="403" y2="403"/>
<text font-size="11" x="2" y="407" clip-path="url(#clipPath2)" stroke="none" xml:space="preserve">-0.6</text>
<text font-size="11" x="1164" y="407" clip-path="url(#clipPath2)" stroke="none" xml:space="preserve">-0.6</text>
<line clip-path="url(#clipPath2)" fill="none" x1="25" x2="27" y1="371" y2="371"/>
<line clip-path="url(#clipPath2)" fill="none" x1="1159" x2="1157" y1="371" y2="371"/>
<line clip-path="url(#clipPath2)" fill="none" x1="23" x2="27" y1="340" y2="340"/>
<line clip-path="url(#clipPath2)" fill="none" x1="1161" x2="1157" y1="340" y2="340"/>
<text font-size="11" x="2" y="344" clip-path="url(#clipPath2)" stroke="none" xml:space="preserve">-0.4</text>
<text font-size="11" x="1164" y="344" clip-path="url(#clipPath2)" stroke="none" xml:space="preserve">-0.4</text>
<line clip-path="url(#clipPath2)" fill="none" x1="25" x2="27" y1="308" y2="308"/>
<line clip-path="url(#clipPath2)" fill="none" x1="1159" x2="1157" y1="308" y2="308"/>
<line clip-path="url(#clipPath2)" fill="none" x1="23" x2="27" y1="277" y2="277"/>
<line clip-path="url(#clipPath2)" fill="none" x1="1161" x2="1157" y1="277" y2="277"/>
<text font-size="11" x="2" y="281" clip-path="url(#clipPath2)" stroke="none" xml:space="preserve">-0.2</text>
<text font-size="11" x="1164" y="281" clip-path="url(#clipPath2)" stroke="none" xml:space="preserve">-0.2</text>
<line clip-path="url(#clipPath2)" fill="none" x1="25" x2="27" y1="245" y2="245"/>
<line clip-path="url(#clipPath2)" fill="none" x1="1159" x2="1157" y1="245" y2="245"/>
<line clip-path="url(#clipPath2)" fill="none" x1="23" x2="27" y1="214" y2="214"/>
<line clip-path="url(#clipPath2)" fill="none" x1="1161" x2="1157" y1="214" y2="214"/>
<text font-size="11" x="7" y="218" clip-path="url(#clipPath2)" stroke="none" xml:space="preserve">0.0</text>
<text font-size="11" x="1164" y="218" clip-path="url(#clipPath2)" stroke="none" xml:space="preserve">0.0</text>
<line clip-path="url(#clipPath2)" fill="none" x1="25" x2="27" y1="183" y2="183"/>
<line clip-path="url(#clipPath2)" fill="none" x1="1159" x2="1157" y1="183" y2="183"/>
<line clip-path="url(#clipPath2)" fill="none" x1="23" x2="27" y1="151" y2="151"/>
<line clip-path="url(#clipPath2)" fill="none" x1="1161" x2="1157" y1="151" y2="151"/>
<text font-size="11" x="7" y="155" clip-path="url(#clipPath2)" stroke="none" xml:space="preserve">0.2</text>
<text font-size="11" x="1164" y="155" clip-path="url(#clipPath2)" stroke="none" xml:space="preserve">0.2</text>
<line clip-path="url(#clipPath2)" fill="none" x1="25" x2="27" y1="120" y2="120"/>
<line clip-path="url(#clipPath2)" fill="none" x1="1159" x2="1157" y1="120" y2="120"/>
<line clip-path="url(#clipPath2)" fill="none" x1="23" x2="27" y1="88" y2="88"/>
<line clip-path="url(#clipPath2)" fill="none" x1="1161" x2="1157" y1="88" y2="88"/>
<text font-size="11" x="7" y="92" clip-path="url(#clipPath2)" stroke="none" xml:space="preserve">0.4</text>
<text font-size="11" x="1164" y="92" clip-path="url(#clipPath2)" stroke="none" xml:space="preserve">0.4</text>
<line clip-path="url(#clipPath2)" fill="none" x1="25" x2="27" y1="57" y2="57"/>
<line clip-path="url(#clipPath2)" fill="none" x1="1159" x2="1157" y1="57" y2="57"/>
<line clip-path="url(#clipPath2)" fill="none" x1="23" x2="27" y1="26" y2="26"/>
<line clip-path="url(#clipPath2)" fill="none" x1="1161" x2="1157" y1="26" y2="26"/>
<text font-size="11" x="7" y="30" clip-path="url(#clipPath2)" stroke="none" xml:space="preserve">0.6</text>
<text font-size="11" x="1164" y="30" clip-path="url(#clipPath2)" stroke="none" xml:space="preserve">0.6</text>
<line clip-path="url(#clipPath3)" fill="none" x1="39" x2="49" y1="407" y2="407"/>
<line clip-path="url(#clipPath3)" fill="none" x1="51" x2="61" y1="407" y2="407"/>
<line clip-path="url(#clipPath3)" fill="none" x1="64" x2="74" y1="407" y2="407"/>
<line clip-path="url(#clipPath3)" fill="none" x1="76" x2="86" y1="407" y2="407"/>
<line clip-path="url(#clipPath3)" fill="none" x1="89" x2="99" y1="407" y2="407"/>
<line clip-path="url(#clipPath3)" fill="none" x1="102" x2="112" y1="407" y2="407"/>
<line clip-path="url(#clipPath3)" fill="none" x1="114" x2="124" y1="407" y2="407"/>
<line clip-path="url(#clipPath3)" fill="none" x1="127" x2="137" y1="407" y2="407"/>
<line clip-path="url(#clipPath3)" fill="none" x1="139" x2="149" y1="407" y2="407"/>
<line clip-path="url(#clipPath3)" fill="none" x1="152" x2="162" y1="407" y2="407"/>
<line clip-path="url(#clipPath3)" fill="none" x1="165" x2="175" y1="407" y2="407"/>
<line clip-path="url(#clipPath3)" fill="none" x1="177" x2="187" y1="407" y2="407"/>
<line clip-path="url(#clipPath3)" fill="none" x1="190" x2="200" y1="407" y2="407"/>
<line clip-path="url(#clipPath3)" fill="none" x1="202" x2="212" y1="407" y2="407"/>
<line clip-path="url(#clipPath3)" fill="none" x1="215" x2="225" y1="407" y2="407"/>
<line clip-path="url(#clipPath3)" fill="none" x1="228" x2="238" y1="407" y2="407"/>
<line clip-path="url(#clipPath3)" fill="none" x1="240" x2="250" y1="407" y2="407"/>
<line clip-path="url(#clipPath3)" fill="none" x1="253" x2="263" y1="407" y2="407"/>
<line clip-path="url(#clipPath3)" fill="none" x1="265" x2="275" y1="407" y2="407"/>
<line clip-path="url(#clipPath3)" fill="none" x1="278" x2="288" y1="407" y2="407"/>
<line clip-path="url(#clipPath3)" fill="none" x1="290" x2="300" y1="407" y2="407"/>
<line clip-path="url(#clipPath3)" fill="none" x1="303" x2="313" y1="407" y2="407"/>
<line clip-path="url(#clipPath3)" fill="none" x1="316" x2="326" y1="407" y2="407"/>
<line clip-path="url(#clipPath3)" fill="none" x1="328" x2="338" y1="407" y2="407"/>
<line clip-path="url(#clipPath3)" fill="none" x1="341" x2="351" y1="407" y2="407"/>
<line clip-path="url(#clipPath3)" fill="none" x1="353" x2="363" y1="407" y2="407"/>
<line clip-path="url(#clipPath3)" fill="none" x1="366" x2="376" y1="407" y2="407"/>
<line clip-path="url(#clipPath3)" fill="none" x1="379" x2="389" y1="407" y2="407"/>
<line clip-path="url(#clipPath3)" fill="none" x1="391" x2="401" y1="407" y2="407"/>
<line clip-path="url(#clipPath3)" fill="none" x1="404" x2="414" y1="407" y2="407"/>
<line clip-path="url(#clipPath3)" fill="none" x1="416" x2="426" y1="407" y2="407"/>
<line clip-path="url(#clipPath3)" fill="none" x1="429" x2="439" y1="407" y2="407"/>
<line clip-path="url(#clipPath3)" fill="none" x1="442" x2="452" y1="407" y2="407"/>
<line clip-path="url(#clipPath3)" fill="none" x1="454" x2="464" y1="407" y2="407"/>
<line clip-path="url(#clipPath3)" fill="none" x1="467" x2="477" y1="407" y2="407"/>
<line clip-path="url(#clipPath3)" fill="none" x1="479" x2="489" y1="407" y2="407"/>
<line clip-path="url(#clipPath3)" fill="none" x1="492" x2="502" y1="407" y2="407"/>
<line clip-path="url(#clipPath3)" fill="none" x1="505" x2="515" y1="407" y2="407"/>
<line clip-path="url(#clipPath3)" fill="none" x1="517" x2="527" y1="407" y2="407"/>
<line clip-path="url(#clipPath3)" fill="none" x1="530" x2="540" y1="407" y2="407"/>
<line clip-path="url(#clipPath3)" fill="none" x1="542" x2="552" y1="407" y2="407"/>
<line clip-path="url(#clipPath3)" fill="none" x1="555" x2="565" y1="407" y2="407"/>
<line clip-path="url(#clipPath3)" fill="none" x1="568" x2="578" y1="407" y2="407"/>
<line clip-path="url(#clipPath3)" fill="none" x1="580" x2="590" y1="407" y2="407"/>
<line clip-path="url(#clipPath3)" fill="none" x1="593" x2="603" y1="407" y2="407"/>
<line clip-path="url(#clipPath3)" fill="none" x1="605" x2="615" y1="407" y2="407"/>
<line clip-path="url(#clipPath3)" fill="none" x1="618" x2="628" y1="407" y2="407"/>
<line clip-path="url(#clipPath3)" fill="none" x1="631" x2="641" y1="407" y2="407"/>
<line clip-path="url(#clipPath3)" fill="none" x1="643" x2="653" y1="407" y2="407"/>
<line clip-path="url(#clipPath3)" fill="none" x1="656" x2="666" y1="407" y2="407"/>
<line clip-path="url(#clipPath3)" fill="none" x1="668" x2="678" y1="407" y2="407"/>
<line clip-path="url(#clipPath3)" fill="none" x1="681" x2="691" y1="407" y2="407"/>
<line clip-path="url(#clipPath3)" fill="none" x1="694" x2="704" y1="407" y2="407"/>
<line clip-path="url(#clipPath3)" fill="none" x1="706" x2="716" y1="407" y2="407"/>
<line clip-path="url(#clipPath3)" fill="none" x1="719" x2="729" y1="407" y2="407"/>
<line clip-path="url(#clipPath3)" fill="none" x1="731" x2="741" y1="407" y2="407"/>
<line clip-path="url(#clipPath3)" fill="none" x1="744" x2="754" y1="407" y2="407"/>
<line clip-path="url(#clipPath3)" fill="none" x1="756" x2="766" y1="407" y2="407"/>
<line clip-path="url(#clipPath3)" fill="none" x1="769" x2="779" y1="407" y2="407"/>
<line clip-path="url(#clipPath3)" fill="none" x1="782" x2="792" y1="407" y2="407"/>
<line clip-path="url(#clipPath3)" fill="none" x1="794" x2="804" y1="407" y2="407"/>
<line clip-path="url(#clipPath3)" fill="none" x1="807" x2="817" y1="407" y2="407"/>
<line clip-path="url(#clipPath3)" fill="none" x1="819" x2="829" y1="407" y2="407"/>
<line clip-path="url(#clipPath3)" fill="none" x1="832" x2="842" y1="407" y2="407"/>
<line clip-path="url(#clipPath3)" fill="none" x1="845" x2="855" y1="407" y2="407"/>
<line clip-path="url(#clipPath3)" fill="none" x1="857" x2="867" y1="407" y2="407"/>
<line clip-path="url(#clipPath3)" fill="none" x1="870" x2="880" y1="407" y2="407"/>
<line clip-path="url(#clipPath3)" fill="none" x1="882" x2="892" y1="407" y2="407"/>
<line clip-path="url(#clipPath3)" fill="none" x1="895" x2="905" y1="407" y2="407"/>
<line clip-path="url(#clipPath3)" fill="none" x1="908" x2="918" y1="407" y2="407"/>
<line clip-path="url(#clipPath3)" fill="none" x1="920" x2="930" y1="407" y2="407"/>
<line clip-path="url(#clipPath3)" fill="none" x1="933" x2="943" y1="407" y2="407"/>
<line clip-path="url(#clipPath3)" fill="none" x1="945" x2="955" y1="407" y2="407"/>
<line clip-path="url(#clipPath3)" fill="none" x1="958" x2="968" y1="407" y2="407"/>
<line clip-path="url(#clipPath3)" fill="none" x1="971" x2="981" y1="407" y2="407"/>
<line clip-path="url(#clipPath3)" fill="none" x1="983" x2="993" y1="407" y2="407"/>
<line clip-path="url(#clipPath3)" fill="none" x1="996" x2="1006" y1="407" y2="407"/>
<line clip-path="url(#clipPath3)" fill="none" x1="1008" x2="1018" y1="407" y2="407"/>
<line clip-path="url(#clipPath3)" fill="none" x1="1021" x2="1031" y1="407" y2="407"/>
<line clip-path="url(#clipPath3)" fill="none" x1="1034" x2="1044" y1="407" y2="407"/>
<line clip-path="url(#clipPath3)" fill="none" x1="1046" x2="1056" y1="407" y2="407"/>
<line clip-path="url(#clipPath3)" fill="none" x1="1059" x2="1069" y1="407" y2="407"/>
<line clip-path="url(#clipPath3)" fill="none" x1="1071" x2="1081" y1="407" y2="407"/>
<line clip-path="url(#clipPath3)" fill="none" x1="1084" x2="1094" y1="407" y2="407"/>
<line clip-path="url(#clipPath3)" fill="none" x1="1097" x2="1107" y1="407" y2="407"/>
<line clip-path="url(#clipPath3)" fill="none" x1="1109" x2="1119" y1="407" y2="407"/>
<line clip-path="url(#clipPath3)" fill="none" x1="1122" x2="1132" y1="407" y2="407"/>
<line clip-path="url(#clipPath3)" fill="none" x1="1134" x2="1144" y1="407" y2="407"/>
<text font-size="11" x="39" y="429" clip-path="url(#clipPath3)" stroke="none" xml:space="preserve">Bus.standardHost1.eth[0].queue.dataQueue</text>
<text font-size="11" x="51" y="419" clip-path="url(#clipPath3)" stroke="none" xml:space="preserve">Bus.standardHost1.eth[0].queue.pauseQueue</text>
<text font-size="11" x="64" y="429" clip-path="url(#clipPath3)" stroke="none" xml:space="preserve">Bus.standardHost2.eth[0].queue.dataQueue</text>
<text font-size="11" x="76" y="419" clip-path="url(#clipPath3)" stroke="none" xml:space="preserve">Bus.standardHost2.eth[0].queue.pauseQueue</text>
<text font-size="11" x="89" y="429" clip-path="url(#clipPath3)" stroke="none" xml:space="preserve">Bus.standardHost3.eth[0].queue.dataQueue</text>
<text font-size="11" x="102" y="419" clip-path="url(#clipPath3)" stroke="none" xml:space="preserve">Bus.standardHost3.eth[0].queue.pauseQueue</text>
<text font-size="11" x="114" y="429" clip-path="url(#clipPath3)" stroke="none" xml:space="preserve">Bus.standardHost4.eth[0].queue.dataQueue</text>
<text font-size="11" x="127" y="419" clip-path="url(#clipPath3)" stroke="none" xml:space="preserve">Bus.standardHost4.eth[0].queue.pauseQueue</text>
<text font-size="11" x="139" y="429" clip-path="url(#clipPath3)" stroke="none" xml:space="preserve">Bus.standardHost5.eth[0].queue.dataQueue</text>
<text font-size="11" x="152" y="419" clip-path="url(#clipPath3)" stroke="none" xml:space="preserve">Bus.standardHost5.eth[0].queue.pauseQueue</text>
<text font-size="11" x="165" y="429" clip-path="url(#clipPath3)" stroke="none" xml:space="preserve">Bus.standardHost6.eth[0].queue.dataQueue</text>
<text font-size="11" x="177" y="419" clip-path="url(#clipPath3)" stroke="none" xml:space="preserve">Bus.standardHost6.eth[0].queue.pauseQueue</text>
<text font-size="11" x="190" y="429" clip-path="url(#clipPath3)" stroke="none" xml:space="preserve">Bus.standardHost7.eth[0].queue.dataQueue</text>
<text font-size="11" x="202" y="419" clip-path="url(#clipPath3)" stroke="none" xml:space="preserve">Bus.standardHost7.eth[0].queue.pauseQueue</text>
<text font-size="11" x="215" y="429" clip-path="url(#clipPath3)" stroke="none" xml:space="preserve">Bus.standardHost8.eth[0].queue.dataQueue</text>
<text font-size="11" x="228" y="419" clip-path="url(#clipPath3)" stroke="none" xml:space="preserve">Bus.standardHost8.eth[0].queue.pauseQueue</text>
<text font-size="11" x="240" y="429" clip-path="url(#clipPath3)" stroke="none" xml:space="preserve">Bus.standardHost9.eth[0].queue.dataQueue</text>
<text font-size="11" x="253" y="419" clip-path="url(#clipPath3)" stroke="none" xml:space="preserve">Bus.standardHost9.eth[0].queue.pauseQueue</text>
<text font-size="11" x="265" y="429" clip-path="url(#clipPath3)" stroke="none" xml:space="preserve">Bus.standardHost10.eth[0].queue.dataQueue</text>
<text font-size="11" x="278" y="419" clip-path="url(#clipPath3)" stroke="none" xml:space="preserve">Bus.standardHost10.eth[0].queue.pauseQueue</text>
<text font-size="11" x="290" y="429" clip-path="url(#clipPath3)" stroke="none" xml:space="preserve">Bus.standardHost11.eth[0].queue.dataQueue</text>
<text font-size="11" x="303" y="419" clip-path="url(#clipPath3)" stroke="none" xml:space="preserve">Bus.standardHost11.eth[0].queue.pauseQueue</text>
<text font-size="11" x="316" y="429" clip-path="url(#clipPath3)" stroke="none" xml:space="preserve">Bus.standardHost12.eth[0].queue.dataQueue</text>
<text font-size="11" x="328" y="419" clip-path="url(#clipPath3)" stroke="none" xml:space="preserve">Bus.standardHost12.eth[0].queue.pauseQueue</text>
<text font-size="11" x="341" y="429" clip-path="url(#clipPath3)" stroke="none" xml:space="preserve">Bus.standardHost13.eth[0].queue.dataQueue</text>
<text font-size="11" x="353" y="419" clip-path="url(#clipPath3)" stroke="none" xml:space="preserve">Bus.standardHost13.eth[0].queue.pauseQueue</text>
<text font-size="11" x="366" y="429" clip-path="url(#clipPath3)" stroke="none" xml:space="preserve">Bus.standardHost14.eth[0].queue.dataQueue</text>
<text font-size="11" x="379" y="419" clip-path="url(#clipPath3)" stroke="none" xml:space="preserve">Bus.standardHost14.eth[0].queue.pauseQueue</text>
<text font-size="11" x="391" y="429" clip-path="url(#clipPath3)" stroke="none" xml:space="preserve">Bus.standardHost15.eth[0].queue.dataQueue</text>
<text font-size="11" x="404" y="419" clip-path="url(#clipPath3)" stroke="none" xml:space="preserve">Bus.standardHost15.eth[0].queue.pauseQueue</text>
<text font-size="11" x="416" y="429" clip-path="url(#clipPath3)" stroke="none" xml:space="preserve">Bus.standardHost16.eth[0].queue.dataQueue</text>
<text font-size="11" x="429" y="419" clip-path="url(#clipPath3)" stroke="none" xml:space="preserve">Bus.standardHost16.eth[0].queue.pauseQueue</text>
<text font-size="11" x="442" y="429" clip-path="url(#clipPath3)" stroke="none" xml:space="preserve">Bus.standardHost17.eth[0].queue.dataQueue</text>
<text font-size="11" x="454" y="419" clip-path="url(#clipPath3)" stroke="none" xml:space="preserve">Bus.standardHost17.eth[0].queue.pauseQueue</text>
<text font-size="11" x="467" y="429" clip-path="url(#clipPath3)" stroke="none" xml:space="preserve">Bus.standardHost18.eth[0].queue.dataQueue</text>
<text font-size="11" x="479" y="419" clip-path="url(#clipPath3)" stroke="none" xml:space="preserve">Bus.standardHost18.eth[0].queue.pauseQueue</text>
<text font-size="11" x="492" y="429" clip-path="url(#clipPath3)" stroke="none" xml:space="preserve">Bus.standardHost19.eth[0].queue.dataQueue</text>
<text font-size="11" x="505" y="419" clip-path="url(#clipPath3)" stroke="none" xml:space="preserve">Bus.standardHost19.eth[0].queue.pauseQueue</text>
<text font-size="11" x="517" y="429" clip-path="url(#clipPath3)" stroke="none" xml:space="preserve">Bus.standardHost20.eth[0].queue.dataQueue</text>
<text font-size="11" x="530" y="419" clip-path="url(#clipPath3)" stroke="none" xml:space="preserve">Bus.standardHost20.eth[0].queue.pauseQueue</text>
<text font-size="11" x="542" y="429" clip-path="url(#clipPath3)" stroke="none" xml:space="preserve">Bus.standardHost21.eth[0].queue.dataQueue</text>
<text font-size="11" x="555" y="419" clip-path="url(#clipPath3)" stroke="none" xml:space="preserve">Bus.standardHost21.eth[0].queue.pauseQueue</text>
<text font-size="11" x="568" y="429" clip-path="url(#clipPath3)" stroke="none" xml:space="preserve">Bus.standardHost22.eth[0].queue.dataQueue</text>
<text font-size="11" x="580" y="419" clip-path="url(#clipPath3)" stroke="none" xml:space="preserve">Bus.standardHost22.eth[0].queue.pauseQueue</text>
<text font-size="11" x="593" y="429" clip-path="url(#clipPath3)" stroke="none" xml:space="preserve">Bus.standardHost23.eth[0].queue.dataQueue</text>
<text font-size="11" x="605" y="419" clip-path="url(#clipPath3)" stroke="none" xml:space="preserve">Bus.standardHost23.eth[0].queue.pauseQueue</text>
<text font-size="11" x="618" y="429" clip-path="url(#clipPath3)" stroke="none" xml:space="preserve">Bus.standardHost24.eth[0].queue.dataQueue</text>
<text font-size="11" x="631" y="419" clip-path="url(#clipPath3)" stroke="none" xml:space="preserve">Bus.standardHost24.eth[0].queue.pauseQueue</text>
<text font-size="11" x="643" y="429" clip-path="url(#clipPath3)" stroke="none" xml:space="preserve">Bus.standardHost25.eth[0].queue.dataQueue</text>
<text font-size="11" x="656" y="419" clip-path="url(#clipPath3)" stroke="none" xml:space="preserve">Bus.standardHost25.eth[0].queue.pauseQueue</text>
<text font-size="11" x="668" y="429" clip-path="url(#clipPath3)" stroke="none" xml:space="preserve">Bus.standardHost26.eth[0].queue.dataQueue</text>
<text font-size="11" x="681" y="419" clip-path="url(#clipPath3)" stroke="none" xml:space="preserve">Bus.standardHost26.eth[0].queue.pauseQueue</text>
<text font-size="11" x="694" y="429" clip-path="url(#clipPath3)" stroke="none" xml:space="preserve">Bus.standardHost27.eth[0].queue.dataQueue</text>
<text font-size="11" x="706" y="419" clip-path="url(#clipPath3)" stroke="none" xml:space="preserve">Bus.standardHost27.eth[0].queue.pauseQueue</text>
<text font-size="11" x="719" y="429" clip-path="url(#clipPath3)" stroke="none" xml:space="preserve">Bus.standardHost28.eth[0].queue.dataQueue</text>
<text font-size="11" x="731" y="419" clip-path="url(#clipPath3)" stroke="none" xml:space="preserve">Bus.standardHost28.eth[0].queue.pauseQueue</text>
<text font-size="11" x="744" y="429" clip-path="url(#clipPath3)" stroke="none" xml:space="preserve">Bus.standardHost29.eth[0].queue.dataQueue</text>
<text font-size="11" x="756" y="419" clip-path="url(#clipPath3)" stroke="none" xml:space="preserve">Bus.standardHost29.eth[0].queue.pauseQueue</text>
<text font-size="11" x="769" y="429" clip-path="url(#clipPath3)" stroke="none" xml:space="preserve">Bus.standardHost30.eth[0].queue.dataQueue</text>
<text font-size="11" x="782" y="419" clip-path="url(#clipPath3)" stroke="none" xml:space="preserve">Bus.standardHost30.eth[0].queue.pauseQueue</text>
<text font-size="11" x="794" y="429" clip-path="url(#clipPath3)" stroke="none" xml:space="preserve">Bus.standardHost31.eth[0].queue.dataQueue</text>
<text font-size="11" x="807" y="419" clip-path="url(#clipPath3)" stroke="none" xml:space="preserve">Bus.standardHost31.eth[0].queue.pauseQueue</text>
<text font-size="11" x="819" y="429" clip-path="url(#clipPath3)" stroke="none" xml:space="preserve">Bus.standardHost32.eth[0].queue.dataQueue</text>
<text font-size="11" x="832" y="419" clip-path="url(#clipPath3)" stroke="none" xml:space="preserve">Bus.standardHost32.eth[0].queue.pauseQueue</text>
<text font-size="11" x="845" y="429" clip-path="url(#clipPath3)" stroke="none" xml:space="preserve">Bus.standardHost33.eth[0].queue.dataQueue</text>
<text font-size="11" x="857" y="419" clip-path="url(#clipPath3)" stroke="none" xml:space="preserve">Bus.standardHost33.eth[0].queue.pauseQueue</text>
<text font-size="11" x="870" y="429" clip-path="url(#clipPath3)" stroke="none" xml:space="preserve">Bus.standardHost34.eth[0].queue.dataQueue</text>
<text font-size="11" x="882" y="419" clip-path="url(#clipPath3)" stroke="none" xml:space="preserve">Bus.standardHost34.eth[0].queue.pauseQueue</text>
<text font-size="11" x="895" y="429" clip-path="url(#clipPath3)" stroke="none" xml:space="preserve">Bus.standardHost35.eth[0].queue.dataQueue</text>
<text font-size="11" x="908" y="419" clip-path="url(#clipPath3)" stroke="none" xml:space="preserve">Bus.standardHost35.eth[0].queue.pauseQueue</text>
<text font-size="11" x="920" y="429" clip-path="url(#clipPath3)" stroke="none" xml:space="preserve">Bus.standardHost36.eth[0].queue.dataQueue</text>
<text font-size="11" x="933" y="419" clip-path="url(#clipPath3)" stroke="none" xml:space="preserve">Bus.standardHost36.eth[0].queue.pauseQueue</text>
<text font-size="11" x="945" y="429" clip-path="url(#clipPath3)" stroke="none" xml:space="preserve">Bus.standardHost37.eth[0].queue.dataQueue</text>
<text font-size="11" x="958" y="419" clip-path="url(#clipPath3)" stroke="none" xml:space="preserve">Bus.standardHost37.eth[0].queue.pauseQueue</text>
<text font-size="11" x="971" y="429" clip-path="url(#clipPath3)" stroke="none" xml:space="preserve">Bus.standardHost38.eth[0].queue.dataQueue</text>
<text font-size="11" x="983" y="419" clip-path="url(#clipPath3)" stroke="none" xml:space="preserve">Bus.standardHost38.eth[0].queue.pauseQueue</text>
<text font-size="11" x="996" y="429" clip-path="url(#clipPath3)" stroke="none" xml:space="preserve">Bus.standardHost39.eth[0].queue.dataQueue</text>
<text font-size="11" x="1008" y="419" clip-path="url(#clipPath3)" stroke="none" xml:space="preserve">Bus.standardHost39.eth[0].queue.pauseQueue</text>
<text font-size="11" x="1021" y="429" clip-path="url(#clipPath3)" stroke="none" xml:space="preserve">Bus.standardHost40.eth[0].queue.dataQueue</text>
<text font-size="11" x="1034" y="419" clip-path="url(#clipPath3)" stroke="none" xml:space="preserve">Bus.standardHost40.eth[0].queue.pauseQueue</text>
<text font-size="11" x="1046" y="429" clip-path="url(#clipPath3)" stroke="none" xml:space="preserve">Bus.standardHost41.eth[0].queue.dataQueue</text>
<text font-size="11" x="1059" y="419" clip-path="url(#clipPath3)" stroke="none" xml:space="preserve">Bus.standardHost41.eth[0].queue.pauseQueue</text>
<text font-size="11" x="1071" y="429" clip-path="url(#clipPath3)" stroke="none" xml:space="preserve">Bus.standardHost42.eth[0].queue.dataQueue</text>
<text font-size="11" x="1084" y="419" clip-path="url(#clipPath3)" stroke="none" xml:space="preserve">Bus.standardHost42.eth[0].queue.pauseQueue</text>
<text font-size="11" x="1097" y="429" clip-path="url(#clipPath3)" stroke="none" xml:space="preserve">Bus.standardHost43.eth[0].queue.dataQueue</text>
<text font-size="11" x="1109" y="419" clip-path="url(#clipPath3)" stroke="none" xml:space="preserve">Bus.standardHost43.eth[0].queue.pauseQueue</text>
<text font-size="11" x="1122" y="429" clip-path="url(#clipPath3)" stroke="none" xml:space="preserve">Bus.standardHost44.eth[0].queue.dataQueue</text>
<text font-size="11" x="1134" y="419" clip-path="url(#clipPath3)" stroke="none" xml:space="preserve">Bus.standardHost44.eth[0].queue.pauseQueue</text>
</g>
</g>
</svg>
